<svg width="20" height="21" viewBox="0 0 20 21" fill="none" xmlns="http://www.w3.org/2000/svg">
<path fill-rule="evenodd" clip-rule="evenodd" d="M15.6502 10.9419C15.4061 11.186 15.0104 11.186 14.7663 10.9419L10.8333 7.00888V15.9167C10.8333 16.2618 10.5534 16.5417 10.2083 16.5417C9.86307 16.5417 9.58325 16.2618 9.58325 15.9167V7.00888L5.65019 10.9419C5.40612 11.186 5.01039 11.186 4.76631 10.9419C4.52223 10.6979 4.52223 10.3021 4.76631 10.0581L9.76631 5.05806C10.0104 4.81398 10.4061 4.81398 10.6502 5.05806L15.6502 10.0581C15.8943 10.3021 15.8943 10.6979 15.6502 10.9419Z" fill="#000"/>
<path fill-rule="evenodd" clip-rule="evenodd" d="M15.827 11.1187C15.4853 11.4604 14.9312 11.4604 14.5895 11.1187L11.0833 7.61244V15.9167C11.0833 16.3999 10.6915 16.7917 10.2083 16.7917C9.725 16.7917 9.33325 16.3999 9.33325 15.9167V7.61244L5.82697 11.1187C5.48526 11.4604 4.93124 11.4604 4.58953 11.1187C4.24782 10.777 4.24782 10.223 4.58953 9.88128L9.58953 4.88128C9.93124 4.53957 10.4853 4.53957 10.827 4.88128L15.827 9.88128C16.1687 10.223 16.1687 10.777 15.827 11.1187ZM5.65019 10.9419C5.40612 11.186 5.01039 11.186 4.76631 10.9419C4.52223 10.6979 4.52223 10.3021 4.76631 10.0581L9.76631 5.05806C10.0104 4.81398 10.4061 4.81398 10.6502 5.05806L15.6502 10.0581C15.8943 10.3021 15.8943 10.6979 15.6502 10.9419C15.4061 11.186 15.0104 11.186 14.7663 10.9419L10.8333 7.00888V15.9167C10.8333 16.2618 10.5534 16.5417 10.2083 16.5417C9.86307 16.5417 9.58325 16.2618 9.58325 15.9167V7.00888L5.65019 10.9419Z" fill="#000"/>
</svg>
