<svg width="20" height="20" viewBox="0 0 20 20" fill="none" xmlns="http://www.w3.org/2000/svg">
  <path fill-rule="evenodd" clip-rule="evenodd" d="M9.97468 4.55806C9.73061 4.80214 9.73061 5.19786 9.97468 5.44194L13.9077 9.375H4.99996C4.65478 9.375 4.37496 9.65482 4.37496 10C4.37496 10.3452 4.65478 10.625 4.99996 10.625H13.9077L9.97468 14.5581C9.73061 14.8021 9.73061 15.1979 9.97468 15.4419C10.2188 15.686 10.6145 15.686 10.8586 15.4419L15.8586 10.4419C16.1026 10.1979 16.1026 9.80214 15.8586 9.55806L10.8586 4.55806C10.6145 4.31398 10.2188 4.31398 9.97468 4.55806Z" fill="#000"/>
  <path fill-rule="evenodd" clip-rule="evenodd" d="M9.79791 4.38128C9.4562 4.72299 9.4562 5.27701 9.79791 5.61872L13.3042 9.125H4.99996C4.51671 9.125 4.12496 9.51675 4.12496 10C4.12496 10.4832 4.51671 10.875 4.99996 10.875H13.3042L9.79791 14.3813C9.4562 14.723 9.4562 15.277 9.79791 15.6187C10.1396 15.9604 10.6936 15.9604 11.0353 15.6187L16.0353 10.6187C16.3771 10.277 16.3771 9.72299 16.0353 9.38128L11.0353 4.38128C10.6936 4.03957 10.1396 4.03957 9.79791 4.38128ZM9.97468 14.5581C9.73061 14.8021 9.73061 15.1979 9.97468 15.4419C10.2188 15.686 10.6145 15.686 10.8586 15.4419L15.8586 10.4419C16.1026 10.1979 16.1026 9.80214 15.8586 9.55806L10.8586 4.55806C10.6145 4.31398 10.2188 4.31398 9.97468 4.55806C9.73061 4.80214 9.73061 5.19786 9.97468 5.44194L13.9077 9.375H4.99996C4.65478 9.375 4.37496 9.65482 4.37496 10C4.37496 10.3452 4.65478 10.625 4.99996 10.625H13.9077L9.97468 14.5581Z" fill="#000"/>
</svg>
