<svg width="20" height="20" viewBox="0 0 20 20" fill="none" xmlns="http://www.w3.org/2000/svg">
<g opacity="0.4">
<path fill-rule="evenodd" clip-rule="evenodd" d="M15.4419 9.97471C15.1979 9.73064 14.8021 9.73064 14.5581 9.97471L10.625 13.9078L10.625 4.99999C10.625 4.65481 10.3452 4.37499 10 4.37499C9.65482 4.37499 9.375 4.65481 9.375 4.99999L9.375 13.9078L5.44194 9.97471C5.19786 9.73064 4.80214 9.73064 4.55806 9.97471C4.31398 10.2188 4.31398 10.6145 4.55806 10.8586L9.55806 15.8586C9.80214 16.1027 10.1979 16.1027 10.4419 15.8586L15.4419 10.8586C15.686 10.6145 15.686 10.2188 15.4419 9.97471Z" fill="#2B292E"/>
<path fill-rule="evenodd" clip-rule="evenodd" d="M15.6187 9.79794C15.277 9.45623 14.723 9.45623 14.3813 9.79794L10.875 13.3042L10.875 4.99999C10.875 4.51674 10.4832 4.12499 10 4.12499C9.51675 4.12499 9.125 4.51674 9.125 4.99999L9.125 13.3042L5.61872 9.79794C5.27701 9.45623 4.72299 9.45623 4.38128 9.79794C4.03957 10.1396 4.03957 10.6937 4.38128 11.0354L9.38128 16.0354C9.72299 16.3771 10.277 16.3771 10.6187 16.0354L15.6187 11.0354C15.9604 10.6937 15.9604 10.1396 15.6187 9.79794ZM5.44194 9.97471C5.19786 9.73064 4.80214 9.73064 4.55806 9.97471C4.31398 10.2188 4.31398 10.6145 4.55806 10.8586L9.55806 15.8586C9.80214 16.1027 10.1979 16.1027 10.4419 15.8586L15.4419 10.8586C15.686 10.6145 15.686 10.2188 15.4419 9.97471C15.1979 9.73064 14.8021 9.73064 14.5581 9.97471L10.625 13.9078L10.625 4.99999C10.625 4.65481 10.3452 4.37499 10 4.37499C9.65482 4.37499 9.375 4.65481 9.375 4.99999L9.375 13.9078L5.44194 9.97471Z" fill="#2B292E"/>
</g>
</svg>
