<svg width="16" height="17" viewBox="0 0 16 17" fill="none" xmlns="http://www.w3.org/2000/svg">
  <path fill-rule="evenodd" clip-rule="evenodd" d="M8.35355 4.57711C8.54882 4.77237 8.54882 5.08896 8.35355 5.28422L5.20711 8.43066H12.3333C12.6095 8.43066 12.8333 8.65452 12.8333 8.93066C12.8333 9.20681 12.6095 9.43066 12.3333 9.43066H5.20711L8.35355 12.5771C8.54882 12.7724 8.54882 13.089 8.35355 13.2842C8.15829 13.4795 7.84171 13.4795 7.64645 13.2842L3.64645 9.28422C3.45118 9.08896 3.45118 8.77237 3.64645 8.57711L7.64645 4.57711C7.84171 4.38185 8.15829 4.38185 8.35355 4.57711Z" fill="#000"/>
  <path fill-rule="evenodd" clip-rule="evenodd" d="M8.49502 4.43549C8.76839 4.70886 8.76839 5.15208 8.49502 5.42544L5.69 8.23047H12.3334C12.72 8.23047 13.0334 8.54387 13.0334 8.93047C13.0334 9.31707 12.72 9.63047 12.3334 9.63047H5.69L8.49502 12.4355C8.76839 12.7089 8.76839 13.1521 8.49502 13.4254C8.22166 13.6988 7.77844 13.6988 7.50507 13.4254L3.50507 9.42544C3.23171 9.15208 3.23171 8.70886 3.50507 8.43549L7.50507 4.43549C7.77844 4.16213 8.22166 4.16213 8.49502 4.43549ZM8.3536 12.5769C8.54886 12.7722 8.54886 13.0888 8.3536 13.284C8.15834 13.4793 7.84176 13.4793 7.6465 13.284L3.6465 9.28402C3.45123 9.08876 3.45123 8.77218 3.6465 8.57692L7.6465 4.57692C7.84176 4.38165 8.15834 4.38165 8.3536 4.57692C8.54886 4.77218 8.54886 5.08876 8.3536 5.28402L5.20716 8.43047H12.3334C12.6095 8.43047 12.8334 8.65433 12.8334 8.93047C12.8334 9.20661 12.6095 9.43047 12.3334 9.43047H5.20716L8.3536 12.5769Z" fill="#000"/>
</svg>
