<svg width="20" height="21" viewBox="0 0 20 21" fill="none" xmlns="http://www.w3.org/2000/svg">
<path fill-rule="evenodd" clip-rule="evenodd" d="M9.97468 4.5677C9.73061 4.81178 9.73061 5.20751 9.97468 5.45159L13.9077 9.38464H4.99996C4.65478 9.38464 4.37496 9.66447 4.37496 10.0096C4.37496 10.3548 4.65478 10.6346 4.99996 10.6346H13.9077L9.97468 14.5677C9.73061 14.8118 9.73061 15.2075 9.97468 15.4516C10.2188 15.6957 10.6145 15.6957 10.8586 15.4516L15.8586 10.4516C16.1026 10.2075 16.1026 9.81178 15.8586 9.5677L10.8586 4.5677C10.6145 4.32362 10.2188 4.32362 9.97468 4.5677Z" fill="#2B292E" fill-opacity="0.4"/>
<path fill-rule="evenodd" clip-rule="evenodd" d="M9.79791 4.39093C9.4562 4.73263 9.4562 5.28665 9.79791 5.62836L13.3042 9.13464H4.99996C4.51671 9.13464 4.12496 9.52639 4.12496 10.0096C4.12496 10.4929 4.51671 10.8846 4.99996 10.8846H13.3042L9.79791 14.3909C9.4562 14.7326 9.4562 15.2867 9.79791 15.6284C10.1396 15.9701 10.6936 15.9701 11.0353 15.6284L16.0353 10.6284C16.3771 10.2867 16.3771 9.73263 16.0353 9.39092L11.0353 4.39093C10.6936 4.04922 10.1396 4.04922 9.79791 4.39093ZM9.97468 14.5677C9.73061 14.8118 9.73061 15.2075 9.97468 15.4516C10.2188 15.6957 10.6145 15.6957 10.8586 15.4516L15.8586 10.4516C16.1026 10.2075 16.1026 9.81178 15.8586 9.5677L10.8586 4.5677C10.6145 4.32362 10.2188 4.32362 9.97468 4.5677C9.73061 4.81178 9.73061 5.20751 9.97468 5.45159L13.9077 9.38464H4.99996C4.65478 9.38464 4.37496 9.66447 4.37496 10.0096C4.37496 10.3548 4.65478 10.6346 4.99996 10.6346H13.9077L9.97468 14.5677Z" fill="#2B292E" fill-opacity="0.4"/>
</svg>
