<svg width="20" height="20" viewBox="0 0 20 20" fill="none" xmlns="http://www.w3.org/2000/svg">
  <path fill-rule="evenodd" clip-rule="evenodd" d="M12.8291 4.4144C12.8291 4.00501 13.161 3.67313 13.5704 3.67313L17.5238 3.67313C17.9332 3.67313 18.265 4.00501 18.265 4.4144C18.265 4.82379 17.9332 5.15566 17.5238 5.15566L13.5704 5.15566C13.161 5.15566 12.8291 4.82379 12.8291 4.4144Z" fill="#000"/>
  <path fill-rule="evenodd" clip-rule="evenodd" d="M12.5332 4.41445C12.5332 3.84131 12.9978 3.37668 13.571 3.37668L17.5244 3.37668C18.0975 3.37668 18.5622 3.84131 18.5622 4.41445C18.5622 4.9876 18.0975 5.45222 17.5244 5.45222L13.571 5.45222C12.9978 5.45222 12.5332 4.9876 12.5332 4.41445ZM13.571 3.67319C13.1616 3.67319 12.8297 4.00507 12.8297 4.41445C12.8297 4.82384 13.1616 5.15572 13.571 5.15572L17.5244 5.15572C17.9338 5.15572 18.2656 4.82384 18.2656 4.41445C18.2656 4.00507 17.9338 3.67319 17.5244 3.67319L13.571 3.67319Z" fill="#000"/>
  <path fill-rule="evenodd" clip-rule="evenodd" d="M12.8291 12.8155C12.8291 12.4061 13.161 12.0742 13.5704 12.0742L17.5238 12.0742C17.9332 12.0742 18.265 12.4061 18.265 12.8155C18.265 13.2248 17.9332 13.5567 17.5238 13.5567L13.5704 13.5567C13.161 13.5567 12.8291 13.2248 12.8291 12.8155Z" fill="#000"/>
  <path fill-rule="evenodd" clip-rule="evenodd" d="M12.5332 12.8155C12.5332 12.2423 12.9978 11.7777 13.571 11.7777L17.5244 11.7777C18.0975 11.7777 18.5622 12.2423 18.5622 12.8155C18.5622 13.3886 18.0975 13.8532 17.5244 13.8532L13.571 13.8532C12.9978 13.8532 12.5332 13.3886 12.5332 12.8155ZM13.571 12.0742C13.1616 12.0742 12.8297 12.4061 12.8297 12.8155C12.8297 13.2248 13.1616 13.5567 13.571 13.5567L17.5244 13.5567C17.9338 13.5567 18.2656 13.2248 18.2656 12.8155C18.2656 12.4061 17.9338 12.0742 17.5244 12.0742L13.571 12.0742Z" fill="#000"/>
  <path fill-rule="evenodd" clip-rule="evenodd" d="M12.8291 15.7805C12.8291 15.3712 13.161 15.0393 13.5704 15.0393L17.5238 15.0393C17.9332 15.0393 18.265 15.3712 18.265 15.7805C18.265 16.1899 17.9332 16.5218 17.5238 16.5218H13.5704C13.161 16.5218 12.8291 16.1899 12.8291 15.7805Z" fill="#000"/>
  <path fill-rule="evenodd" clip-rule="evenodd" d="M12.5332 15.7805C12.5332 15.2074 12.9978 14.7428 13.571 14.7428L17.5244 14.7428C18.0975 14.7428 18.5622 15.2074 18.5622 15.7805C18.5622 16.3537 18.0975 16.8183 17.5244 16.8183H13.571C12.9978 16.8183 12.5332 16.3537 12.5332 15.7805ZM13.571 15.0393C13.1616 15.0393 12.8297 15.3712 12.8297 15.7805C12.8297 16.1899 13.1616 16.5218 13.571 16.5218H17.5244C17.9338 16.5218 18.2656 16.1899 18.2656 15.7805C18.2656 15.3712 17.9338 15.0393 17.5244 15.0393L13.571 15.0393Z" fill="#000"/>
  <path fill-rule="evenodd" clip-rule="evenodd" d="M5.66328 1.69651C6.07267 1.69651 6.40455 2.02838 6.40455 2.43777V3.67321H7.63999C8.04937 3.67321 8.38125 4.00509 8.38125 4.41448C8.38125 4.82387 8.04937 5.15574 7.63999 5.15574H6.40455V6.39118C6.40455 6.80057 6.07267 7.13245 5.66328 7.13245C5.25389 7.13245 4.92202 6.80057 4.92202 6.39118V5.15574H3.68658C3.27719 5.15574 2.94531 4.82387 2.94531 4.41448C2.94531 4.00509 3.27719 3.67321 3.68658 3.67321H4.92202V2.43777C4.92202 2.02838 5.25389 1.69651 5.66328 1.69651Z" fill="#000"/>
  <path fill-rule="evenodd" clip-rule="evenodd" d="M5.66389 1.4C6.23703 1.4 6.70166 1.86463 6.70166 2.43777V3.3767H7.64059C8.21374 3.3767 8.67836 3.84133 8.67836 4.41447C8.67836 4.98762 8.21374 5.45224 7.64059 5.45224H6.70166V6.39118C6.70166 6.96432 6.23703 7.42895 5.66389 7.42895C5.09074 7.42895 4.62612 6.96432 4.62612 6.39118V5.45224H3.68718C3.11404 5.45224 2.64941 4.98762 2.64941 4.41447C2.64941 3.84133 3.11404 3.3767 3.68718 3.3767H4.62612V2.43777C4.62612 1.86463 5.09074 1.4 5.66389 1.4ZM6.40515 2.43777C6.40515 2.02838 6.07328 1.69651 5.66389 1.69651C5.2545 1.69651 4.92262 2.02838 4.92262 2.43777V3.67321H3.68718C3.27779 3.67321 2.94592 4.00508 2.94592 4.41447C2.94592 4.82386 3.27779 5.15574 3.68718 5.15574H4.92262V6.39118C4.92262 6.80057 5.2545 7.13244 5.66389 7.13244C6.07328 7.13244 6.40515 6.80057 6.40515 6.39118V5.15574H7.64059C8.04998 5.15574 8.38186 4.82386 8.38186 4.41447C8.38186 4.00508 8.04998 3.67321 7.64059 3.67321H6.40515V2.43777Z" fill="#000"/>
  <path fill-rule="evenodd" clip-rule="evenodd" d="M3.74221 12.3761C4.03169 12.0866 4.50103 12.0866 4.79051 12.3761L5.6641 13.2497L6.53769 12.3761C6.82717 12.0866 7.29651 12.0866 7.58599 12.3761C7.87548 12.6656 7.87548 13.1349 7.58599 13.4244L6.71241 14.298L7.58599 15.1716C7.87548 15.4611 7.87548 15.9304 7.58599 16.2199C7.29651 16.5094 6.82717 16.5094 6.53769 16.2199L5.6641 15.3463L4.79051 16.2199C4.50103 16.5094 4.03169 16.5094 3.74221 16.2199C3.45272 15.9304 3.45272 15.4611 3.74221 15.1716L4.61579 14.298L3.74221 13.4244C3.45272 13.1349 3.45272 12.6656 3.74221 12.3761Z" fill="#000"/>
  <path fill-rule="evenodd" clip-rule="evenodd" d="M3.53195 12.1665C3.93722 11.7612 4.5943 11.7612 4.99957 12.1665L5.6635 12.8304L6.32743 12.1665C6.7327 11.7612 7.38978 11.7612 7.79506 12.1665C8.20033 12.5717 8.20033 13.2288 7.79506 13.6341L7.13113 14.298L7.79506 14.9619C8.20033 15.3672 8.20033 16.0243 7.79506 16.4296C7.38978 16.8348 6.7327 16.8348 6.32743 16.4296L5.6635 15.7656L4.99957 16.4296C4.5943 16.8348 3.93722 16.8348 3.53195 16.4296C3.12667 16.0243 3.12667 15.3672 3.53195 14.9619L4.19587 14.298L3.53195 13.6341C3.12667 13.2288 3.12667 12.5717 3.53195 12.1665ZM4.78991 12.3761C4.50043 12.0866 4.03109 12.0866 3.74161 12.3761C3.45212 12.6656 3.45213 13.1349 3.74161 13.4244L4.61519 14.298L3.74161 15.1716C3.45213 15.4611 3.45212 15.9304 3.74161 16.2199C4.03109 16.5094 4.50043 16.5094 4.78991 16.2199L5.6635 15.3463L6.53709 16.2199C6.82657 16.5094 7.29591 16.5094 7.58539 16.2199C7.87488 15.9304 7.87488 15.4611 7.58539 15.1716L6.71181 14.298L7.58539 13.4244C7.87488 13.1349 7.87488 12.6656 7.58539 12.3761C7.29591 12.0866 6.82657 12.0866 6.53709 12.3761L5.6635 13.2497L4.78991 12.3761Z" fill="#000"/>
</svg>
