<svg width="24" height="24" viewBox="0 0 24 24" fill="none" xmlns="http://www.w3.org/2000/svg">
  <path fill-rule="evenodd" clip-rule="evenodd" d="M5.7304 5.73039C6.04849 5.4123 6.56421 5.4123 6.88231 5.73039L12 10.8481L17.1177 5.73039C17.4358 5.4123 17.9515 5.4123 18.2696 5.73039C18.5877 6.04848 18.5877 6.5642 18.2696 6.88229L13.1519 12L18.2696 17.1177C18.5877 17.4358 18.5877 17.9515 18.2696 18.2696C17.9515 18.5877 17.4358 18.5877 17.1177 18.2696L12 13.1519L6.88231 18.2696C6.56421 18.5877 6.04849 18.5877 5.7304 18.2696C5.41231 17.9515 5.41231 17.4358 5.7304 17.1177L10.8481 12L5.7304 6.88229C5.41231 6.5642 5.41231 6.04848 5.7304 5.73039Z" fill="#000"/>
  <path fill-rule="evenodd" clip-rule="evenodd" d="M5.49999 5.50001C5.94532 5.05468 6.66734 5.05468 7.11266 5.50001L12 10.3873L16.8873 5.50001C17.3326 5.05468 18.0547 5.05468 18.5 5.50001C18.9453 5.94533 18.9453 6.66735 18.5 7.11268L13.6127 12L18.5 16.8873C18.9453 17.3326 18.9453 18.0547 18.5 18.5C18.0547 18.9453 17.3326 18.9453 16.8873 18.5L12 13.6127L7.11266 18.5C6.66734 18.9453 5.94532 18.9453 5.49999 18.5C5.05467 18.0547 5.05467 17.3326 5.49999 16.8873L10.3873 12L5.49999 7.11268C5.05467 6.66735 5.05467 5.94533 5.49999 5.50001ZM6.88228 5.73039C6.56419 5.4123 6.04847 5.4123 5.73038 5.73039C5.41228 6.04848 5.41228 6.5642 5.73038 6.8823L10.8481 12L5.73038 17.1177C5.41228 17.4358 5.41228 17.9515 5.73038 18.2696C6.04847 18.5877 6.56419 18.5877 6.88228 18.2696L12 13.1519L17.1177 18.2696C17.4358 18.5877 17.9515 18.5877 18.2696 18.2696C18.5877 17.9515 18.5877 17.4358 18.2696 17.1177L13.1519 12L18.2696 6.8823C18.5877 6.56421 18.5877 6.04848 18.2696 5.73039C17.9515 5.4123 17.4358 5.4123 17.1177 5.73039L12 10.8481L6.88228 5.73039Z" fill="#000"/>
</svg>
