<svg width="20" height="20" viewBox="0 0 20 20" fill="none" xmlns="http://www.w3.org/2000/svg">
  <path fill-rule="evenodd" clip-rule="evenodd" d="M1.875 7.50016C1.875 6.23451 2.90101 5.2085 4.16667 5.2085H15.8333C17.099 5.2085 18.125 6.23451 18.125 7.50016V15.0002C18.125 16.2658 17.099 17.2918 15.8333 17.2918H4.16667C2.90101 17.2918 1.875 16.2658 1.875 15.0002V7.50016ZM4.16667 6.4585C3.59137 6.4585 3.125 6.92487 3.125 7.50016V15.0002C3.125 15.5755 3.59137 16.0418 4.16667 16.0418H15.8333C16.4086 16.0418 16.875 15.5755 16.875 15.0002V7.50016C16.875 6.92487 16.4086 6.4585 15.8333 6.4585H4.16667Z" fill="#000"/>
  <path fill-rule="evenodd" clip-rule="evenodd" d="M1.625 7.50016C1.625 6.09644 2.76294 4.9585 4.16667 4.9585H15.8333C17.2371 4.9585 18.375 6.09644 18.375 7.50016V15.0002C18.375 16.4039 17.2371 17.5418 15.8333 17.5418H4.16667C2.76294 17.5418 1.625 16.4039 1.625 15.0002V7.50016ZM4.16667 6.7085C3.72944 6.7085 3.375 7.06294 3.375 7.50016V15.0002C3.375 15.4374 3.72944 15.7918 4.16667 15.7918H15.8333C16.2706 15.7918 16.625 15.4374 16.625 15.0002V7.50016C16.625 7.06294 16.2706 6.7085 15.8333 6.7085H4.16667ZM4.16667 5.2085C2.90101 5.2085 1.875 6.23451 1.875 7.50016V15.0002C1.875 16.2658 2.90101 17.2918 4.16667 17.2918H15.8333C17.099 17.2918 18.125 16.2658 18.125 15.0002V7.50016C18.125 6.23451 17.099 5.2085 15.8333 5.2085H4.16667ZM3.125 7.50016C3.125 6.92487 3.59137 6.4585 4.16667 6.4585H15.8333C16.4086 6.4585 16.875 6.92487 16.875 7.50016V15.0002C16.875 15.5755 16.4086 16.0418 15.8333 16.0418H4.16667C3.59137 16.0418 3.125 15.5755 3.125 15.0002V7.50016Z" fill="#000"/>
  <path fill-rule="evenodd" clip-rule="evenodd" d="M5.20837 3C5.20837 2.37868 5.71206 1.875 6.33337 1.875H13.6667C14.288 1.875 14.7917 2.37868 14.7917 3V5.83333H13.5417V3.125H6.45837V5.83333H5.20837V3Z" fill="#000"/>
  <path fill-rule="evenodd" clip-rule="evenodd" d="M15.0417 6.08333H13.2917V3.375H6.70837V6.08333H4.95837V3C4.95837 2.24061 5.57398 1.625 6.33337 1.625H13.6667C14.4261 1.625 15.0417 2.24061 15.0417 3V6.08333ZM6.45837 5.83333H5.20837V3C5.20837 2.37868 5.71206 1.875 6.33337 1.875H13.6667C14.288 1.875 14.7917 2.37868 14.7917 3V5.83333H13.5417V3.125H6.45837V5.83333Z" fill="#000"/>
  <path fill-rule="evenodd" clip-rule="evenodd" d="M7.70837 5.83333V2.5H8.95837V5.83333H7.70837Z" fill="#000"/>
  <path fill-rule="evenodd" clip-rule="evenodd" d="M7.45837 2.25H9.20837V6.08333H7.45837V2.25ZM7.70837 5.83333V2.5H8.95837V5.83333H7.70837Z" fill="#000"/>
  <path fill-rule="evenodd" clip-rule="evenodd" d="M10.25 5.83333V2.5H11.5V5.83333H10.25Z" fill="#000"/>
  <path fill-rule="evenodd" clip-rule="evenodd" d="M10 2.25H11.75V6.08333H10V2.25ZM10.25 5.83333V2.5H11.5V5.83333H10.25Z" fill="#000"/>
  <path d="M13.75 11.6668C13.5198 11.6668 13.3333 11.4803 13.3333 11.2502C13.3333 11.02 13.5198 10.8335 13.75 10.8335C13.9801 10.8335 14.1666 11.02 14.1666 11.2502C14.1666 11.4803 13.9801 11.6668 13.75 11.6668Z" fill="#000"/>
  <path fill-rule="evenodd" clip-rule="evenodd" d="M13.0833 11.2502C13.0833 11.6184 13.3818 11.9168 13.75 11.9168C14.1181 11.9168 14.4166 11.6184 14.4166 11.2502C14.4166 10.882 14.1181 10.5835 13.75 10.5835C13.3818 10.5835 13.0833 10.882 13.0833 11.2502ZM13.3333 11.2502C13.3333 11.4803 13.5198 11.6668 13.75 11.6668C13.9801 11.6668 14.1666 11.4803 14.1666 11.2502C14.1666 11.02 13.9801 10.8335 13.75 10.8335C13.5198 10.8335 13.3333 11.02 13.3333 11.2502Z" fill="#000"/>
  <path fill-rule="evenodd" clip-rule="evenodd" d="M13.75 11.4585C13.6349 11.4585 13.5416 11.3652 13.5416 11.2502C13.5416 11.1351 13.6349 11.0418 13.75 11.0418C13.865 11.0418 13.9583 11.1351 13.9583 11.2502C13.9583 11.3652 13.865 11.4585 13.75 11.4585ZM14.7916 11.2502C14.7916 10.6749 14.3253 10.2085 13.75 10.2085C13.1747 10.2085 12.7083 10.6749 12.7083 11.2502C12.7083 11.8255 13.1747 12.2918 13.75 12.2918C14.3253 12.2918 14.7916 11.8255 14.7916 11.2502Z" fill="#000"/>
  <path fill-rule="evenodd" clip-rule="evenodd" d="M13.75 11.2085C13.773 11.2085 13.7916 11.2272 13.7916 11.2502C13.7916 11.2732 13.773 11.2918 13.75 11.2918C13.7269 11.2918 13.7083 11.2732 13.7083 11.2502C13.7083 11.2272 13.7269 11.2085 13.75 11.2085ZM15.0416 11.2502C15.0416 10.5368 14.4633 9.9585 13.75 9.9585C13.0366 9.9585 12.4583 10.5368 12.4583 11.2502C12.4583 11.9635 13.0366 12.5418 13.75 12.5418C14.4633 12.5418 15.0416 11.9635 15.0416 11.2502ZM13.5416 11.2502C13.5416 11.3652 13.6349 11.4585 13.75 11.4585C13.865 11.4585 13.9583 11.3652 13.9583 11.2502C13.9583 11.1351 13.865 11.0418 13.75 11.0418C13.6349 11.0418 13.5416 11.1351 13.5416 11.2502ZM13.75 10.2085C14.3253 10.2085 14.7916 10.6749 14.7916 11.2502C14.7916 11.8255 14.3253 12.2918 13.75 12.2918C13.1747 12.2918 12.7083 11.8255 12.7083 11.2502C12.7083 10.6749 13.1747 10.2085 13.75 10.2085Z" fill="#000"/>
</svg>
