<svg width="20" height="20" viewBox="0 0 20 20" fill="none" xmlns="http://www.w3.org/2000/svg">
  <path fill-rule="evenodd" clip-rule="evenodd" d="M5.00004 3.95831C4.42474 3.95831 3.95837 4.42468 3.95837 4.99998V16.6666C3.95837 17.2419 4.42474 17.7083 5.00004 17.7083H10C10.3452 17.7083 10.625 17.9881 10.625 18.3333C10.625 18.6785 10.3452 18.9583 10 18.9583H5.00004C3.73439 18.9583 2.70837 17.9323 2.70837 16.6666V4.99998C2.70837 3.73433 3.73439 2.70831 5.00004 2.70831H7.08337C7.42855 2.70831 7.70837 2.98814 7.70837 3.33331C7.70837 3.67849 7.42855 3.95831 7.08337 3.95831H5.00004Z" fill="#000"/>
  <path fill-rule="evenodd" clip-rule="evenodd" d="M5.00004 4.20831C4.56282 4.20831 4.20837 4.56275 4.20837 4.99998V16.6666C4.20837 17.1039 4.56282 17.4583 5.00004 17.4583H10C10.4833 17.4583 10.875 17.8501 10.875 18.3333C10.875 18.8166 10.4833 19.2083 10 19.2083H5.00004C3.59632 19.2083 2.45837 18.0704 2.45837 16.6666V4.99998C2.45837 3.59626 3.59632 2.45831 5.00004 2.45831H7.08337C7.56662 2.45831 7.95837 2.85006 7.95837 3.33331C7.95837 3.81656 7.56662 4.20831 7.08337 4.20831H5.00004ZM3.95837 4.99998C3.95837 4.42468 4.42474 3.95831 5.00004 3.95831H7.08337C7.42855 3.95831 7.70837 3.67849 7.70837 3.33331C7.70837 2.98813 7.42855 2.70831 7.08337 2.70831H5.00004C3.73439 2.70831 2.70837 3.73433 2.70837 4.99998V16.6666C2.70837 17.9323 3.73439 18.9583 5.00004 18.9583H10C10.3452 18.9583 10.625 18.6785 10.625 18.3333C10.625 17.9881 10.3452 17.7083 10 17.7083H5.00004C4.42474 17.7083 3.95837 17.2419 3.95837 16.6666V4.99998Z" fill="#000"/>
  <path fill-rule="evenodd" clip-rule="evenodd" d="M12.2916 3.33331C12.2916 2.98814 12.5714 2.70831 12.9166 2.70831H15C16.2656 2.70831 17.2916 3.73433 17.2916 4.99998V12.5C17.2916 12.8452 17.0118 13.125 16.6666 13.125C16.3214 13.125 16.0416 12.8452 16.0416 12.5V4.99998C16.0416 4.42468 15.5753 3.95831 15 3.95831H12.9166C12.5714 3.95831 12.2916 3.67849 12.2916 3.33331Z" fill="#000"/>
  <path fill-rule="evenodd" clip-rule="evenodd" d="M12.0416 3.33331C12.0416 2.85006 12.4334 2.45831 12.9166 2.45831H15C16.4037 2.45831 17.5416 3.59626 17.5416 4.99998V12.5C17.5416 12.9832 17.1499 13.375 16.6666 13.375C16.1834 13.375 15.7916 12.9832 15.7916 12.5V4.99998C15.7916 4.56275 15.4372 4.20831 15 4.20831H12.9166C12.4334 4.20831 12.0416 3.81656 12.0416 3.33331ZM12.9166 2.70831C12.5714 2.70831 12.2916 2.98813 12.2916 3.33331C12.2916 3.67849 12.5714 3.95831 12.9166 3.95831H15C15.5753 3.95831 16.0416 4.42468 16.0416 4.99998V12.5C16.0416 12.8452 16.3214 13.125 16.6666 13.125C17.0118 13.125 17.2916 12.8452 17.2916 12.5V4.99998C17.2916 3.73433 16.2656 2.70831 15 2.70831H12.9166Z" fill="#000"/>
  <path fill-rule="evenodd" clip-rule="evenodd" d="M8.59885 2.01445C8.33297 2.32809 8.2109 2.72649 8.15865 3.02701C8.08629 3.44324 7.76279 3.84503 7.29163 3.93815V5.20831H12.7083V3.93815C12.2371 3.84503 11.9136 3.44324 11.8413 3.02701C11.789 2.72649 11.6669 2.32809 11.4011 2.01445C11.1566 1.7261 10.7497 1.45831 9.99996 1.45831C9.25018 1.45831 8.84328 1.7261 8.59885 2.01445ZM7.64535 1.20616C8.13483 0.628735 8.89473 0.208313 9.99996 0.208313C11.1052 0.208313 11.8651 0.628735 12.3546 1.20616C12.7877 1.71709 12.9733 2.3075 13.055 2.71742C13.5649 2.78509 13.9583 3.22159 13.9583 3.74998V5.33331C13.9583 5.95463 13.4546 6.45831 12.8333 6.45831H7.16663C6.54531 6.45831 6.04163 5.95463 6.04163 5.33331V3.74998C6.04163 3.22159 6.43505 2.78509 6.94494 2.71742C7.02667 2.3075 7.21223 1.71709 7.64535 1.20616Z" fill="#000"/>
  <path fill-rule="evenodd" clip-rule="evenodd" d="M8.78955 2.17611C8.5641 2.44206 8.45341 2.79115 8.40496 3.06984C8.32797 3.51269 8.01598 3.94923 7.54163 4.12634V4.95831H12.4583V4.12634C11.9839 3.94923 11.6719 3.51269 11.595 3.06983C11.5465 2.79115 11.4358 2.44206 11.2104 2.17611C11.0149 1.94553 10.6786 1.70831 9.99996 1.70831C9.32134 1.70831 8.98501 1.94553 8.78955 2.17611ZM12.7083 3.93815V5.20831H7.29163V3.93815C7.76279 3.84503 8.08629 3.44324 8.15865 3.02701C8.2109 2.72649 8.33297 2.32809 8.59885 2.01445C8.84328 1.72611 9.25018 1.45831 9.99996 1.45831C10.7497 1.45831 11.1566 1.72611 11.4011 2.01445C11.6669 2.32809 11.789 2.72649 11.8413 3.02701C11.9136 3.44324 12.2371 3.84503 12.7083 3.93815ZM7.45464 1.0445C7.99316 0.409233 8.82367 -0.041687 9.99996 -0.041687C11.1762 -0.041687 12.0068 0.409233 12.5453 1.0445C12.96 1.53369 13.1629 2.08549 13.2643 2.5057C13.8089 2.65759 14.2083 3.15697 14.2083 3.74998V5.33331C14.2083 6.0927 13.5927 6.70831 12.8333 6.70831H7.16663C6.40723 6.70831 5.79163 6.09271 5.79163 5.33331V3.74998C5.79163 3.15697 6.19106 2.65759 6.73563 2.5057C6.83704 2.08549 7.03996 1.53369 7.45464 1.0445ZM13.055 2.71742C12.9733 2.3075 12.7877 1.71709 12.3546 1.20616C11.8651 0.628735 11.1052 0.208313 9.99996 0.208313C8.89473 0.208313 8.13483 0.628735 7.64534 1.20616C7.21223 1.71709 7.02667 2.3075 6.94494 2.71742C6.43505 2.78509 6.04163 3.22159 6.04163 3.74998V5.33331C6.04163 5.95463 6.54531 6.45831 7.16663 6.45831H12.8333C13.4546 6.45831 13.9583 5.95463 13.9583 5.33331V3.74998C13.9583 3.22159 13.5649 2.78509 13.055 2.71742Z" fill="#000"/>
  <path fill-rule="evenodd" clip-rule="evenodd" d="M12.4747 16.6414C12.7187 16.3973 13.1145 16.3973 13.3585 16.6414L14.5833 17.8661L18.308 14.1414C18.5521 13.8973 18.9478 13.8973 19.1919 14.1414C19.436 14.3854 19.436 14.7812 19.1919 15.0253L15.0252 19.1919C14.7811 19.436 14.3854 19.436 14.1413 19.1919L12.4747 17.5253C12.2306 17.2812 12.2306 16.8854 12.4747 16.6414Z" fill="#000"/>
  <path fill-rule="evenodd" clip-rule="evenodd" d="M12.2979 16.4646C12.6396 16.1229 13.1936 16.1229 13.5354 16.4646L14.5833 17.5125L18.1313 13.9646C18.473 13.6229 19.027 13.6229 19.3687 13.9646C19.7104 14.3063 19.7104 14.8603 19.3687 15.202L15.202 19.3687C14.8603 19.7104 14.3063 19.7104 13.9646 19.3687L12.2979 17.702C11.9562 17.3603 11.9562 16.8063 12.2979 16.4646ZM13.3586 16.6414C13.1145 16.3973 12.7188 16.3973 12.4747 16.6414C12.2306 16.8854 12.2306 17.2812 12.4747 17.5253L14.1414 19.1919C14.3854 19.436 14.7812 19.436 15.0252 19.1919L19.1919 15.0253C19.436 14.7812 19.436 14.3854 19.1919 14.1414C18.9478 13.8973 18.5521 13.8973 18.308 14.1414L14.5833 17.8661L13.3586 16.6414Z" fill="#000"/>
</svg>
