<svg width="20" height="20" viewBox="0 0 20 20" fill="none" xmlns="http://www.w3.org/2000/svg">
  <path fill-rule="evenodd" clip-rule="evenodd" d="M6.875 8C6.875 7.37868 7.37868 6.875 8 6.875H16.1667C16.788 6.875 17.2917 7.37868 17.2917 8V16.1667C17.2917 16.788 16.788 17.2917 16.1667 17.2917H8C7.37868 17.2917 6.875 16.788 6.875 16.1667V8ZM8.125 8.125V16.0417H16.0417V8.125H8.125Z" fill="#000"/>
  <path fill-rule="evenodd" clip-rule="evenodd" d="M6.625 8C6.625 7.24061 7.24061 6.625 8 6.625H16.1667C16.9261 6.625 17.5417 7.24061 17.5417 8V16.1667C17.5417 16.9261 16.9261 17.5417 16.1667 17.5417H8C7.24061 17.5417 6.625 16.9261 6.625 16.1667V8ZM8.375 8.375V15.7917H15.7917V8.375H8.375ZM8 6.875C7.37868 6.875 6.875 7.37868 6.875 8V16.1667C6.875 16.788 7.37868 17.2917 8 17.2917H16.1667C16.788 17.2917 17.2917 16.788 17.2917 16.1667V8C17.2917 7.37868 16.788 6.875 16.1667 6.875H8ZM8.125 8.125H16.0417V16.0417H8.125V8.125Z" fill="#000"/>
  <path fill-rule="evenodd" clip-rule="evenodd" d="M2.70801 3.83334C2.70801 3.21202 3.21169 2.70834 3.83301 2.70834H11.9997C12.621 2.70834 13.1247 3.21202 13.1247 3.83334V7.5C13.1247 7.84518 12.8449 8.125 12.4997 8.125C12.1545 8.125 11.8747 7.84518 11.8747 7.5V3.95834H3.95801V11.875H7.49967C7.84485 11.875 8.12467 12.1548 8.12467 12.5C8.12467 12.8452 7.84485 13.125 7.49967 13.125H3.83301C3.21169 13.125 2.70801 12.6213 2.70801 12V3.83334Z" fill="#000"/>
  <path fill-rule="evenodd" clip-rule="evenodd" d="M2.45801 3.83334C2.45801 3.07394 3.07362 2.45834 3.83301 2.45834H11.9997C12.7591 2.45834 13.3747 3.07394 13.3747 3.83334V7.5C13.3747 7.98325 12.9829 8.375 12.4997 8.375C12.0164 8.375 11.6247 7.98325 11.6247 7.5V4.20834H4.20801V11.625H7.49967C7.98292 11.625 8.37467 12.0168 8.37467 12.5C8.37467 12.9833 7.98292 13.375 7.49967 13.375H3.83301C3.07362 13.375 2.45801 12.7594 2.45801 12V3.83334ZM3.83301 2.70834C3.21169 2.70834 2.70801 3.21202 2.70801 3.83334V12C2.70801 12.6213 3.21169 13.125 3.83301 13.125H7.49967C7.84485 13.125 8.12467 12.8452 8.12467 12.5C8.12467 12.1548 7.84485 11.875 7.49967 11.875H3.95801V3.95834H11.8747V7.5C11.8747 7.84518 12.1545 8.125 12.4997 8.125C12.8449 8.125 13.1247 7.84518 13.1247 7.5V3.83334C13.1247 3.21202 12.621 2.70834 11.9997 2.70834H3.83301Z" fill="#000"/>
</svg>
