<svg width="20" height="20" viewBox="0 0 20 20" fill="none" xmlns="http://www.w3.org/2000/svg">
  <path fill-rule="evenodd" clip-rule="evenodd" d="M1.875 3C1.875 2.37868 2.37868 1.875 3 1.875H17C17.6213 1.875 18.125 2.37868 18.125 3V17C18.125 17.6213 17.6213 18.125 17 18.125H3C2.37868 18.125 1.875 17.6213 1.875 17V3ZM3.125 3.125V16.875H16.875V3.125H3.125Z" fill="#000"/>
  <path fill-rule="evenodd" clip-rule="evenodd" d="M1.625 3C1.625 2.24061 2.24061 1.625 3 1.625H17C17.7594 1.625 18.375 2.24061 18.375 3V17C18.375 17.7594 17.7594 18.375 17 18.375H3C2.24061 18.375 1.625 17.7594 1.625 17V3ZM3.375 3.375V16.625H16.625V3.375H3.375ZM3 1.875C2.37868 1.875 1.875 2.37868 1.875 3V17C1.875 17.6213 2.37868 18.125 3 18.125H17C17.6213 18.125 18.125 17.6213 18.125 17V3C18.125 2.37868 17.6213 1.875 17 1.875H3ZM3.125 3.125H16.875V16.875H3.125V3.125Z" fill="#000"/>
  <path fill-rule="evenodd" clip-rule="evenodd" d="M7.5 17.5V8.125H8.75V17.5H7.5Z" fill="#000"/>
  <path fill-rule="evenodd" clip-rule="evenodd" d="M7.25 7.875H9V17.75H7.25V7.875ZM7.5 17.5V8.125H8.75V17.5H7.5Z" fill="#000"/>
  <path fill-rule="evenodd" clip-rule="evenodd" d="M17.5 8.75H2.5V7.5H17.5V8.75Z" fill="#000"/>
  <path fill-rule="evenodd" clip-rule="evenodd" d="M2.25 9V7.25H17.75V9H2.25ZM17.5 8.75H2.5V7.5H17.5V8.75Z" fill="#000"/>
</svg>
