<svg width="20" height="21" viewBox="0 0 20 21" fill="none" xmlns="http://www.w3.org/2000/svg">
  <path fill-rule="evenodd" clip-rule="evenodd" d="M17.7745 7.56694C18.0186 7.32286 18.0186 6.92714 17.7745 6.68306L13.6497 2.55827C13.4056 2.31419 13.0099 2.31419 12.7658 2.55827L2.40329 12.9208C2.1298 13.1943 1.97615 13.5652 1.97616 13.952L1.97615 17.7316C1.97615 18.0768 2.25598 18.3566 2.60115 18.3566L6.38077 18.3566C6.76754 18.3566 7.13847 18.203 7.41196 17.9295L17.7745 7.56694ZM16.4487 7.125L14.9755 8.59814L11.7346 5.35723L13.2078 3.88409L16.4487 7.125ZM10.8507 6.24112L14.0916 9.48202L6.52808 17.0456C6.48901 17.0847 6.43602 17.1066 6.38077 17.1066L3.22616 17.1066L3.22615 13.952C3.22616 13.8967 3.2481 13.8437 3.28717 13.8047L10.8507 6.24112Z" fill="#000"/>
  <path fill-rule="evenodd" clip-rule="evenodd" d="M17.9512 7.74372C18.2929 7.40201 18.2929 6.84799 17.9512 6.50628L13.8264 2.38149C13.4847 2.03978 12.9307 2.03978 12.589 2.38149L2.22648 12.744C1.9061 13.0644 1.72612 13.4989 1.72612 13.952L1.72612 17.7316C1.72612 18.2148 2.11787 18.6066 2.60112 18.6066L6.38073 18.6066C6.83381 18.6066 7.26833 18.4266 7.5887 18.1062L17.9512 7.74372ZM16.0951 7.125L14.9755 8.24459L12.0881 5.35723L13.2077 4.23765L16.0951 7.125ZM10.8507 6.59467L13.738 9.48202L6.36347 16.8566L3.47612 16.8566L3.47612 13.9692L10.8507 6.59467ZM3.22612 17.1066L6.38073 17.1066C6.43598 17.1066 6.48897 17.0847 6.52804 17.0456L14.0916 9.48202L10.8507 6.24112L3.28714 13.8047C3.24807 13.8437 3.22612 13.8967 3.22612 13.952L3.22612 17.1066ZM17.7745 6.68306C18.0185 6.92714 18.0185 7.32286 17.7745 7.56694L7.41193 17.9295C7.13844 18.203 6.7675 18.3566 6.38073 18.3566L2.60112 18.3566C2.25594 18.3566 1.97612 18.0768 1.97612 17.7316V13.952C1.97612 13.5652 2.12976 13.1943 2.40325 12.9208L12.7658 2.55827C13.0099 2.31419 13.4056 2.31419 13.6497 2.55827L17.7745 6.68306ZM16.4486 7.125L13.2077 3.88409L11.7346 5.35723L14.9755 8.59814L16.4486 7.125Z" fill="#000"/>
</svg>
