<svg width="20" height="20" viewBox="0 0 20 20" fill="none" xmlns="http://www.w3.org/2000/svg">
  <path fill-rule="evenodd" clip-rule="evenodd" d="M9.99992 2.29163C14.2571 2.29163 17.7083 5.74276 17.7083 9.99996C17.7083 14.2572 14.2571 17.7083 9.99992 17.7083C5.74272 17.7083 2.29158 14.2572 2.29158 9.99996C2.29158 5.74276 5.74272 2.29163 9.99992 2.29163ZM18.9583 9.99996C18.9583 5.05241 14.9475 1.04163 9.99992 1.04163C5.05237 1.04163 1.04158 5.05241 1.04158 9.99996C1.04158 14.9475 5.05237 18.9583 9.99992 18.9583C14.9475 18.9583 18.9583 14.9475 18.9583 9.99996Z" fill="#000"/>
  <path fill-rule="evenodd" clip-rule="evenodd" d="M9.99992 2.54163C14.119 2.54163 17.4583 5.88084 17.4583 9.99996C17.4583 14.1191 14.119 17.4583 9.99992 17.4583C5.8808 17.4583 2.54159 14.1191 2.54159 9.99996C2.54159 5.88084 5.8808 2.54163 9.99992 2.54163ZM19.2083 9.99996C19.2083 4.91434 15.0855 0.791626 9.99992 0.791626C4.9143 0.791626 0.791588 4.91434 0.791588 9.99996C0.791588 15.0856 4.9143 19.2083 9.99992 19.2083C15.0855 19.2083 19.2083 15.0856 19.2083 9.99996ZM17.7083 9.99996C17.7083 5.74276 14.2571 2.29163 9.99992 2.29163C5.74272 2.29163 2.29159 5.74276 2.29159 9.99996C2.29159 14.2572 5.74272 17.7083 9.99992 17.7083C14.2571 17.7083 17.7083 14.2572 17.7083 9.99996ZM9.99992 1.04163C14.9475 1.04163 18.9583 5.05241 18.9583 9.99996C18.9583 14.9475 14.9475 18.9583 9.99992 18.9583C5.05237 18.9583 1.04159 14.9475 1.04159 9.99996C1.04159 5.05241 5.05237 1.04163 9.99992 1.04163Z" fill="#000"/>
  <path d="M12.9166 7.49996C12.6865 7.49996 12.4999 7.31341 12.4999 7.08329C12.4999 6.85317 12.6865 6.66663 12.9166 6.66663C13.1467 6.66663 13.3333 6.85317 13.3333 7.08329C13.3333 7.31341 13.1467 7.49996 12.9166 7.49996Z" fill="#000"/>
  <path fill-rule="evenodd" clip-rule="evenodd" d="M12.9166 7.29163C12.8015 7.29163 12.7083 7.19835 12.7083 7.08329C12.7083 6.96823 12.8015 6.87496 12.9166 6.87496C13.0316 6.87496 13.1249 6.96823 13.1249 7.08329C13.1249 7.19835 13.0316 7.29163 12.9166 7.29163ZM13.9583 7.08329C13.9583 6.508 13.4919 6.04163 12.9166 6.04163C12.3413 6.04163 11.8749 6.508 11.8749 7.08329C11.8749 7.65859 12.3413 8.12496 12.9166 8.12496C13.4919 8.12496 13.9583 7.65859 13.9583 7.08329Z" fill="#000"/>
  <path fill-rule="evenodd" clip-rule="evenodd" d="M14.0833 7.08329C14.0833 6.43896 13.5609 5.91663 12.9166 5.91663C12.2723 5.91663 11.7499 6.43896 11.7499 7.08329C11.7499 7.72762 12.2723 8.24996 12.9166 8.24996C13.5609 8.24996 14.0833 7.72762 14.0833 7.08329ZM12.9166 6.16663C13.4228 6.16663 13.8333 6.57703 13.8333 7.08329C13.8333 7.58955 13.4228 7.99996 12.9166 7.99996C12.4103 7.99996 11.9999 7.58955 11.9999 7.08329C11.9999 6.57703 12.4103 6.16663 12.9166 6.16663ZM12.9166 6.99996C12.9626 6.99996 12.9999 7.03727 12.9999 7.08329C12.9999 7.12932 12.9626 7.16663 12.9166 7.16663C12.8706 7.16663 12.8333 7.12932 12.8333 7.08329C12.8333 7.03727 12.8706 6.99996 12.9166 6.99996ZM13.2499 7.08329C13.2499 6.8992 13.1007 6.74996 12.9166 6.74996C12.7325 6.74996 12.5833 6.8992 12.5833 7.08329C12.5833 7.26739 12.7325 7.41663 12.9166 7.41663C13.1007 7.41663 13.2499 7.26739 13.2499 7.08329Z" fill="#000"/>
  <path d="M7.08333 7.49996C6.85321 7.49996 6.66667 7.31341 6.66667 7.08329C6.66667 6.85317 6.85321 6.66663 7.08333 6.66663C7.31345 6.66663 7.5 6.85317 7.5 7.08329C7.5 7.31341 7.31345 7.49996 7.08333 7.49996Z" fill="#000"/>
  <path fill-rule="evenodd" clip-rule="evenodd" d="M7.08333 7.29163C6.96827 7.29163 6.875 7.19835 6.875 7.08329C6.875 6.96823 6.96827 6.87496 7.08333 6.87496C7.19839 6.87496 7.29167 6.96823 7.29167 7.08329C7.29167 7.19835 7.19839 7.29163 7.08333 7.29163ZM8.125 7.08329C8.125 6.508 7.65863 6.04163 7.08333 6.04163C6.50804 6.04163 6.04167 6.508 6.04167 7.08329C6.04167 7.65859 6.50804 8.12496 7.08333 8.12496C7.65863 8.12496 8.125 7.65859 8.125 7.08329Z" fill="#000"/>
  <path fill-rule="evenodd" clip-rule="evenodd" d="M8.25 7.08329C8.25 6.43896 7.72767 5.91663 7.08333 5.91663C6.439 5.91663 5.91667 6.43896 5.91667 7.08329C5.91667 7.72762 6.439 8.24996 7.08333 8.24996C7.72767 8.24996 8.25 7.72762 8.25 7.08329ZM7.08333 6.16663C7.58959 6.16663 8 6.57703 8 7.08329C8 7.58955 7.58959 7.99996 7.08333 7.99996C6.57707 7.99996 6.16667 7.58955 6.16667 7.08329C6.16667 6.57703 6.57707 6.16663 7.08333 6.16663ZM7.08333 6.99996C7.12936 6.99996 7.16667 7.03727 7.16667 7.08329C7.16667 7.12932 7.12936 7.16663 7.08333 7.16663C7.03731 7.16663 7 7.12932 7 7.08329C7 7.03727 7.03731 6.99996 7.08333 6.99996ZM7.41667 7.08329C7.41667 6.8992 7.26743 6.74996 7.08333 6.74996C6.89924 6.74996 6.75 6.8992 6.75 7.08329C6.75 7.26739 6.89924 7.41663 7.08333 7.41663C7.26743 7.41663 7.41667 7.26739 7.41667 7.08329Z" fill="#000"/>
  <path fill-rule="evenodd" clip-rule="evenodd" d="M13.8105 11.2629C14.0335 11.5263 14.0007 11.9207 13.7372 12.1437C12.3993 13.276 11.2259 13.9658 9.97338 13.9654C8.71768 13.9651 7.56121 13.2716 6.25686 12.1385C5.99628 11.9121 5.96856 11.5173 6.19494 11.2567C6.42133 10.9962 6.81608 10.9684 7.07666 11.1948C8.33975 12.2922 9.19752 12.7152 9.97375 12.7154C10.7531 12.7157 11.6293 12.2901 12.9296 11.1896C13.1931 10.9666 13.5875 10.9994 13.8105 11.2629Z" fill="#000"/>
  <path fill-rule="evenodd" clip-rule="evenodd" d="M14.0013 11.1014C14.3135 11.4702 14.2676 12.0223 13.8987 12.3345C12.5533 13.4733 11.3204 14.2158 9.97331 14.2154C8.62175 14.215 7.40555 13.4676 6.0929 12.3272C5.7281 12.0102 5.68929 11.4576 6.00622 11.0928C6.32316 10.728 6.87582 10.6892 7.24062 11.0061C8.49553 12.0963 9.29354 12.4652 9.97382 12.4654C10.6585 12.4656 11.4752 12.093 12.7681 10.9988C13.137 10.6866 13.6891 10.7325 14.0013 11.1014ZM13.7372 12.1437C14.0007 11.9207 14.0335 11.5263 13.8105 11.2629C13.5875 10.9994 13.1931 10.9666 12.9297 11.1896C11.6293 12.2901 10.7531 12.7157 9.97375 12.7154C9.19753 12.7152 8.33976 12.2922 7.07666 11.1948C6.81609 10.9685 6.42133 10.9962 6.19495 11.2567C5.96857 11.5173 5.99629 11.9121 6.25686 12.1385C7.56121 13.2716 8.71768 13.9651 9.97339 13.9654C11.2259 13.9658 12.3993 13.2761 13.7372 12.1437Z" fill="#000"/>
</svg>
