<svg width="16" height="17" viewBox="0 0 16 17" fill="none" xmlns="http://www.w3.org/2000/svg">
  <path fill-rule="evenodd" clip-rule="evenodd" d="M12.5461 9.04303C10.7249 5.09699 5.27535 5.09699 3.4541 9.04303C3.33838 9.29375 3.04132 9.4032 2.79059 9.28748C2.53987 9.17176 2.43042 8.8747 2.54614 8.62397C4.72489 3.90334 11.2753 3.90334 13.4541 8.62397C13.5698 8.8747 13.4604 9.17176 13.2097 9.28748C12.9589 9.4032 12.6619 9.29375 12.5461 9.04303Z" fill="#000"/>
  <path fill-rule="evenodd" clip-rule="evenodd" d="M12.3644 9.12664C10.6147 5.33552 5.38529 5.33552 3.63555 9.12664C3.47354 9.47766 3.05765 9.63088 2.70663 9.46888C2.35562 9.30687 2.20239 8.89098 2.3644 8.53996C4.61465 3.66441 11.3853 3.66441 13.6355 8.53996C13.7976 8.89098 13.6443 9.30687 13.2933 9.46888C12.9423 9.63088 12.5264 9.47766 12.3644 9.12664ZM3.45395 9.04283C5.2752 5.09679 10.7247 5.09679 12.546 9.04283C12.6617 9.29356 12.9588 9.403 13.2095 9.28728C13.4602 9.17156 13.5697 8.8745 13.454 8.62377C11.2752 3.90314 4.72475 3.90314 2.54599 8.62377C2.43027 8.8745 2.53972 9.17156 2.79044 9.28728C3.04117 9.403 3.33823 9.29356 3.45395 9.04283Z" fill="#000"/>
  <path fill-rule="evenodd" clip-rule="evenodd" d="M7.99992 9C8.46016 9 8.83325 9.3731 8.83325 9.83333C8.83325 10.2936 8.46016 10.6667 7.99992 10.6667C7.53968 10.6667 7.16659 10.2936 7.16659 9.83333C7.16659 9.3731 7.53968 9 7.99992 9ZM9.83325 9.83333C9.83325 8.82081 9.01244 8 7.99992 8C6.9874 8 6.16659 8.82081 6.16659 9.83333C6.16659 10.8459 6.9874 11.6667 7.99992 11.6667C9.01244 11.6667 9.83325 10.8459 9.83325 9.83333Z" fill="#000"/>
  <path fill-rule="evenodd" clip-rule="evenodd" d="M8.00011 9.1998C8.34989 9.1998 8.63345 9.48336 8.63345 9.83314C8.63345 10.1829 8.34989 10.4665 8.00011 10.4665C7.65033 10.4665 7.36678 10.1829 7.36678 9.83314C7.36678 9.48336 7.65033 9.1998 8.00011 9.1998ZM10.0334 9.83314C10.0334 8.71016 9.12309 7.7998 8.00011 7.7998C6.87713 7.7998 5.96678 8.71016 5.96678 9.83314C5.96678 10.9561 6.87713 11.8665 8.00011 11.8665C9.12309 11.8665 10.0334 10.9561 10.0334 9.83314ZM8.83345 9.83314C8.83345 9.3729 8.46035 8.9998 8.00011 8.9998C7.53988 8.9998 7.16678 9.3729 7.16678 9.83314C7.16678 10.2934 7.53988 10.6665 8.00011 10.6665C8.46035 10.6665 8.83345 10.2934 8.83345 9.83314ZM8.00011 7.9998C9.01264 7.9998 9.83345 8.82062 9.83345 9.83314C9.83345 10.8457 9.01264 11.6665 8.00011 11.6665C6.98759 11.6665 6.16678 10.8457 6.16678 9.83314C6.16678 8.82062 6.98759 7.9998 8.00011 7.9998Z" fill="#000"/>
</svg>
