<svg width="24" height="24" viewBox="0 0 24 24" fill="none" xmlns="http://www.w3.org/2000/svg">
  <path fill-rule="evenodd" clip-rule="evenodd" d="M9.93414 2.93414C11.0125 1.8558 12.475 1.25 14 1.25H17C17.4142 1.25 17.75 1.58579 17.75 2V6C17.75 6.41421 17.4142 6.75 17 6.75H14C13.9337 6.75 13.8701 6.77634 13.8232 6.82322C13.7763 6.87011 13.75 6.9337 13.75 7V9.25H17C17.231 9.25 17.449 9.3564 17.5912 9.53844C17.7333 9.72048 17.7836 9.95785 17.7276 10.1819L16.7276 14.1819C16.6441 14.5158 16.3442 14.75 16 14.75H13.75V22C13.75 22.4142 13.4142 22.75 13 22.75H9C8.58579 22.75 8.25 22.4142 8.25 22V14.75H6C5.58579 14.75 5.25 14.4142 5.25 14V10C5.25 9.58579 5.58579 9.25 6 9.25H8.25V7C8.25 5.47501 8.8558 4.01247 9.93414 2.93414ZM14 2.75C12.8728 2.75 11.7918 3.19777 10.9948 3.9948C10.1978 4.79183 9.75 5.87283 9.75 7V10C9.75 10.4142 9.41421 10.75 9 10.75H6.75V13.25H9C9.41421 13.25 9.75 13.5858 9.75 14V21.25H12.25V14C12.25 13.5858 12.5858 13.25 13 13.25H15.4144L16.0394 10.75H13C12.5858 10.75 12.25 10.4142 12.25 10V7C12.25 6.53587 12.4344 6.09075 12.7626 5.76256C13.0908 5.43438 13.5359 5.25 14 5.25H16.25V2.75H14Z" fill="#000"/>
  <path fill-rule="evenodd" clip-rule="evenodd" d="M9.72196 2.72196C10.8566 1.58736 12.3954 0.949951 14 0.949951H17C17.5799 0.949951 18.05 1.42005 18.05 1.99995V5.99995C18.05 6.57985 17.5799 7.04995 17 7.04995H14.05V8.94995H17C17.3233 8.94995 17.6286 9.09892 17.8276 9.35377C18.0265 9.60862 18.097 9.94094 18.0186 10.2546L17.0186 14.2546C16.9017 14.722 16.4818 15.05 16 15.05H14.05V22C14.05 22.5798 13.5799 23.0499 13 23.0499H8.99995C8.42005 23.0499 7.94995 22.5798 7.94995 22V15.05H5.99995C5.42005 15.05 4.94995 14.5799 4.94995 14V9.99995C4.94995 9.42005 5.42005 8.94995 5.99995 8.94995H7.94995V6.99995C7.94995 5.39539 8.58736 3.85655 9.72196 2.72196ZM14 3.04995C12.9523 3.04995 11.9476 3.46611 11.2069 4.20688C10.4661 4.94765 10.05 5.95235 10.05 6.99995V9.99995C10.05 10.5799 9.57985 11.05 8.99995 11.05H7.04995V12.95H8.99995C9.57985 12.95 10.05 13.4201 10.05 14V20.95H11.95V14C11.95 13.4201 12.4201 12.95 13 12.95H15.1801L15.6551 11.05H13C12.4201 11.05 11.95 10.5799 11.95 9.99995V6.99995C11.95 6.45626 12.1659 5.93483 12.5504 5.55038C12.9348 5.16593 13.4563 4.94995 14 4.94995H15.95V3.04995H14ZM13 10.75C12.5857 10.75 12.25 10.4142 12.25 9.99995V6.99995C12.25 6.53582 12.4343 6.0907 12.7625 5.76251C13.0907 5.43433 13.5358 5.24995 14 5.24995H16.25V2.74995H14C12.8728 2.74995 11.7918 3.19772 10.9947 3.99475C10.1977 4.79178 9.74995 5.87278 9.74995 6.99995V9.99995C9.74995 10.4142 9.41417 10.75 8.99995 10.75H6.74995V13.25H8.99995C9.41417 13.25 9.74995 13.5857 9.74995 14V21.25H12.25V14C12.25 13.5857 12.5857 13.25 13 13.25H15.4144L16.0394 10.75H13ZM14 1.24995C12.475 1.24995 11.0124 1.85575 9.93409 2.93409C8.85575 4.01242 8.24995 5.47496 8.24995 6.99995V9.24995H5.99995C5.58574 9.24995 5.24995 9.58574 5.24995 9.99995V14C5.24995 14.4142 5.58574 14.75 5.99995 14.75H8.24995V22C8.24995 22.4142 8.58574 22.75 8.99995 22.75H13C13.4142 22.75 13.75 22.4142 13.75 22V14.75H16C16.3441 14.75 16.6441 14.5157 16.7276 14.1819L17.7276 10.1819C17.7836 9.9578 17.7332 9.72043 17.5911 9.53839C17.449 9.35635 17.2309 9.24995 17 9.24995H13.75V6.99995C13.75 6.93365 13.7763 6.87006 13.8232 6.82317C13.8701 6.77629 13.9336 6.74995 14 6.74995H17C17.4142 6.74995 17.75 6.41417 17.75 5.99995V1.99995C17.75 1.58574 17.4142 1.24995 17 1.24995H14Z" fill="#000"/>
</svg>
