<svg width="20" height="20" viewBox="0 0 20 20" fill="none" xmlns="http://www.w3.org/2000/svg">
<path fill-rule="evenodd" clip-rule="evenodd" d="M9.375 2.84161C9.375 2.03395 10.2008 1.48942 10.9432 1.80757L17.9798 4.82328C18.8695 5.20458 18.8943 6.45688 18.0203 6.87304L10.625 10.3946V15C10.625 15.3452 10.3452 15.625 10 15.625C9.65482 15.625 9.375 15.3452 9.375 15V2.84161ZM10.625 9.01014L17.2333 5.86331L10.625 3.03117V9.01014Z" fill="#000"/>
<path fill-rule="evenodd" clip-rule="evenodd" d="M9.125 2.84163C9.125 1.8545 10.1343 1.18895 11.0416 1.57781L18.0783 4.59352C19.1657 5.05955 19.196 6.59014 18.1278 7.09878L10.875 10.5525V15C10.875 15.4833 10.4832 15.875 10 15.875C9.51675 15.875 9.125 15.4833 9.125 15V2.84163ZM10.625 10.3947L18.0203 6.87306C18.8943 6.4569 18.8695 5.2046 17.9798 4.8233L10.9432 1.80759C10.2008 1.48944 9.375 2.03398 9.375 2.84163V15C9.375 15.3452 9.65482 15.625 10 15.625C10.3452 15.625 10.625 15.3452 10.625 15V10.3947ZM17.2333 5.86334L10.625 3.0312V9.01016L17.2333 5.86334ZM10.875 8.61422L16.6267 5.87533L10.875 3.41033V8.61422Z" fill="#000"/>
<path fill-rule="evenodd" clip-rule="evenodd" d="M6.15504 13.9133C5.16586 14.4079 4.79199 14.9755 4.79199 15.4167C4.79199 15.8578 5.16586 16.4255 6.15504 16.92C7.10685 17.3959 8.46548 17.7083 10.0003 17.7083C11.5352 17.7083 12.8938 17.3959 13.8456 16.92C14.8348 16.4255 15.2087 15.8578 15.2087 15.4167C15.2087 14.9755 14.8348 14.4079 13.8456 13.9133C12.8938 13.4374 11.5352 13.125 10.0003 13.125C8.46548 13.125 7.10685 13.4374 6.15504 13.9133ZM5.59603 12.7953C6.75548 12.2155 8.31351 11.875 10.0003 11.875C11.6871 11.875 13.2452 12.2155 14.4046 12.7953C15.5267 13.3563 16.4587 14.247 16.4587 15.4167C16.4587 16.5863 15.5267 17.477 14.4046 18.0381C13.2452 18.6178 11.6871 18.9583 10.0003 18.9583C8.31351 18.9583 6.75548 18.6178 5.59603 18.0381C4.47396 17.477 3.54199 16.5863 3.54199 15.4167C3.54199 14.247 4.47396 13.3563 5.59603 12.7953Z" fill="#000"/>
<path fill-rule="evenodd" clip-rule="evenodd" d="M6.26685 14.1369C5.30606 14.6173 5.04199 15.12 5.04199 15.4167C5.04199 15.7134 5.30606 16.216 6.26685 16.6964C7.17713 17.1516 8.49589 17.4583 10.0003 17.4583C11.5048 17.4583 12.8235 17.1516 13.7338 16.6964C14.6946 16.216 14.9587 15.7134 14.9587 15.4167C14.9587 15.12 14.6946 14.6173 13.7338 14.1369C12.8235 13.6818 11.5048 13.375 10.0003 13.375C8.49589 13.375 7.17713 13.6818 6.26685 14.1369ZM5.48422 12.5716C6.68521 11.9712 8.28312 11.625 10.0003 11.625C11.7175 11.625 13.3154 11.9712 14.5164 12.5716C15.664 13.1454 16.7087 14.1005 16.7087 15.4167C16.7087 16.7328 15.664 17.6879 14.5164 18.2617C13.3154 18.8622 11.7175 19.2083 10.0003 19.2083C8.28312 19.2083 6.68521 18.8622 5.48422 18.2617C4.33665 17.6879 3.29199 16.7328 3.29199 15.4167C3.29199 14.1005 4.33665 13.1454 5.48422 12.5716ZM4.79199 15.4167C4.79199 14.9755 5.16586 14.4079 6.15504 13.9133C7.10685 13.4374 8.46548 13.125 10.0003 13.125C11.5352 13.125 12.8938 13.4374 13.8456 13.9133C14.8348 14.4079 15.2087 14.9755 15.2087 15.4167C15.2087 15.8578 14.8348 16.4255 13.8456 16.92C12.8938 17.3959 11.5352 17.7083 10.0003 17.7083C8.46548 17.7083 7.10685 17.3959 6.15504 16.92C5.16586 16.4255 4.79199 15.8578 4.79199 15.4167ZM10.0003 11.875C8.31351 11.875 6.75548 12.2155 5.59603 12.7953C4.47396 13.3563 3.54199 14.247 3.54199 15.4167C3.54199 16.5863 4.47396 17.477 5.59603 18.0381C6.75548 18.6178 8.31351 18.9583 10.0003 18.9583C11.6871 18.9583 13.2452 18.6178 14.4046 18.0381C15.5267 17.477 16.4587 16.5863 16.4587 15.4167C16.4587 14.247 15.5267 13.3563 14.4046 12.7953C13.2452 12.2155 11.6871 11.875 10.0003 11.875Z" fill="#000"/>
</svg>
