<svg width="20" height="20" viewBox="0 0 20 20" fill="none" xmlns="http://www.w3.org/2000/svg">
  <path fill-rule="evenodd" clip-rule="evenodd" d="M2.70837 16.6665C2.70837 17.0117 2.9882 17.2915 3.33337 17.2915H16.6667C17.0119 17.2915 17.2917 17.0117 17.2917 16.6665C17.2917 16.3213 17.0119 16.0415 16.6667 16.0415H3.95837V3.33317C3.95837 2.98799 3.67855 2.70817 3.33337 2.70817C2.9882 2.70817 2.70837 2.98799 2.70837 3.33317V16.6665Z" fill="#000"/>
  <path fill-rule="evenodd" clip-rule="evenodd" d="M2.45837 16.6665C2.45837 17.1498 2.85012 17.5415 3.33337 17.5415H16.6667C17.15 17.5415 17.5417 17.1498 17.5417 16.6665C17.5417 16.1833 17.15 15.7915 16.6667 15.7915H4.20837V3.33317C4.20837 2.84992 3.81662 2.45817 3.33337 2.45817C2.85012 2.45817 2.45837 2.84992 2.45837 3.33317V16.6665ZM3.33337 17.2915C2.9882 17.2915 2.70837 17.0117 2.70837 16.6665V3.33317C2.70837 2.98799 2.9882 2.70817 3.33337 2.70817C3.67855 2.70817 3.95837 2.98799 3.95837 3.33317V16.0415H16.6667C17.0119 16.0415 17.2917 16.3213 17.2917 16.6665C17.2917 17.0117 17.0119 17.2915 16.6667 17.2915H3.33337Z" fill="#000"/>
  <path fill-rule="evenodd" clip-rule="evenodd" d="M2.87742 14.1775C3.1135 14.4293 3.50902 14.442 3.76084 14.206L9.98602 8.36986L12.0581 10.4419C12.3022 10.686 12.6979 10.686 12.942 10.4419L16.692 6.69194C16.9361 6.44786 16.9361 6.05213 16.692 5.80806C16.4479 5.56398 16.0522 5.56398 15.8081 5.80806L12.5 9.11612L10.442 7.05806C10.2035 6.81953 9.81868 6.81332 9.57258 7.04404L2.90591 13.294C2.65409 13.5301 2.64133 13.9256 2.87742 14.1775Z" fill="#000"/>
  <path fill-rule="evenodd" clip-rule="evenodd" d="M2.69503 14.3484C3.02555 14.701 3.57928 14.7189 3.93183 14.3883L9.98041 8.7178L11.8813 10.6187C12.223 10.9604 12.7771 10.9604 13.1188 10.6187L16.8688 6.86871C17.2105 6.52701 17.2105 5.97299 16.8688 5.63128C16.5271 5.28957 15.973 5.28957 15.6313 5.63128L12.5 8.76256L10.6188 6.88128C10.2848 6.54734 9.74613 6.53865 9.4016 6.86165L2.73493 13.1117C2.38238 13.4422 2.36452 13.9959 2.69503 14.3484ZM12.5 9.11611L15.8081 5.80805C16.0522 5.56398 16.4479 5.56398 16.692 5.80805C16.9361 6.05213 16.9361 6.44786 16.692 6.69194L12.942 10.4419C12.6979 10.686 12.3022 10.686 12.0581 10.4419L9.98602 8.36985L3.76084 14.206C3.50902 14.442 3.1135 14.4293 2.87742 14.1775C2.64133 13.9256 2.65409 13.5301 2.90591 13.294L9.57258 7.04404C9.81868 6.81332 10.2035 6.81952 10.442 7.05805L12.5 9.11611Z" fill="#000"/>
</svg>
