<svg width="16" height="17" viewBox="0 0 16 17" fill="none" xmlns="http://www.w3.org/2000/svg">
  <path fill-rule="evenodd" clip-rule="evenodd" d="M11.3281 9.33337C11.6043 9.33337 11.8281 9.55723 11.8281 9.83337V11.3334H13.3281C13.6043 11.3334 13.8281 11.5572 13.8281 11.8334C13.8281 12.1095 13.6043 12.3334 13.3281 12.3334H11.8281V13.8334C11.8281 14.1095 11.6043 14.3334 11.3281 14.3334C11.052 14.3334 10.8281 14.1095 10.8281 13.8334V12.3334H9.32812C9.05198 12.3334 8.82812 12.1095 8.82812 11.8334C8.82812 11.5572 9.05198 11.3334 9.32812 11.3334H10.8281V9.83337C10.8281 9.55723 11.052 9.33337 11.3281 9.33337Z" fill="#000"/>
  <path fill-rule="evenodd" clip-rule="evenodd" d="M10.728 9.83328C10.728 9.50191 10.9967 9.23328 11.328 9.23328C11.6594 9.23328 11.928 9.50191 11.928 9.83328V11.2333H13.328C13.6594 11.2333 13.928 11.5019 13.928 11.8333C13.928 12.1646 13.6594 12.4333 13.328 12.4333H11.928V13.8333C11.928 14.1646 11.6594 14.4333 11.328 14.4333C10.9967 14.4333 10.728 14.1646 10.728 13.8333V12.4333H9.32803C8.99666 12.4333 8.72803 12.1646 8.72803 11.8333C8.72803 11.5019 8.99666 11.2333 9.32803 11.2333H10.728V9.83328ZM11.328 9.43328C11.1071 9.43328 10.928 9.61236 10.928 9.83328V11.3333C10.928 11.3885 10.8833 11.4333 10.828 11.4333H9.32803C9.10711 11.4333 8.92803 11.6124 8.92803 11.8333C8.92803 12.0542 9.10711 12.2333 9.32803 12.2333H10.828C10.8833 12.2333 10.928 12.278 10.928 12.3333V13.8333C10.928 14.0542 11.1071 14.2333 11.328 14.2333C11.5489 14.2333 11.728 14.0542 11.728 13.8333V12.3333C11.728 12.278 11.7728 12.2333 11.828 12.2333H13.328C13.5489 12.2333 13.728 12.0542 13.728 11.8333C13.728 11.6124 13.5489 11.4333 13.328 11.4333H11.828C11.7728 11.4333 11.728 11.3885 11.728 11.3333V9.83328C11.728 9.61236 11.5489 9.43328 11.328 9.43328Z" fill="#000"/>
  <path fill-rule="evenodd" clip-rule="evenodd" d="M3.16675 3.66663V6.66663H6.16675V3.66663H3.16675ZM2.16675 3.56663C2.16675 3.06957 2.56969 2.66663 3.06675 2.66663H6.26675C6.7638 2.66663 7.16675 3.06957 7.16675 3.56663V6.76663C7.16675 7.26368 6.7638 7.66663 6.26675 7.66663H3.06675C2.56969 7.66663 2.16675 7.26368 2.16675 6.76663V3.56663Z" fill="#000"/>
  <path fill-rule="evenodd" clip-rule="evenodd" d="M2.06665 3.56665C2.06665 3.01437 2.51437 2.56665 3.06665 2.56665H6.26665C6.81894 2.56665 7.26665 3.01437 7.26665 3.56665V6.76665C7.26665 7.31894 6.81894 7.76665 6.26665 7.76665H3.06665C2.51437 7.76665 2.06665 7.31894 2.06665 6.76665V3.56665ZM3.06665 2.76665C2.62482 2.76665 2.26665 3.12482 2.26665 3.56665V6.76665C2.26665 7.20848 2.62482 7.56665 3.06665 7.56665H6.26665C6.70848 7.56665 7.06665 7.20848 7.06665 6.76665V3.56665C7.06665 3.12482 6.70848 2.76665 6.26665 2.76665H3.06665ZM3.06665 3.56665H6.26665V6.76665H3.06665V3.56665ZM3.26665 3.76665V6.56665H6.06665V3.76665H3.26665Z" fill="#000"/>
  <path fill-rule="evenodd" clip-rule="evenodd" d="M3.16675 10.3334V13.3334H6.16675V10.3334H3.16675ZM2.16675 10.2334C2.16675 9.73632 2.56969 9.33337 3.06675 9.33337H6.26675C6.7638 9.33337 7.16675 9.73632 7.16675 10.2334V13.4334C7.16675 13.9304 6.7638 14.3334 6.26675 14.3334H3.06675C2.56969 14.3334 2.16675 13.9304 2.16675 13.4334V10.2334Z" fill="#000"/>
  <path fill-rule="evenodd" clip-rule="evenodd" d="M2.06665 10.2333C2.06665 9.68099 2.51437 9.23328 3.06665 9.23328H6.26665C6.81894 9.23328 7.26665 9.68099 7.26665 10.2333V13.4333C7.26665 13.9856 6.81894 14.4333 6.26665 14.4333H3.06665C2.51437 14.4333 2.06665 13.9856 2.06665 13.4333V10.2333ZM3.06665 9.43328C2.62482 9.43328 2.26665 9.79145 2.26665 10.2333V13.4333C2.26665 13.8751 2.62482 14.2333 3.06665 14.2333H6.26665C6.70848 14.2333 7.06665 13.8751 7.06665 13.4333V10.2333C7.06665 9.79145 6.70848 9.43328 6.26665 9.43328H3.06665ZM3.06665 10.2333H6.26665V13.4333H3.06665V10.2333ZM3.26665 10.4333V13.2333H6.06665V10.4333H3.26665Z" fill="#000"/>
  <path fill-rule="evenodd" clip-rule="evenodd" d="M9.83325 3.66663V6.66663H12.8333V3.66663H9.83325ZM8.83325 3.56663C8.83325 3.06957 9.2362 2.66663 9.73325 2.66663H12.9333C13.4303 2.66663 13.8333 3.06957 13.8333 3.56663V6.76663C13.8333 7.26368 13.4303 7.66663 12.9333 7.66663H9.73325C9.2362 7.66663 8.83325 7.26368 8.83325 6.76663V3.56663Z" fill="#000"/>
  <path fill-rule="evenodd" clip-rule="evenodd" d="M8.7334 3.56665C8.7334 3.01437 9.18111 2.56665 9.7334 2.56665H12.9334C13.4857 2.56665 13.9334 3.01437 13.9334 3.56665V6.76665C13.9334 7.31894 13.4857 7.76665 12.9334 7.76665H9.7334C9.18111 7.76665 8.7334 7.31894 8.7334 6.76665V3.56665ZM9.7334 2.76665C9.29157 2.76665 8.9334 3.12482 8.9334 3.56665V6.76665C8.9334 7.20848 9.29157 7.56665 9.7334 7.56665H12.9334C13.3752 7.56665 13.7334 7.20848 13.7334 6.76665V3.56665C13.7334 3.12482 13.3752 2.76665 12.9334 2.76665H9.7334ZM9.7334 3.56665H12.9334V6.76665H9.7334V3.56665ZM9.9334 3.76665V6.56665H12.7334V3.76665H9.9334Z" fill="#000"/>
</svg>
