<svg width="20" height="20" viewBox="0 0 20 20" fill="none" xmlns="http://www.w3.org/2000/svg">
  <path fill-rule="evenodd" clip-rule="evenodd" d="M6.62504 10.625C3.97868 10.625 1.83337 12.7703 1.83337 15.4167V15.8333C1.83337 16.1785 1.55355 16.4583 1.20837 16.4583C0.863196 16.4583 0.583374 16.1785 0.583374 15.8333V15.4167C0.583374 12.0799 3.28832 9.375 6.62504 9.375C9.96176 9.375 12.6667 12.0799 12.6667 15.4167V15.8333C12.6667 16.1785 12.3869 16.4583 12.0417 16.4583C11.6965 16.4583 11.4167 16.1785 11.4167 15.8333V15.4167C11.4167 12.7703 9.27141 10.625 6.62504 10.625Z" fill="#000"/>
  <path fill-rule="evenodd" clip-rule="evenodd" d="M6.62504 10.875C4.11675 10.875 2.08337 12.9084 2.08337 15.4167V15.8333C2.08337 16.3166 1.69162 16.7083 1.20837 16.7083C0.725125 16.7083 0.333374 16.3166 0.333374 15.8333V15.4167C0.333374 11.9419 3.15025 9.125 6.62504 9.125C10.0998 9.125 12.9167 11.9419 12.9167 15.4167V15.8333C12.9167 16.3166 12.525 16.7083 12.0417 16.7083C11.5585 16.7083 11.1667 16.3166 11.1667 15.8333V15.4167C11.1667 12.9084 9.13333 10.875 6.62504 10.875ZM1.83337 15.4167C1.83337 12.7703 3.97868 10.625 6.62504 10.625C9.27141 10.625 11.4167 12.7703 11.4167 15.4167V15.8333C11.4167 16.1785 11.6965 16.4583 12.0417 16.4583C12.3869 16.4583 12.6667 16.1785 12.6667 15.8333V15.4167C12.6667 12.0799 9.96176 9.375 6.62504 9.375C3.28832 9.375 0.583374 12.0799 0.583374 15.4167V15.8333C0.583374 16.1785 0.863196 16.4583 1.20837 16.4583C1.55355 16.4583 1.83337 16.1785 1.83337 15.8333V15.4167Z" fill="#000"/>
  <path fill-rule="evenodd" clip-rule="evenodd" d="M14.1629 8.125C12.4161 8.125 11 9.54107 11 11.2879H9.75C9.75 8.85071 11.7257 6.875 14.1629 6.875H14.5417C17.188 6.875 19.3333 9.0203 19.3333 11.6667C19.3333 12.0118 19.0535 12.2917 18.7083 12.2917C18.3632 12.2917 18.0833 12.0118 18.0833 11.6667C18.0833 9.71066 16.4977 8.125 14.5417 8.125H14.1629Z" fill="#000"/>
  <path fill-rule="evenodd" clip-rule="evenodd" d="M11.25 11.5379H9.5V11.2879C9.5 8.71264 11.5876 6.625 14.1629 6.625H14.5417C17.3261 6.625 19.5833 8.88223 19.5833 11.6667C19.5833 12.1499 19.1916 12.5417 18.7083 12.5417C18.2251 12.5417 17.8333 12.1499 17.8333 11.6667C17.8333 9.84873 16.3596 8.375 14.5417 8.375H14.1629C12.5541 8.375 11.25 9.67914 11.25 11.2879V11.5379ZM9.75696 11.0379C9.88658 8.71702 11.8096 6.875 14.1629 6.875H14.5417C17.188 6.875 19.3333 9.0203 19.3333 11.6667C19.3333 12.0118 19.0535 12.2917 18.7083 12.2917C18.3632 12.2917 18.0833 12.0118 18.0833 11.6667C18.0833 9.71066 16.4977 8.125 14.5417 8.125H14.1629C12.4161 8.125 11 9.54107 11 11.2879H9.75C9.75 11.204 9.75234 11.1206 9.75696 11.0379Z" fill="#000"/>
  <path fill-rule="evenodd" clip-rule="evenodd" d="M7.04171 3.9585C5.54594 3.9585 4.33337 5.17106 4.33337 6.66683C4.33337 8.1626 5.54594 9.37516 7.04171 9.37516C8.53748 9.37516 9.75004 8.1626 9.75004 6.66683C9.75004 5.17106 8.53748 3.9585 7.04171 3.9585ZM3.08337 6.66683C3.08337 4.4807 4.85558 2.7085 7.04171 2.7085C9.22783 2.7085 11 4.4807 11 6.66683C11 8.85296 9.22783 10.6252 7.04171 10.6252C4.85558 10.6252 3.08337 8.85296 3.08337 6.66683Z" fill="#000"/>
  <path fill-rule="evenodd" clip-rule="evenodd" d="M7.04171 4.2085C5.68401 4.2085 4.58337 5.30913 4.58337 6.66683C4.58337 8.02453 5.68401 9.12516 7.04171 9.12516C8.39941 9.12516 9.50004 8.02453 9.50004 6.66683C9.50004 5.30913 8.39941 4.2085 7.04171 4.2085ZM2.83337 6.66683C2.83337 4.34263 4.71751 2.4585 7.04171 2.4585C9.36591 2.4585 11.25 4.34263 11.25 6.66683C11.25 8.99103 9.36591 10.8752 7.04171 10.8752C4.71751 10.8752 2.83337 8.99103 2.83337 6.66683ZM4.33337 6.66683C4.33337 5.17106 5.54594 3.9585 7.04171 3.9585C8.53748 3.9585 9.75004 5.17106 9.75004 6.66683C9.75004 8.1626 8.53748 9.37516 7.04171 9.37516C5.54594 9.37516 4.33337 8.1626 4.33337 6.66683ZM7.04171 2.7085C4.85558 2.7085 3.08337 4.4807 3.08337 6.66683C3.08337 8.85296 4.85558 10.6252 7.04171 10.6252C9.22783 10.6252 11 8.85296 11 6.66683C11 4.4807 9.22783 2.7085 7.04171 2.7085Z" fill="#000"/>
  <path fill-rule="evenodd" clip-rule="evenodd" d="M14.5417 3.125C13.5062 3.125 12.6667 3.96447 12.6667 5C12.6667 6.03553 13.5062 6.875 14.5417 6.875C15.5773 6.875 16.4167 6.03553 16.4167 5C16.4167 3.96447 15.5773 3.125 14.5417 3.125ZM11.4167 5C11.4167 3.27411 12.8159 1.875 14.5417 1.875C16.2676 1.875 17.6667 3.27411 17.6667 5C17.6667 6.72589 16.2676 8.125 14.5417 8.125C12.8159 8.125 11.4167 6.72589 11.4167 5Z" fill="#000"/>
  <path fill-rule="evenodd" clip-rule="evenodd" d="M14.5417 3.375C13.6443 3.375 12.9167 4.10254 12.9167 5C12.9167 5.89746 13.6443 6.625 14.5417 6.625C15.4392 6.625 16.1667 5.89746 16.1667 5C16.1667 4.10254 15.4392 3.375 14.5417 3.375ZM11.1667 5C11.1667 3.13604 12.6778 1.625 14.5417 1.625C16.4057 1.625 17.9167 3.13604 17.9167 5C17.9167 6.86396 16.4057 8.375 14.5417 8.375C12.6778 8.375 11.1667 6.86396 11.1667 5ZM12.6667 5C12.6667 3.96447 13.5062 3.125 14.5417 3.125C15.5773 3.125 16.4167 3.96447 16.4167 5C16.4167 6.03553 15.5773 6.875 14.5417 6.875C13.5062 6.875 12.6667 6.03553 12.6667 5ZM14.5417 1.875C12.8159 1.875 11.4167 3.27411 11.4167 5C11.4167 6.72589 12.8159 8.125 14.5417 8.125C16.2676 8.125 17.6667 6.72589 17.6667 5C17.6667 3.27411 16.2676 1.875 14.5417 1.875Z" fill="#000"/>
</svg>
