<svg width="24" height="24" viewBox="0 0 24 24" fill="none" xmlns="http://www.w3.org/2000/svg">
  <path fill-rule="evenodd" clip-rule="evenodd" d="M12 8.75C10.2051 8.75 8.75 10.2051 8.75 12C8.75 13.7949 10.2051 15.25 12 15.25C13.7949 15.25 15.25 13.7949 15.25 12C15.25 10.2051 13.7949 8.75 12 8.75ZM7.25 12C7.25 9.37665 9.37665 7.25 12 7.25C14.6234 7.25 16.75 9.37665 16.75 12C16.75 14.6234 14.6234 16.75 12 16.75C9.37665 16.75 7.25 14.6234 7.25 12Z" fill="#000"/>
  <path fill-rule="evenodd" clip-rule="evenodd" d="M12 9.04995C10.3707 9.04995 9.04995 10.3707 9.04995 12C9.04995 13.6292 10.3707 14.95 12 14.95C13.6292 14.95 14.95 13.6292 14.95 12C14.95 10.3707 13.6292 9.04995 12 9.04995ZM6.94995 12C6.94995 9.21091 9.21091 6.94995 12 6.94995C14.789 6.94995 17.05 9.21091 17.05 12C17.05 14.789 14.789 17.05 12 17.05C9.21091 17.05 6.94995 14.789 6.94995 12ZM8.74995 12C8.74995 10.205 10.205 8.74995 12 8.74995C13.7949 8.74995 15.25 10.205 15.25 12C15.25 13.7949 13.7949 15.25 12 15.25C10.205 15.25 8.74995 13.7949 8.74995 12ZM12 7.24995C9.3766 7.24995 7.24995 9.3766 7.24995 12C7.24995 14.6233 9.3766 16.75 12 16.75C14.6233 16.75 16.75 14.6233 16.75 12C16.75 9.3766 14.6233 7.24995 12 7.24995Z" fill="#000"/>
  <path fill-rule="evenodd" clip-rule="evenodd" d="M8 3.75C5.65279 3.75 3.75 5.65279 3.75 8V16C3.75 18.3472 5.65279 20.25 8 20.25H16C18.3472 20.25 20.25 18.3472 20.25 16V8C20.25 5.65279 18.3472 3.75 16 3.75H8ZM2.25 8C2.25 4.82436 4.82436 2.25 8 2.25H16C19.1756 2.25 21.75 4.82436 21.75 8V16C21.75 19.1756 19.1756 21.75 16 21.75H8C4.82436 21.75 2.25 19.1756 2.25 16V8Z" fill="#000"/>
  <path fill-rule="evenodd" clip-rule="evenodd" d="M7.99995 4.04995C5.81843 4.04995 4.04995 5.81843 4.04995 7.99995V16C4.04995 18.1815 5.81843 19.95 7.99995 19.95H16C18.1815 19.95 19.95 18.1815 19.95 16V7.99995C19.95 5.81843 18.1815 4.04995 16 4.04995H7.99995ZM1.94995 7.99995C1.94995 4.65863 4.65863 1.94995 7.99995 1.94995H16C19.3413 1.94995 22.0499 4.65863 22.0499 7.99995V16C22.0499 19.3413 19.3413 22.0499 16 22.0499H7.99995C4.65863 22.0499 1.94995 19.3413 1.94995 16V7.99995ZM3.74995 7.99995C3.74995 5.65274 5.65274 3.74995 7.99995 3.74995H16C18.3472 3.74995 20.25 5.65274 20.25 7.99995V16C20.25 18.3472 18.3472 20.25 16 20.25H7.99995C5.65274 20.25 3.74995 18.3472 3.74995 16V7.99995ZM7.99995 2.24995C4.82431 2.24995 2.24995 4.82431 2.24995 7.99995V16C2.24995 19.1756 4.82431 21.75 7.99995 21.75H16C19.1756 21.75 21.75 19.1756 21.75 16V7.99995C21.75 4.82431 19.1756 2.24995 16 2.24995H7.99995Z" fill="#000"/>
  <path fill-rule="evenodd" clip-rule="evenodd" d="M18.0117 5.94144C18.3196 6.21853 18.3446 6.69275 18.0675 7.00063L18.0575 7.01174C17.7804 7.31963 17.3062 7.34458 16.9983 7.06749C16.6904 6.79039 16.6654 6.31618 16.9425 6.0083L16.9525 5.99718C17.2296 5.6893 17.7038 5.66434 18.0117 5.94144Z" fill="#000"/>
  <path fill-rule="evenodd" clip-rule="evenodd" d="M18.0674 7.00059C18.3445 6.6927 18.3196 6.21849 18.0117 5.94139C17.7038 5.6643 17.2296 5.68926 16.9525 5.99714L16.9425 6.00825C16.6654 6.31613 16.6904 6.79035 16.9982 7.06744C17.3061 7.34454 17.7803 7.31958 18.0574 7.0117L18.2804 7.21239C17.8925 7.64342 17.2286 7.67836 16.7975 7.29043C16.3665 6.9025 16.3316 6.23859 16.7195 5.80756C16.7195 5.80756 16.7195 5.80756 16.7195 5.80756L16.7295 5.79645L16.7295 5.79645C17.1174 5.36541 17.7813 5.33047 18.2124 5.7184C18.6434 6.10634 18.6784 6.77024 18.2904 7.20127L18.2804 7.21239L18.0574 7.0117L18.0674 7.00059Z" fill="#000"/>
</svg>
