<svg width="16" height="17" viewBox="0 0 16 17" fill="none" xmlns="http://www.w3.org/2000/svg">
  <path fill-rule="evenodd" clip-rule="evenodd" d="M13.0202 8.14645C13.2154 8.34171 13.2154 8.65829 13.0202 8.85355L11.0202 10.8536C10.8249 11.0488 10.5083 11.0488 10.3131 10.8536C10.1178 10.6583 10.1178 10.3417 10.3131 10.1464L11.4595 9H7.99996C7.72382 9 7.49996 8.77614 7.49996 8.5C7.49996 8.22386 7.72382 8 7.99996 8H11.4595L10.3131 6.85355C10.1178 6.65829 10.1178 6.34171 10.3131 6.14645C10.5083 5.95118 10.8249 5.95118 11.0202 6.14645L13.0202 8.14645Z" fill="#000"/>
  <path fill-rule="evenodd" clip-rule="evenodd" d="M13.1617 8.00483C13.435 8.2782 13.435 8.72141 13.1617 8.99478L11.1617 10.9948C10.8883 11.2681 10.4451 11.2681 10.1717 10.9948C9.89836 10.7214 9.89836 10.2782 10.1717 10.0048L10.9767 9.1998H8.00003C7.61343 9.1998 7.30003 8.8864 7.30003 8.4998C7.30003 8.11321 7.61343 7.7998 8.00003 7.7998H10.9768L10.1717 6.99478C9.89836 6.72141 9.89836 6.2782 10.1717 6.00483C10.4451 5.73146 10.8883 5.73146 11.1617 6.00483L13.1617 8.00483ZM10.3131 6.85336C10.1179 6.6581 10.1179 6.34151 10.3131 6.14625C10.5084 5.95099 10.825 5.95099 11.0203 6.14625L13.0203 8.14625C13.2155 8.34151 13.2155 8.6581 13.0203 8.85336L11.0203 10.8534C10.825 11.0486 10.5084 11.0486 10.3131 10.8534C10.1179 10.6581 10.1179 10.3415 10.3131 10.1463L11.4596 8.9998H8.00003C7.72389 8.9998 7.50003 8.77595 7.50003 8.4998C7.50003 8.22366 7.72389 7.9998 8.00003 7.9998H11.4596L10.3131 6.85336Z" fill="#000"/>
  <path fill-rule="evenodd" clip-rule="evenodd" d="M4.66671 3C4.20647 3 3.83337 3.3731 3.83337 3.83333V13.1667C3.83337 13.6269 4.20647 14 4.66671 14H11.3334C11.7936 14 12.1667 13.6269 12.1667 13.1667V12.5C12.1667 12.2239 12.3906 12 12.6667 12C12.9429 12 13.1667 12.2239 13.1667 12.5V13.1667C13.1667 14.1792 12.3459 15 11.3334 15H4.66671C3.65419 15 2.83337 14.1792 2.83337 13.1667V3.83333C2.83337 2.82081 3.65419 2 4.66671 2H11.3334C12.3459 2 13.1667 2.82081 13.1667 3.83333V4.5C13.1667 4.77614 12.9429 5 12.6667 5C12.3906 5 12.1667 4.77614 12.1667 4.5V3.83333C12.1667 3.3731 11.7936 3 11.3334 3H4.66671Z" fill="#000"/>
  <path fill-rule="evenodd" clip-rule="evenodd" d="M4.66663 3.1998C4.31685 3.1998 4.0333 3.48336 4.0333 3.83314V13.1665C4.0333 13.5162 4.31685 13.7998 4.66663 13.7998H11.3333C11.6831 13.7998 11.9666 13.5162 11.9666 13.1665V12.4998C11.9666 12.1132 12.28 11.7998 12.6666 11.7998C13.0532 11.7998 13.3666 12.1132 13.3666 12.4998V13.1665C13.3666 14.2894 12.4563 15.1998 11.3333 15.1998H4.66663C3.54366 15.1998 2.6333 14.2894 2.6333 13.1665V3.83314C2.6333 2.71016 3.54366 1.7998 4.66663 1.7998H11.3333C12.4563 1.7998 13.3666 2.71016 13.3666 3.83314V4.4998C13.3666 4.8864 13.0532 5.1998 12.6666 5.1998C12.28 5.1998 11.9666 4.8864 11.9666 4.4998V3.83314C11.9666 3.48336 11.6831 3.1998 11.3333 3.1998H4.66663ZM3.8333 3.83314C3.8333 3.3729 4.2064 2.9998 4.66663 2.9998H11.3333C11.7935 2.9998 12.1666 3.3729 12.1666 3.83314V4.4998C12.1666 4.77595 12.3905 4.9998 12.6666 4.9998C12.9428 4.9998 13.1666 4.77595 13.1666 4.4998V3.83314C13.1666 2.82062 12.3458 1.9998 11.3333 1.9998H4.66663C3.65411 1.9998 2.8333 2.82062 2.8333 3.83314V13.1665C2.8333 14.179 3.65411 14.9998 4.66663 14.9998H11.3333C12.3458 14.9998 13.1666 14.179 13.1666 13.1665V12.4998C13.1666 12.2237 12.9428 11.9998 12.6666 11.9998C12.3905 11.9998 12.1666 12.2237 12.1666 12.4998V13.1665C12.1666 13.6267 11.7935 13.9998 11.3333 13.9998H4.66663C4.2064 13.9998 3.8333 13.6267 3.8333 13.1665V3.83314Z" fill="#000"/>
</svg>
