<svg width="20" height="20" viewBox="0 0 20 20" fill="none" xmlns="http://www.w3.org/2000/svg">
  <path fill-rule="evenodd" clip-rule="evenodd" d="M5.32153 9.64161C5.51948 9.35882 5.90918 9.29005 6.19196 9.488L10.0002 12.1538L13.8085 9.488C14.0912 9.29005 14.481 9.35882 14.6789 9.64161C14.8768 9.92439 14.8081 10.3141 14.5253 10.512L10.3586 13.4287C10.1434 13.5793 9.857 13.5793 9.6418 13.4287L5.47514 10.512C5.19236 10.3141 5.12358 9.92439 5.32153 9.64161Z" fill="#000"/>
  <path fill-rule="evenodd" clip-rule="evenodd" d="M10.3587 13.4287L10.502 13.6335C10.2007 13.8444 9.79974 13.8444 9.49846 13.6335L5.33179 10.7168C4.9359 10.4397 4.83962 9.89413 5.11674 9.49824C5.39387 9.10235 5.93946 9.00607 6.33535 9.28319L10.0002 11.8486L13.6651 9.28319C14.061 9.00607 14.6066 9.10235 14.8837 9.49824C15.1609 9.89413 15.0646 10.4397 14.6687 10.7168L10.502 13.6335L10.3587 13.4287ZM10.0002 12.1538L13.8085 9.488C14.0913 9.29005 14.481 9.35882 14.6789 9.64161C14.8769 9.92439 14.8081 10.3141 14.5253 10.512L10.3587 13.4287C10.1435 13.5793 9.85703 13.5793 9.64183 13.4287L5.47516 10.512C5.19238 10.3141 5.12361 9.92439 5.32155 9.64161C5.5195 9.35882 5.9092 9.29005 6.19199 9.488L10.0002 12.1538Z" fill="#000"/>
  <path fill-rule="evenodd" clip-rule="evenodd" d="M8.82078 1.64524C9.54652 1.2098 10.4532 1.20981 11.1789 1.64524L17.8456 5.64524C18.5358 6.0594 18.9582 6.80535 18.9582 7.61033V16.6667C18.9582 17.9323 17.9322 18.9583 16.6665 18.9583H3.33317C2.06752 18.9583 1.0415 17.9323 1.0415 16.6667V7.61033C1.0415 6.80535 1.46386 6.0594 2.15412 5.64524L8.82078 1.64524ZM10.5358 2.71711C10.2059 2.51918 9.79378 2.51918 9.4639 2.71711L2.79724 6.71711C2.48348 6.90536 2.2915 7.24443 2.2915 7.61033V16.6667C2.2915 17.242 2.75787 17.7083 3.33317 17.7083H16.6665C17.2418 17.7083 17.7082 17.242 17.7082 16.6667V7.61033C17.7082 7.24443 17.5162 6.90536 17.2024 6.71711L10.5358 2.71711Z" fill="#000"/>
  <path fill-rule="evenodd" clip-rule="evenodd" d="M8.69216 1.43087C9.49706 0.947929 10.5026 0.94793 11.3075 1.43087L17.9742 5.43087C18.7397 5.89021 19.2082 6.71754 19.2082 7.61033V16.6667C19.2082 18.0704 18.0702 19.2083 16.6665 19.2083H3.33317C1.92945 19.2083 0.791504 18.0704 0.791504 16.6667V7.61033C0.791504 6.71754 1.25993 5.89021 2.02549 5.43087L8.69216 1.43087ZM10.4071 2.93148C10.1564 2.78106 9.84324 2.78106 9.59253 2.93148L2.92586 6.93148C2.68741 7.07456 2.5415 7.33225 2.5415 7.61033V16.6667C2.5415 17.1039 2.89595 17.4583 3.33317 17.4583H16.6665C17.1037 17.4583 17.4582 17.1039 17.4582 16.6667V7.61033C17.4582 7.33225 17.3123 7.07456 17.0738 6.93148L10.4071 2.93148ZM11.1789 1.64524C10.4532 1.20981 9.54652 1.2098 8.82078 1.64524L2.15412 5.64524C1.46386 6.0594 1.0415 6.80535 1.0415 7.61033V16.6667C1.0415 17.9323 2.06752 18.9583 3.33317 18.9583H16.6665C17.9322 18.9583 18.9582 17.9323 18.9582 16.6667V7.61033C18.9582 6.80535 18.5358 6.0594 17.8456 5.64524L11.1789 1.64524ZM9.4639 2.71711C9.79378 2.51918 10.2059 2.51918 10.5358 2.71711L17.2024 6.71711C17.5162 6.90536 17.7082 7.24443 17.7082 7.61033V16.6667C17.7082 17.242 17.2418 17.7083 16.6665 17.7083H3.33317C2.75787 17.7083 2.2915 17.242 2.2915 16.6667V7.61033C2.2915 7.24443 2.48348 6.90536 2.79724 6.71711L9.4639 2.71711Z" fill="#000"/>
</svg>
