<svg width="20" height="20" viewBox="0 0 20 20" fill="none" xmlns="http://www.w3.org/2000/svg">
  <path fill-rule="evenodd" clip-rule="evenodd" d="M12.2068 1.08961C11.8881 0.957028 11.5223 1.10791 11.3897 1.42661L10.523 3.50994C10.3904 3.82864 10.5413 4.19448 10.86 4.32706C11.1787 4.45964 11.5446 4.30876 11.6771 3.99006L12.5438 1.90672C12.6764 1.58802 12.5255 1.22219 12.2068 1.08961ZM15.2525 1.09491C14.9367 0.9555 14.5677 1.09848 14.4283 1.41425L11.5537 7.92564C11.39 7.87869 11.2233 7.83898 11.0538 7.80686L7.9243 1.39261C7.77294 1.08239 7.39875 0.9536 7.08853 1.10496C6.77831 1.25631 6.64952 1.6305 6.80088 1.94072L9.62102 7.7209C9.07518 7.75723 8.55064 7.87141 8.05841 8.05245L4.72577 1.38716C4.5714 1.07842 4.19598 0.953282 3.88725 1.10765C3.57851 1.26202 3.45337 1.63744 3.60774 1.94618L6.94077 8.61225C5.3965 9.61501 4.37509 11.3549 4.37509 13.3333C4.37509 16.4399 6.89349 18.9583 10.0001 18.9583C13.1067 18.9583 15.6251 16.4399 15.6251 13.3333C15.6251 11.209 14.4475 9.35976 12.7095 8.40268L15.5718 1.91908C15.7113 1.60331 15.5683 1.23431 15.2525 1.09491ZM10.5585 8.99364C12.7111 9.26788 14.3751 11.1063 14.3751 13.3333C14.3751 15.7496 12.4163 17.7083 10.0001 17.7083C7.58384 17.7083 5.62509 15.7496 5.62509 13.3333C5.62509 10.9171 7.58384 8.95833 10.0001 8.95833C10.1893 8.95833 10.3757 8.97034 10.5585 8.99364Z" fill="#000"/>
  <path fill-rule="evenodd" clip-rule="evenodd" d="M12.3028 0.858727C11.8566 0.673115 11.3444 0.884349 11.1588 1.33053L10.2921 3.41386C10.1065 3.86005 10.3178 4.37222 10.7639 4.55783C11.2101 4.74344 11.7223 4.5322 11.9079 4.08602L12.7746 2.00269C12.9602 1.55651 12.749 1.04434 12.3028 0.858727ZM6.97884 0.880217C6.54453 1.09212 6.36423 1.61598 6.57613 2.05029L9.23855 7.5072C8.87564 7.55419 8.52302 7.63431 8.18388 7.74444L4.94932 1.2753C4.7332 0.843068 4.20761 0.667871 3.77538 0.883986C3.34315 1.1001 3.16795 1.62569 3.38407 2.05792L6.61911 8.52802C5.11096 9.59103 4.12502 11.3469 4.12502 13.3333C4.12502 16.5779 6.75535 19.2083 10 19.2083C13.2447 19.2083 15.875 16.5779 15.875 13.3333C15.875 11.1962 14.7339 9.32605 13.0288 8.29822L15.8005 2.01999C15.9957 1.57791 15.7955 1.06131 15.3534 0.866144C14.9113 0.670977 14.3947 0.871143 14.1996 1.31323L11.4114 7.62895C11.3493 7.61366 11.287 7.59936 11.2242 7.58605L8.14892 1.28293C7.93702 0.848617 7.41316 0.668316 6.97884 0.880217ZM6.80081 1.94067C6.64946 1.63044 6.77824 1.25626 7.08847 1.1049C7.39869 0.953543 7.77288 1.08233 7.92423 1.39255L11.0537 7.80681C11.2232 7.83892 11.39 7.87864 11.5537 7.92559L14.4283 1.41419C14.5677 1.09842 14.9367 0.955443 15.2524 1.09485C15.5682 1.23425 15.7112 1.60325 15.5718 1.91903L12.7095 8.40263C14.4475 9.3597 15.625 11.209 15.625 13.3333C15.625 16.4399 13.1066 18.9583 10 18.9583C6.89342 18.9583 4.37502 16.4399 4.37502 13.3333C4.37502 11.3548 5.39644 9.61495 6.9407 8.61219L3.60767 1.94612C3.45331 1.63738 3.57845 1.26196 3.88718 1.10759C4.19592 0.953225 4.57134 1.07837 4.72571 1.3871L8.05835 8.05239C8.46996 7.901 8.90416 7.79636 9.35453 7.74491C9.44273 7.73483 9.53156 7.7268 9.62095 7.72085L6.80081 1.94067ZM10.5269 9.24158C12.5562 9.50012 14.125 11.2337 14.125 13.3333C14.125 15.6115 12.2782 17.4583 10 17.4583C7.72185 17.4583 5.87502 15.6115 5.87502 13.3333C5.87502 11.0551 7.72185 9.20828 10 9.20828C10.1786 9.20828 10.3545 9.21961 10.5269 9.24158ZM11.3896 1.42655C11.5222 1.10785 11.888 0.956971 12.2067 1.08955C12.5254 1.22213 12.6763 1.58797 12.5438 1.90667L11.6771 3.99C11.5445 4.3087 11.1787 4.45958 10.86 4.327C10.5413 4.19442 10.3904 3.82859 10.523 3.50989L11.3896 1.42655ZM14.375 13.3333C14.375 11.1062 12.711 9.26782 10.5585 8.99358C10.3756 8.97029 10.1892 8.95828 10 8.95828C7.58378 8.95828 5.62502 10.917 5.62502 13.3333C5.62502 15.7495 7.58378 17.7083 10 17.7083C12.4163 17.7083 14.375 15.7495 14.375 13.3333Z" fill="#000"/>
</svg>
