<svg width="20" height="21" viewBox="0 0 20 21" fill="none" xmlns="http://www.w3.org/2000/svg">
  <path d="M10 10.9168C10.2302 10.9168 10.4167 10.7303 10.4167 10.5002C10.4167 10.27 10.2302 10.0835 10 10.0835C9.76992 10.0835 9.58337 10.27 9.58337 10.5002C9.58337 10.7303 9.76992 10.9168 10 10.9168Z" fill="#000"/>
  <path fill-rule="evenodd" clip-rule="evenodd" d="M10.6667 10.5002C10.6667 10.8684 10.3682 11.1668 10 11.1668C9.63185 11.1668 9.33337 10.8684 9.33337 10.5002C9.33337 10.132 9.63185 9.8335 10 9.8335C10.3682 9.8335 10.6667 10.132 10.6667 10.5002ZM10.4167 10.5002C10.4167 10.7303 10.2302 10.9168 10 10.9168C9.76992 10.9168 9.58337 10.7303 9.58337 10.5002C9.58337 10.27 9.76992 10.0835 10 10.0835C10.2302 10.0835 10.4167 10.27 10.4167 10.5002Z" fill="#000"/>
  <path fill-rule="evenodd" clip-rule="evenodd" d="M10 10.7085C10.1151 10.7085 10.2084 10.6152 10.2084 10.5002C10.2084 10.3851 10.1151 10.2918 10 10.2918C9.88498 10.2918 9.79171 10.3851 9.79171 10.5002C9.79171 10.6152 9.88498 10.7085 10 10.7085ZM8.95837 10.5002C8.95837 9.92487 9.42474 9.4585 10 9.4585C10.5753 9.4585 11.0417 9.92487 11.0417 10.5002C11.0417 11.0755 10.5753 11.5418 10 11.5418C9.42474 11.5418 8.95837 11.0755 8.95837 10.5002Z" fill="#000"/>
  <path fill-rule="evenodd" clip-rule="evenodd" d="M10 10.4585C9.97703 10.4585 9.95837 10.4772 9.95837 10.5002C9.95837 10.5232 9.97703 10.5418 10 10.5418C10.0231 10.5418 10.0417 10.5232 10.0417 10.5002C10.0417 10.4772 10.0231 10.4585 10 10.4585ZM8.70837 10.5002C8.70837 9.78679 9.28667 9.2085 10 9.2085C10.7134 9.2085 11.2917 9.78679 11.2917 10.5002C11.2917 11.2135 10.7134 11.7918 10 11.7918C9.28667 11.7918 8.70837 11.2135 8.70837 10.5002ZM10.2084 10.5002C10.2084 10.6152 10.1151 10.7085 10 10.7085C9.88498 10.7085 9.79171 10.6152 9.79171 10.5002C9.79171 10.3851 9.88498 10.2918 10 10.2918C10.1151 10.2918 10.2084 10.3851 10.2084 10.5002ZM10 9.4585C9.42474 9.4585 8.95837 9.92487 8.95837 10.5002C8.95837 11.0755 9.42474 11.5418 10 11.5418C10.5753 11.5418 11.0417 11.0755 11.0417 10.5002C11.0417 9.92487 10.5753 9.4585 10 9.4585Z" fill="#000"/>
  <path d="M10 15.9168C10.2302 15.9168 10.4167 15.7303 10.4167 15.5002C10.4167 15.27 10.2302 15.0835 10 15.0835C9.76992 15.0835 9.58337 15.27 9.58337 15.5002C9.58337 15.7303 9.76992 15.9168 10 15.9168Z" fill="#000"/>
  <path fill-rule="evenodd" clip-rule="evenodd" d="M10.6667 15.5002C10.6667 15.8684 10.3682 16.1668 10 16.1668C9.63185 16.1668 9.33337 15.8684 9.33337 15.5002C9.33337 15.132 9.63185 14.8335 10 14.8335C10.3682 14.8335 10.6667 15.132 10.6667 15.5002ZM10.4167 15.5002C10.4167 15.7303 10.2302 15.9168 10 15.9168C9.76992 15.9168 9.58337 15.7303 9.58337 15.5002C9.58337 15.27 9.76992 15.0835 10 15.0835C10.2302 15.0835 10.4167 15.27 10.4167 15.5002Z" fill="#000"/>
  <path fill-rule="evenodd" clip-rule="evenodd" d="M10 15.7085C10.1151 15.7085 10.2084 15.6152 10.2084 15.5002C10.2084 15.3851 10.1151 15.2918 10 15.2918C9.88498 15.2918 9.79171 15.3851 9.79171 15.5002C9.79171 15.6152 9.88498 15.7085 10 15.7085ZM8.95837 15.5002C8.95837 14.9249 9.42474 14.4585 10 14.4585C10.5753 14.4585 11.0417 14.9249 11.0417 15.5002C11.0417 16.0755 10.5753 16.5418 10 16.5418C9.42474 16.5418 8.95837 16.0755 8.95837 15.5002Z" fill="#000"/>
  <path fill-rule="evenodd" clip-rule="evenodd" d="M10 15.4585C9.97703 15.4585 9.95837 15.4772 9.95837 15.5002C9.95837 15.5232 9.97703 15.5418 10 15.5418C10.0231 15.5418 10.0417 15.5232 10.0417 15.5002C10.0417 15.4772 10.0231 15.4585 10 15.4585ZM8.70837 15.5002C8.70837 14.7868 9.28667 14.2085 10 14.2085C10.7134 14.2085 11.2917 14.7868 11.2917 15.5002C11.2917 16.2135 10.7134 16.7918 10 16.7918C9.28667 16.7918 8.70837 16.2135 8.70837 15.5002ZM10.2084 15.5002C10.2084 15.6152 10.1151 15.7085 10 15.7085C9.88498 15.7085 9.79171 15.6152 9.79171 15.5002C9.79171 15.3851 9.88498 15.2918 10 15.2918C10.1151 15.2918 10.2084 15.3851 10.2084 15.5002ZM10 14.4585C9.42474 14.4585 8.95837 14.9249 8.95837 15.5002C8.95837 16.0755 9.42474 16.5418 10 16.5418C10.5753 16.5418 11.0417 16.0755 11.0417 15.5002C11.0417 14.9249 10.5753 14.4585 10 14.4585Z" fill="#000"/>
  <path d="M10 5.91683C10.2302 5.91683 10.4167 5.73028 10.4167 5.50016C10.4167 5.27004 10.2302 5.0835 10 5.0835C9.76992 5.0835 9.58337 5.27004 9.58337 5.50016C9.58337 5.73028 9.76992 5.91683 10 5.91683Z" fill="#000"/>
  <path fill-rule="evenodd" clip-rule="evenodd" d="M10.6667 5.50016C10.6667 5.86835 10.3682 6.16683 10 6.16683C9.63185 6.16683 9.33337 5.86835 9.33337 5.50016C9.33337 5.13197 9.63185 4.8335 10 4.8335C10.3682 4.8335 10.6667 5.13197 10.6667 5.50016ZM10.4167 5.50016C10.4167 5.73028 10.2302 5.91683 10 5.91683C9.76992 5.91683 9.58337 5.73028 9.58337 5.50016C9.58337 5.27004 9.76992 5.0835 10 5.0835C10.2302 5.0835 10.4167 5.27004 10.4167 5.50016Z" fill="#000"/>
  <path fill-rule="evenodd" clip-rule="evenodd" d="M10 5.7085C10.1151 5.7085 10.2084 5.61522 10.2084 5.50016C10.2084 5.3851 10.1151 5.29183 10 5.29183C9.88498 5.29183 9.79171 5.3851 9.79171 5.50016C9.79171 5.61522 9.88498 5.7085 10 5.7085ZM8.95837 5.50016C8.95837 4.92487 9.42474 4.4585 10 4.4585C10.5753 4.4585 11.0417 4.92487 11.0417 5.50016C11.0417 6.07546 10.5753 6.54183 10 6.54183C9.42474 6.54183 8.95837 6.07546 8.95837 5.50016Z" fill="#000"/>
  <path fill-rule="evenodd" clip-rule="evenodd" d="M10 5.4585C9.97703 5.4585 9.95837 5.47715 9.95837 5.50016C9.95837 5.52317 9.97703 5.54183 10 5.54183C10.0231 5.54183 10.0417 5.52317 10.0417 5.50016C10.0417 5.47715 10.0231 5.4585 10 5.4585ZM8.70837 5.50016C8.70837 4.78679 9.28667 4.2085 10 4.2085C10.7134 4.2085 11.2917 4.78679 11.2917 5.50016C11.2917 6.21353 10.7134 6.79183 10 6.79183C9.28667 6.79183 8.70837 6.21353 8.70837 5.50016ZM10.2084 5.50016C10.2084 5.61522 10.1151 5.7085 10 5.7085C9.88498 5.7085 9.79171 5.61522 9.79171 5.50016C9.79171 5.3851 9.88498 5.29183 10 5.29183C10.1151 5.29183 10.2084 5.3851 10.2084 5.50016ZM10 4.4585C9.42474 4.4585 8.95837 4.92487 8.95837 5.50016C8.95837 6.07546 9.42474 6.54183 10 6.54183C10.5753 6.54183 11.0417 6.07546 11.0417 5.50016C11.0417 4.92487 10.5753 4.4585 10 4.4585Z" fill="#000"/>
</svg>
