<svg width="20" height="20" viewBox="0 0 20 20" fill="none" xmlns="http://www.w3.org/2000/svg">
  <path fill-rule="evenodd" clip-rule="evenodd" d="M3.38655 1.04169L6.51232 1.04169C6.77263 1.04169 7.00568 1.20303 7.09732 1.44667L8.31018 4.67159C8.35033 4.77833 8.3605 4.89403 8.3396 5.00614L7.73186 8.26611C8.47883 10.0228 9.71266 11.2033 11.7591 12.2622L14.9799 11.6381C15.0942 11.6159 15.2125 11.6262 15.3213 11.6677L18.5561 12.9003C18.7984 12.9927 18.9586 13.2251 18.9586 13.4844L18.9586 16.4712C18.9586 17.8258 17.7651 18.9251 16.369 18.6213C13.8243 18.0676 9.10995 16.6603 5.80828 13.3586C2.64567 10.196 1.58605 5.82712 1.22935 3.4656C1.02582 2.11812 2.10649 1.04169 3.38655 1.04169ZM6.07964 2.29169L3.38655 2.29169C2.78737 2.29169 2.38819 2.76821 2.46533 3.27891C2.80931 5.55625 3.81566 9.59824 6.69217 12.4747C9.7325 15.5151 14.1523 16.8598 16.6348 17.3999C17.18 17.5186 17.7086 17.1034 17.7086 16.4712L17.7086 13.915L15.0427 12.8992L11.7858 13.5303C11.6503 13.5565 11.5099 13.5372 11.3865 13.4753C8.97466 12.2647 7.40887 10.8295 6.50326 8.56547C6.45927 8.45549 6.44744 8.33526 6.46914 8.21881L7.07882 4.94844L6.07964 2.29169Z" fill="#000"/>
  <path fill-rule="evenodd" clip-rule="evenodd" d="M8.30996 4.67159L7.09709 1.44667C7.00546 1.20303 6.77241 1.04169 6.5121 1.04169H3.38633C2.10627 1.04169 1.0256 2.11812 1.22913 3.4656C1.58582 5.82712 2.64545 10.196 5.80806 13.3586C9.10972 16.6603 13.8241 18.0676 16.3688 18.6213C17.7648 18.9251 18.9583 17.8258 18.9583 16.4712L18.9583 13.4844C18.9583 13.2251 18.7982 12.9927 18.5559 12.9003L15.3211 11.6677C15.2122 11.6262 15.094 11.6159 14.9796 11.6381L11.7588 12.2622C9.71244 11.2033 8.47861 10.0228 7.73164 8.26611L8.33938 5.00614C8.36028 4.89403 8.3501 4.77833 8.30996 4.67159ZM7.99135 8.2371L8.58514 5.05196C8.6144 4.895 8.60016 4.73303 8.54396 4.58358L7.33109 1.35867C7.2028 1.01756 6.87653 0.791687 6.5121 0.791687L3.38633 0.791687C1.97202 0.791687 0.752854 1.98631 0.981932 3.50293C1.34117 5.88131 2.41145 10.3156 5.63128 13.5354C8.98521 16.8893 13.7585 18.3092 16.3156 18.8656C17.8836 19.2068 19.2083 17.9684 19.2083 16.4712L19.2083 13.4844C19.2083 13.1213 18.9841 12.796 18.6449 12.6667L15.4101 11.434C15.2577 11.376 15.0922 11.3616 14.9321 11.3927L11.7969 12.0002C9.86057 10.9849 8.70305 9.86717 7.99135 8.2371ZM5.90634 2.54169L3.38633 2.54169C2.92795 2.54169 2.65979 2.89387 2.7123 3.24157C3.05374 5.50208 4.04944 9.47869 6.86872 12.298C9.85678 15.286 14.2177 16.6182 16.6877 17.1556C17.067 17.2382 17.4583 16.9544 17.4583 16.4712L17.4583 14.0873L15.0201 13.1582L11.8331 13.7757C11.6434 13.8125 11.4469 13.7854 11.2742 13.6987C8.82482 12.4693 7.20545 10.9947 6.27092 8.65832C6.20933 8.50434 6.19276 8.33603 6.22316 8.17299L6.82005 4.97117L5.90634 2.54169ZM6.07942 2.29169L3.38633 2.29169C2.78715 2.29169 2.38797 2.76821 2.46511 3.27891C2.80909 5.55625 3.81544 9.59824 6.69194 12.4747C9.73228 15.5151 14.1521 16.8598 16.6346 17.3999C17.1798 17.5186 17.7083 17.1034 17.7083 16.4712L17.7083 13.915L15.0425 12.8992L11.7856 13.5303C11.6501 13.5565 11.5097 13.5372 11.3863 13.4753C8.97443 12.2647 7.40865 10.8295 6.50304 8.56547C6.45904 8.45549 6.44721 8.33526 6.46892 8.21881L7.0786 4.94844L6.07942 2.29169Z" fill="#000"/>
</svg>
