<svg width="20" height="21" viewBox="0 0 20 21" fill="none" xmlns="http://www.w3.org/2000/svg">
  <path fill-rule="evenodd" clip-rule="evenodd" d="M10.0001 4.6665C10.358 4.6665 10.6482 4.95669 10.6482 5.31465V9.85169H15.1853C15.5432 9.85169 15.8334 10.1419 15.8334 10.4998C15.8334 10.8578 15.5432 11.148 15.1853 11.148H10.6482V15.685C10.6482 16.043 10.358 16.3332 10.0001 16.3332C9.64212 16.3332 9.35193 16.043 9.35193 15.685V11.148H4.8149C4.45693 11.148 4.16675 10.8578 4.16675 10.4998C4.16675 10.1419 4.45693 9.85169 4.8149 9.85169H9.35193V5.31465C9.35193 4.95669 9.64212 4.6665 10.0001 4.6665Z" fill="#000"/>
  <path fill-rule="evenodd" clip-rule="evenodd" d="M10.0001 4.4165C10.4961 4.4165 10.8982 4.81862 10.8982 5.31465V9.60169H15.1853C15.6813 9.60169 16.0834 10.0038 16.0834 10.4998C16.0834 10.9959 15.6813 11.398 15.1853 11.398H10.8982V15.685C10.8982 16.1811 10.4961 16.5832 10.0001 16.5832C9.50405 16.5832 9.10193 16.1811 9.10193 15.685V11.398H4.8149C4.31886 11.398 3.91675 10.9959 3.91675 10.4998C3.91675 10.0038 4.31886 9.60169 4.8149 9.60169H9.10193V5.31465C9.10193 4.81862 9.50405 4.4165 10.0001 4.4165ZM10.6482 5.31465C10.6482 4.95669 10.358 4.6665 10.0001 4.6665C9.64212 4.6665 9.35193 4.95669 9.35193 5.31465V9.85169H4.8149C4.45693 9.85169 4.16675 10.1419 4.16675 10.4998C4.16675 10.8578 4.45693 11.148 4.8149 11.148H9.35193V15.685C9.35193 16.043 9.64212 16.3332 10.0001 16.3332C10.358 16.3332 10.6482 16.043 10.6482 15.685V11.148H15.1853C15.5432 11.148 15.8334 10.8578 15.8334 10.4998C15.8334 10.1419 15.5432 9.85169 15.1853 9.85169H10.6482V5.31465Z" fill="#000"/>
</svg>
