<svg width="20" height="20" viewBox="0 0 20 20" fill="none" xmlns="http://www.w3.org/2000/svg">
  <path fill-rule="evenodd" clip-rule="evenodd" d="M3.95801 15.2083H8.33301C8.67819 15.2083 8.95801 15.4882 8.95801 15.8333C8.95801 16.1785 8.67819 16.4583 8.33301 16.4583H3.83301C3.21169 16.4583 2.70801 15.9547 2.70801 15.3333V11.6667C2.70801 11.3215 2.98783 11.0417 3.33301 11.0417C3.67819 11.0417 3.95801 11.3215 3.95801 11.6667V15.2083Z" fill="#000"/>
  <path fill-rule="evenodd" clip-rule="evenodd" d="M8.33301 14.9583H4.20801V11.6667C4.20801 11.1834 3.81626 10.7917 3.33301 10.7917C2.84976 10.7917 2.45801 11.1834 2.45801 11.6667V15.3333C2.45801 16.0927 3.07362 16.7083 3.83301 16.7083H8.33301C8.81626 16.7083 9.20801 16.3166 9.20801 15.8333C9.20801 15.3501 8.81626 14.9583 8.33301 14.9583ZM3.95801 15.2083V11.6667C3.95801 11.3215 3.67819 11.0417 3.33301 11.0417C2.98783 11.0417 2.70801 11.3215 2.70801 11.6667V15.3333C2.70801 15.9546 3.21169 16.4583 3.83301 16.4583H8.33301C8.67819 16.4583 8.95801 16.1785 8.95801 15.8333C8.95801 15.4882 8.67819 15.2083 8.33301 15.2083H3.95801Z" fill="#000"/>
  <path fill-rule="evenodd" clip-rule="evenodd" d="M11.042 15.8333C11.042 16.1785 11.3218 16.4583 11.667 16.4583H15.3337C15.955 16.4583 16.4587 15.9547 16.4587 15.3333V11.6667C16.4587 11.3215 16.1788 11.0417 15.8337 11.0417C15.4885 11.0417 15.2087 11.3215 15.2087 11.6667V15.2083H11.667C11.3218 15.2083 11.042 15.4882 11.042 15.8333Z" fill="#000"/>
  <path fill-rule="evenodd" clip-rule="evenodd" d="M10.792 15.8333C10.792 16.3166 11.1837 16.7083 11.667 16.7083H15.3337C16.0931 16.7083 16.7087 16.0927 16.7087 15.3333V11.6667C16.7087 11.1834 16.3169 10.7917 15.8337 10.7917C15.3504 10.7917 14.9587 11.1834 14.9587 11.6667V14.9583H11.667C11.1837 14.9583 10.792 15.3501 10.792 15.8333ZM11.667 16.4583C11.3218 16.4583 11.042 16.1785 11.042 15.8333C11.042 15.4882 11.3218 15.2083 11.667 15.2083H15.2087V11.6667C15.2087 11.3215 15.4885 11.0417 15.8337 11.0417C16.1788 11.0417 16.4587 11.3215 16.4587 11.6667V15.3333C16.4587 15.9546 15.955 16.4583 15.3337 16.4583H11.667Z" fill="#000"/>
  <path fill-rule="evenodd" clip-rule="evenodd" d="M15.8337 8.95834C16.1788 8.95834 16.4587 8.67851 16.4587 8.33334V4.66667C16.4587 4.04535 15.955 3.54167 15.3337 3.54167H11.667C11.3218 3.54167 11.042 3.82149 11.042 4.16667C11.042 4.51185 11.3218 4.79167 11.667 4.79167H15.2087V8.33334C15.2087 8.67851 15.4885 8.95834 15.8337 8.95834Z" fill="#000"/>
  <path fill-rule="evenodd" clip-rule="evenodd" d="M15.8337 9.20834C16.3169 9.20834 16.7087 8.81659 16.7087 8.33334V4.66667C16.7087 3.90728 16.0931 3.29167 15.3337 3.29167H11.667C11.1837 3.29167 10.792 3.68342 10.792 4.16667C10.792 4.64992 11.1837 5.04167 11.667 5.04167H14.9587V8.33334C14.9587 8.81659 15.3504 9.20834 15.8337 9.20834ZM16.4587 8.33334C16.4587 8.67851 16.1788 8.95834 15.8337 8.95834C15.4885 8.95834 15.2087 8.67851 15.2087 8.33334V4.79167H11.667C11.3218 4.79167 11.042 4.51185 11.042 4.16667C11.042 3.82149 11.3218 3.54167 11.667 3.54167H15.3337C15.955 3.54167 16.4587 4.04535 16.4587 4.66667V8.33334Z" fill="#000"/>
  <path fill-rule="evenodd" clip-rule="evenodd" d="M3.33301 8.95834C3.67819 8.95834 3.95801 8.67851 3.95801 8.33334V4.79167H8.33301C8.67819 4.79167 8.95801 4.51185 8.95801 4.16667C8.95801 3.82149 8.67819 3.54167 8.33301 3.54167H3.83301C3.21169 3.54167 2.70801 4.04535 2.70801 4.66667V8.33334C2.70801 8.67851 2.98783 8.95834 3.33301 8.95834Z" fill="#000"/>
  <path fill-rule="evenodd" clip-rule="evenodd" d="M3.33301 9.20834C3.81626 9.20834 4.20801 8.81659 4.20801 8.33334V5.04167H8.33301C8.81626 5.04167 9.20801 4.64992 9.20801 4.16667C9.20801 3.68342 8.81626 3.29167 8.33301 3.29167H3.83301C3.07362 3.29167 2.45801 3.90728 2.45801 4.66667V8.33334C2.45801 8.81659 2.84976 9.20834 3.33301 9.20834ZM3.95801 8.33334C3.95801 8.67851 3.67819 8.95834 3.33301 8.95834C2.98783 8.95834 2.70801 8.67851 2.70801 8.33334V4.66667C2.70801 4.04535 3.21169 3.54167 3.83301 3.54167H8.33301C8.67819 3.54167 8.95801 3.82149 8.95801 4.16667C8.95801 4.51185 8.67819 4.79167 8.33301 4.79167H3.95801V8.33334Z" fill="#000"/>
  <path fill-rule="evenodd" clip-rule="evenodd" d="M8.33301 15.2083C8.67819 15.2083 8.95801 15.4882 8.95801 15.8333V16.6667C8.95801 17.242 9.42438 17.7083 9.99967 17.7083C10.575 17.7083 11.0413 17.242 11.0413 16.6667V15.8333C11.0413 15.4882 11.3212 15.2083 11.6663 15.2083C12.0115 15.2083 12.2913 15.4882 12.2913 15.8333V16.6667C12.2913 17.9323 11.2653 18.9583 9.99967 18.9583C8.73402 18.9583 7.70801 17.9323 7.70801 16.6667V15.8333C7.70801 15.4882 7.98783 15.2083 8.33301 15.2083Z" fill="#000"/>
  <path fill-rule="evenodd" clip-rule="evenodd" d="M8.33301 14.9583C8.81626 14.9583 9.20801 15.3501 9.20801 15.8333V16.6667C9.20801 17.1039 9.56245 17.4583 9.99967 17.4583C10.4369 17.4583 10.7913 17.1039 10.7913 16.6667V15.8333C10.7913 15.3501 11.1831 14.9583 11.6663 14.9583C12.1496 14.9583 12.5413 15.3501 12.5413 15.8333V16.6667C12.5413 18.0704 11.4034 19.2083 9.99967 19.2083C8.59595 19.2083 7.45801 18.0704 7.45801 16.6667V15.8333C7.45801 15.3501 7.84976 14.9583 8.33301 14.9583ZM8.95801 15.8333C8.95801 15.4882 8.67819 15.2083 8.33301 15.2083C7.98783 15.2083 7.70801 15.4882 7.70801 15.8333V16.6667C7.70801 17.9323 8.73402 18.9583 9.99967 18.9583C11.2653 18.9583 12.2913 17.9323 12.2913 16.6667V15.8333C12.2913 15.4882 12.0115 15.2083 11.6663 15.2083C11.3212 15.2083 11.0413 15.4882 11.0413 15.8333V16.6667C11.0413 17.242 10.575 17.7083 9.99967 17.7083C9.42438 17.7083 8.95801 17.242 8.95801 16.6667V15.8333Z" fill="#000"/>
  <path fill-rule="evenodd" clip-rule="evenodd" d="M2.70801 8.33334C2.70801 7.98816 2.98783 7.70834 3.33301 7.70834H4.16634C5.43199 7.70834 6.45801 8.73435 6.45801 10C6.45801 11.2657 5.43199 12.2917 4.16634 12.2917H3.33301C2.98783 12.2917 2.70801 12.0118 2.70801 11.6667C2.70801 11.3215 2.98783 11.0417 3.33301 11.0417H4.16634C4.74164 11.0417 5.20801 10.5753 5.20801 10C5.20801 9.42471 4.74164 8.95834 4.16634 8.95834H3.33301C2.98783 8.95834 2.70801 8.67851 2.70801 8.33334Z" fill="#000"/>
  <path fill-rule="evenodd" clip-rule="evenodd" d="M2.45801 8.33334C2.45801 7.85009 2.84976 7.45834 3.33301 7.45834H4.16634C5.57006 7.45834 6.70801 8.59628 6.70801 10C6.70801 11.4037 5.57006 12.5417 4.16634 12.5417H3.33301C2.84976 12.5417 2.45801 12.1499 2.45801 11.6667C2.45801 11.1834 2.84976 10.7917 3.33301 10.7917H4.16634C4.60357 10.7917 4.95801 10.4372 4.95801 10C4.95801 9.56278 4.60357 9.20834 4.16634 9.20834H3.33301C2.84976 9.20834 2.45801 8.81659 2.45801 8.33334ZM3.33301 7.70834C2.98783 7.70834 2.70801 7.98816 2.70801 8.33334C2.70801 8.67851 2.98783 8.95834 3.33301 8.95834H4.16634C4.74164 8.95834 5.20801 9.42471 5.20801 10C5.20801 10.5753 4.74164 11.0417 4.16634 11.0417H3.33301C2.98783 11.0417 2.70801 11.3215 2.70801 11.6667C2.70801 12.0118 2.98783 12.2917 3.33301 12.2917H4.16634C5.43199 12.2917 6.45801 11.2657 6.45801 10C6.45801 8.73435 5.43199 7.70834 4.16634 7.70834H3.33301Z" fill="#000"/>
  <path fill-rule="evenodd" clip-rule="evenodd" d="M15.208 8.33334C15.208 7.98816 15.4878 7.70834 15.833 7.70834H16.6663C17.932 7.70834 18.958 8.73435 18.958 10C18.958 11.2657 17.932 12.2917 16.6663 12.2917H15.833C15.4878 12.2917 15.208 12.0118 15.208 11.6667C15.208 11.3215 15.4878 11.0417 15.833 11.0417H16.6663C17.2416 11.0417 17.708 10.5753 17.708 10C17.708 9.42471 17.2416 8.95834 16.6663 8.95834H15.833C15.4878 8.95834 15.208 8.67851 15.208 8.33334Z" fill="#000"/>
  <path fill-rule="evenodd" clip-rule="evenodd" d="M14.958 8.33334C14.958 7.85009 15.3498 7.45834 15.833 7.45834H16.6663C18.0701 7.45834 19.208 8.59628 19.208 10C19.208 11.4037 18.0701 12.5417 16.6663 12.5417H15.833C15.3498 12.5417 14.958 12.1499 14.958 11.6667C14.958 11.1834 15.3498 10.7917 15.833 10.7917H16.6663C17.1036 10.7917 17.458 10.4372 17.458 10C17.458 9.56278 17.1036 9.20834 16.6663 9.20834H15.833C15.3498 9.20834 14.958 8.81659 14.958 8.33334ZM15.833 7.70834C15.4878 7.70834 15.208 7.98816 15.208 8.33334C15.208 8.67851 15.4878 8.95834 15.833 8.95834H16.6663C17.2416 8.95834 17.708 9.42471 17.708 10C17.708 10.5753 17.2416 11.0417 16.6663 11.0417H15.833C15.4878 11.0417 15.208 11.3215 15.208 11.6667C15.208 12.0118 15.4878 12.2917 15.833 12.2917H16.6663C17.932 12.2917 18.958 11.2657 18.958 10C18.958 8.73435 17.932 7.70834 16.6663 7.70834H15.833Z" fill="#000"/>
  <path fill-rule="evenodd" clip-rule="evenodd" d="M9.99967 2.29166C9.42438 2.29166 8.95801 2.75803 8.95801 3.33333V4.16666C8.95801 4.51184 8.67819 4.79166 8.33301 4.79166C7.98783 4.79166 7.70801 4.51184 7.70801 4.16666V3.33333C7.70801 2.06768 8.73402 1.04166 9.99967 1.04166C11.2653 1.04166 12.2913 2.06768 12.2913 3.33333V4.16666C12.2913 4.51184 12.0115 4.79166 11.6663 4.79166C11.3212 4.79166 11.0413 4.51184 11.0413 4.16666V3.33333C11.0413 2.75803 10.575 2.29166 9.99967 2.29166Z" fill="#000"/>
  <path fill-rule="evenodd" clip-rule="evenodd" d="M9.99967 2.54166C9.56245 2.54166 9.20801 2.89611 9.20801 3.33333V4.16666C9.20801 4.64991 8.81626 5.04166 8.33301 5.04166C7.84976 5.04166 7.45801 4.64991 7.45801 4.16666V3.33333C7.45801 1.92961 8.59595 0.791664 9.99967 0.791664C11.4034 0.791664 12.5413 1.92961 12.5413 3.33333V4.16666C12.5413 4.64991 12.1496 5.04166 11.6663 5.04166C11.1831 5.04166 10.7913 4.64991 10.7913 4.16666V3.33333C10.7913 2.89611 10.4369 2.54166 9.99967 2.54166ZM8.95801 3.33333C8.95801 2.75803 9.42438 2.29166 9.99967 2.29166C10.575 2.29166 11.0413 2.75803 11.0413 3.33333V4.16666C11.0413 4.51184 11.3212 4.79166 11.6663 4.79166C12.0115 4.79166 12.2913 4.51184 12.2913 4.16666V3.33333C12.2913 2.06768 11.2653 1.04166 9.99967 1.04166C8.73402 1.04166 7.70801 2.06768 7.70801 3.33333V4.16666C7.70801 4.51184 7.98783 4.79166 8.33301 4.79166C8.67819 4.79166 8.95801 4.51184 8.95801 4.16666V3.33333Z" fill="#000"/>
</svg>
