<svg width="20" height="20" viewBox="0 0 20 20" fill="none" xmlns="http://www.w3.org/2000/svg">
  <circle cx="10" cy="10" r="10" fill="#EC297B"/>
  <path fill-rule="evenodd" clip-rule="evenodd" d="M5.89821 10.7238C6.05773 10.5643 6.31637 10.5643 6.47589 10.7238L8.3656 12.6135L13.5232 7.456C13.6827 7.29648 13.9413 7.29648 14.1008 7.456C14.2603 7.61552 14.2603 7.87415 14.1008 8.03367L8.65444 13.4801C8.49492 13.6396 8.23629 13.6396 8.07677 13.4801L5.89821 11.3015C5.73869 11.142 5.73869 10.8833 5.89821 10.7238Z" fill="#fff"/>
  <path fill-rule="evenodd" clip-rule="evenodd" d="M5.78328 10.6083C6.00661 10.385 6.3687 10.385 6.59203 10.6083L8.36621 12.3825L13.4082 7.34046C13.6315 7.11713 13.9936 7.11713 14.217 7.34046C14.4403 7.56379 14.4403 7.92588 14.217 8.14921L8.77058 13.5956C8.54725 13.8189 8.18516 13.8189 7.96183 13.5956L5.78328 11.417C5.55995 11.1937 5.55995 10.8316 5.78328 10.6083ZM6.47649 10.7238C6.31697 10.5643 6.05834 10.5643 5.89881 10.7238C5.73929 10.8833 5.73929 11.142 5.89881 11.3015L8.07737 13.4801C8.23689 13.6396 8.49552 13.6396 8.65504 13.4801L14.1014 8.03367C14.2609 7.87415 14.2609 7.61552 14.1014 7.456C13.9419 7.29648 13.6833 7.29648 13.5238 7.456L8.36621 12.6135L6.47649 10.7238Z" fill="#fff"/>
</svg>
