<svg width="20" height="20" viewBox="0 0 20 20" fill="none" xmlns="http://www.w3.org/2000/svg">
  <path fill-rule="evenodd" clip-rule="evenodd" d="M5.39116 9.97475C5.63524 9.73067 6.03097 9.73067 6.27504 9.97475L8.3331 12.0328L13.7245 6.64141C13.9686 6.39733 14.3643 6.39733 14.6084 6.64141C14.8525 6.88549 14.8525 7.28122 14.6084 7.5253L8.77504 13.3586C8.53097 13.6027 8.13524 13.6027 7.89116 13.3586L5.39116 10.8586C5.14708 10.6146 5.14708 10.2188 5.39116 9.97475Z" fill="#000"/>
  <path fill-rule="evenodd" clip-rule="evenodd" d="M5.21442 9.79797C5.55613 9.45626 6.11015 9.45626 6.45186 9.79797L8.33314 11.6793L13.5478 6.46464C13.8895 6.12293 14.4435 6.12293 14.7852 6.46463C15.1269 6.80634 15.1269 7.36036 14.7852 7.70207L8.95186 13.5354C8.61015 13.8771 8.05613 13.8771 7.71442 13.5354L5.21442 11.0354C4.87271 10.6937 4.87271 10.1397 5.21442 9.79797ZM6.27508 9.97475C6.031 9.73067 5.63528 9.73067 5.3912 9.97475C5.14712 10.2188 5.14712 10.6146 5.3912 10.8586L7.8912 13.3586C8.13528 13.6027 8.531 13.6027 8.77508 13.3586L14.6084 7.5253C14.8525 7.28122 14.8525 6.88549 14.6084 6.64141C14.3643 6.39733 13.9686 6.39733 13.7245 6.64141L8.33314 12.0328L6.27508 9.97475Z" fill="#000"/>
  <path fill-rule="evenodd" clip-rule="evenodd" d="M10.0003 2.29169C5.74313 2.29169 2.29199 5.74283 2.29199 10C2.29199 14.2572 5.74313 17.7084 10.0003 17.7084C14.2575 17.7084 17.7087 14.2572 17.7087 10C17.7087 5.74283 14.2575 2.29169 10.0003 2.29169ZM1.04199 10C1.04199 5.05247 5.05277 1.04169 10.0003 1.04169C14.9479 1.04169 18.9587 5.05247 18.9587 10C18.9587 14.9476 14.9479 18.9584 10.0003 18.9584C5.05277 18.9584 1.04199 14.9476 1.04199 10Z" fill="#000"/>
  <path fill-rule="evenodd" clip-rule="evenodd" d="M10.0003 2.54169C5.8812 2.54169 2.54199 5.8809 2.54199 10C2.54199 14.1191 5.8812 17.4584 10.0003 17.4584C14.1194 17.4584 17.4587 14.1191 17.4587 10C17.4587 5.8809 14.1194 2.54169 10.0003 2.54169ZM0.791992 10C0.791992 4.9144 4.9147 0.791687 10.0003 0.791687C15.0859 0.791687 19.2087 4.9144 19.2087 10C19.2087 15.0856 15.0859 19.2084 10.0003 19.2084C4.9147 19.2084 0.791992 15.0856 0.791992 10ZM2.29199 10C2.29199 5.74283 5.74313 2.29169 10.0003 2.29169C14.2575 2.29169 17.7087 5.74283 17.7087 10C17.7087 14.2572 14.2575 17.7084 10.0003 17.7084C5.74313 17.7084 2.29199 14.2572 2.29199 10ZM10.0003 1.04169C5.05277 1.04169 1.04199 5.05247 1.04199 10C1.04199 14.9476 5.05277 18.9584 10.0003 18.9584C14.9479 18.9584 18.9587 14.9476 18.9587 10C18.9587 5.05247 14.9479 1.04169 10.0003 1.04169Z" fill="#000"/>
</svg>
