<svg width="16" height="17" viewBox="0 0 16 17" fill="none" xmlns="http://www.w3.org/2000/svg">
  <path fill-rule="evenodd" clip-rule="evenodd" d="M3.33333 3.43066C2.8731 3.43066 2.5 3.80376 2.5 4.264V13.5973C2.5 14.0576 2.8731 14.4307 3.33333 14.4307H12.6667C13.1269 14.4307 13.5 14.0576 13.5 13.5973V6.14962C13.5 5.9286 13.4122 5.71664 13.2559 5.56036L11.3703 3.67474C11.214 3.51846 11.0021 3.43066 10.781 3.43066H3.33333ZM1.5 4.264C1.5 3.25148 2.32081 2.43066 3.33333 2.43066H10.781C11.2673 2.43066 11.7336 2.62382 12.0774 2.96763L13.963 4.85325C14.3068 5.19707 14.5 5.66339 14.5 6.14962V13.5973C14.5 14.6099 13.6792 15.4307 12.6667 15.4307H3.33333C2.32081 15.4307 1.5 14.6099 1.5 13.5973V4.264Z" fill="#000"/>
  <path fill-rule="evenodd" clip-rule="evenodd" d="M3.33338 3.63047C2.9836 3.63047 2.70005 3.91402 2.70005 4.2638V13.5971C2.70005 13.9469 2.9836 14.2305 3.33338 14.2305H12.6667C13.0165 14.2305 13.3 13.9469 13.3 13.5971V6.14942C13.3 5.98145 13.2333 5.82036 13.1145 5.70159L11.2289 3.81597C11.1102 3.69719 10.9491 3.63047 10.7811 3.63047H3.33338ZM11.3704 3.67455L13.256 5.56016C13.4122 5.71644 13.5 5.92841 13.5 6.14942V13.5971C13.5 14.0574 13.127 14.4305 12.6667 14.4305H3.33338C2.87314 14.4305 2.50005 14.0574 2.50005 13.5971V4.2638C2.50005 3.80356 2.87314 3.43047 3.33338 3.43047H10.7811C11.0021 3.43047 11.2141 3.51827 11.3704 3.67455ZM1.30005 4.2638C1.30005 3.14082 2.2104 2.23047 3.33338 2.23047H10.7811C11.3204 2.23047 11.8376 2.44469 12.2189 2.82602L14.1045 4.71164C14.4858 5.09296 14.7 5.61015 14.7 6.14942V13.5971C14.7 14.7201 13.7897 15.6305 12.6667 15.6305H3.33338C2.2104 15.6305 1.30005 14.7201 1.30005 13.5971V4.2638ZM3.33338 2.43047C2.32086 2.43047 1.50005 3.25128 1.50005 4.2638V13.5971C1.50005 14.6097 2.32086 15.4305 3.33338 15.4305H12.6667C13.6792 15.4305 14.5 14.6097 14.5 13.5971V6.14942C14.5 5.66319 14.3069 5.19687 13.9631 4.85306L12.0775 2.96744C11.7336 2.62362 11.2673 2.43047 10.7811 2.43047H3.33338Z" fill="#000"/>
  <path fill-rule="evenodd" clip-rule="evenodd" d="M5.83337 3.43066V6.43066H10.1667V3.43066H5.83337ZM4.83337 3.33066C4.83337 2.83361 5.23632 2.43066 5.73337 2.43066H10.2667C10.7638 2.43066 11.1667 2.83361 11.1667 3.33066V6.53066C11.1667 7.02772 10.7638 7.43066 10.2667 7.43066H5.73337C5.23632 7.43066 4.83337 7.02772 4.83337 6.53066V3.33066Z" fill="#000"/>
  <path fill-rule="evenodd" clip-rule="evenodd" d="M6.0333 3.63047V6.23047H9.96663V3.63047H6.0333ZM4.6333 3.33047C4.6333 2.72296 5.12579 2.23047 5.7333 2.23047H10.2666C10.8741 2.23047 11.3666 2.72295 11.3666 3.33047V6.53047C11.3666 7.13798 10.8741 7.63047 10.2666 7.63047H5.7333C5.12579 7.63047 4.6333 7.13798 4.6333 6.53047V3.33047ZM5.8333 3.43047H10.1666V6.43047H5.8333V3.43047ZM5.7333 2.43047C5.23624 2.43047 4.8333 2.83341 4.8333 3.33047V6.53047C4.8333 7.02752 5.23624 7.43047 5.7333 7.43047H10.2666C10.7637 7.43047 11.1666 7.02752 11.1666 6.53047V3.33047C11.1666 2.83341 10.7637 2.43047 10.2666 2.43047H5.7333Z" fill="#000"/>
  <path fill-rule="evenodd" clip-rule="evenodd" d="M4.5 10.0977V14.431H11.5V10.0977H4.5ZM3.5 9.99766C3.5 9.5006 3.90294 9.09766 4.4 9.09766H11.6C12.0971 9.09766 12.5 9.5006 12.5 9.99766V15.431H3.5V9.99766Z" fill="#000"/>
  <path fill-rule="evenodd" clip-rule="evenodd" d="M12.7 15.6308H3.30005V9.99746C3.30005 9.38995 3.79254 8.89746 4.40005 8.89746H11.6C12.2076 8.89746 12.7 9.38995 12.7 9.99746V15.6308ZM4.70005 10.2975V14.2308H11.3V10.2975H4.70005ZM12.5 9.99746C12.5 9.5004 12.0971 9.09746 11.6 9.09746H4.40005C3.90299 9.09746 3.50005 9.5004 3.50005 9.99746V15.4308H12.5V9.99746ZM4.50005 10.0975H11.5V14.4308H4.50005V10.0975Z" fill="#000"/>
</svg>
