<svg width="20" height="20" viewBox="0 0 20 20" fill="none" xmlns="http://www.w3.org/2000/svg">
  <path fill-rule="evenodd" clip-rule="evenodd" d="M4.375 5C4.375 3.27411 5.77411 1.875 7.5 1.875H15.8333C17.5592 1.875 18.9583 3.27411 18.9583 5V11.6667C18.9583 12.0118 18.6785 12.2917 18.3333 12.2917C17.9882 12.2917 17.7083 12.0118 17.7083 11.6667V5C17.7083 3.96447 16.8689 3.125 15.8333 3.125H7.5C6.46447 3.125 5.625 3.96447 5.625 5V10.8333C5.625 11.1785 5.34518 11.4583 5 11.4583C4.65482 11.4583 4.375 11.1785 4.375 10.8333V5Z" fill="#000"/>
  <path fill-rule="evenodd" clip-rule="evenodd" d="M4.125 5C4.125 3.13604 5.63604 1.625 7.5 1.625H15.8333C17.6973 1.625 19.2083 3.13604 19.2083 5V11.6667C19.2083 12.1499 18.8166 12.5417 18.3333 12.5417C17.8501 12.5417 17.4583 12.1499 17.4583 11.6667V5C17.4583 4.10254 16.7308 3.375 15.8333 3.375H7.5C6.60254 3.375 5.875 4.10254 5.875 5V10.8333C5.875 11.3166 5.48325 11.7083 5 11.7083C4.51675 11.7083 4.125 11.3166 4.125 10.8333V5ZM7.5 1.875C5.77411 1.875 4.375 3.27411 4.375 5V10.8333C4.375 11.1785 4.65482 11.4583 5 11.4583C5.34518 11.4583 5.625 11.1785 5.625 10.8333V5C5.625 3.96447 6.46447 3.125 7.5 3.125H15.8333C16.8689 3.125 17.7083 3.96447 17.7083 5V11.6667C17.7083 12.0118 17.9882 12.2917 18.3333 12.2917C18.6785 12.2917 18.9583 12.0118 18.9583 11.6667V5C18.9583 3.27411 17.5592 1.875 15.8333 1.875H7.5Z" fill="#000"/>
  <path fill-rule="evenodd" clip-rule="evenodd" d="M5.00033 11.4583C3.50455 11.4583 2.29199 12.6709 2.29199 14.1666C2.29199 15.6624 3.50455 16.875 5.00033 16.875H10.0003C10.3455 16.875 10.6253 17.1548 10.6253 17.5C10.6253 17.8452 10.3455 18.125 10.0003 18.125H5.00033C2.8142 18.125 1.04199 16.3528 1.04199 14.1666C1.04199 11.9805 2.8142 10.2083 5.00033 10.2083H15.0003C15.3455 10.2083 15.6253 10.4881 15.6253 10.8333C15.6253 11.1785 15.3455 11.4583 15.0003 11.4583C13.5046 11.4583 12.292 12.6709 12.292 14.1666C12.292 15.6624 13.5046 16.875 15.0003 16.875C16.4961 16.875 17.7087 15.6624 17.7087 14.1666V11.6666C17.7087 11.3215 17.9885 11.0416 18.3337 11.0416C18.6788 11.0416 18.9587 11.3215 18.9587 11.6666V14.1666C18.9587 16.3528 17.1865 18.125 15.0003 18.125C12.8142 18.125 11.042 16.3528 11.042 14.1666C11.042 13.119 11.449 12.1664 12.1136 11.4583H5.00033Z" fill="#000"/>
  <path fill-rule="evenodd" clip-rule="evenodd" d="M5.00033 11.7083C3.64263 11.7083 2.54199 12.8089 2.54199 14.1666C2.54199 15.5243 3.64263 16.625 5.00033 16.625H10.0003C10.4836 16.625 10.8753 17.0167 10.8753 17.5C10.8753 17.9832 10.4836 18.375 10.0003 18.375H5.00033C2.67613 18.375 0.791992 16.4908 0.791992 14.1666C0.791992 11.8424 2.67613 9.95831 5.00033 9.95831H15.0003C15.4836 9.95831 15.8753 10.3501 15.8753 10.8333C15.8753 11.3166 15.4836 11.7083 15.0003 11.7083C13.6426 11.7083 12.542 12.8089 12.542 14.1666C12.542 15.5243 13.6426 16.625 15.0003 16.625C16.358 16.625 17.4587 15.5243 17.4587 14.1666V11.6666C17.4587 11.1834 17.8504 10.7916 18.3337 10.7916C18.8169 10.7916 19.2087 11.1834 19.2087 11.6666V14.1666C19.2087 16.4908 17.3245 18.375 15.0003 18.375C12.6761 18.375 10.792 16.4908 10.792 14.1666C10.792 13.2491 11.0859 12.3998 11.5843 11.7083H5.00033ZM11.8977 11.7083C11.9662 11.622 12.0382 11.5386 12.1136 11.4583H5.00033C3.50455 11.4583 2.29199 12.6709 2.29199 14.1666C2.29199 15.6624 3.50455 16.875 5.00033 16.875H10.0003C10.3455 16.875 10.6253 17.1548 10.6253 17.5C10.6253 17.8452 10.3455 18.125 10.0003 18.125H5.00033C2.8142 18.125 1.04199 16.3528 1.04199 14.1666C1.04199 11.9805 2.8142 10.2083 5.00033 10.2083H15.0003C15.3455 10.2083 15.6253 10.4881 15.6253 10.8333C15.6253 11.1785 15.3455 11.4583 15.0003 11.4583C13.5046 11.4583 12.292 12.6709 12.292 14.1666C12.292 15.6624 13.5046 16.875 15.0003 16.875C16.4961 16.875 17.7087 15.6624 17.7087 14.1666V11.6666C17.7087 11.3215 17.9885 11.0416 18.3337 11.0416C18.6788 11.0416 18.9587 11.3215 18.9587 11.6666V14.1666C18.9587 16.3528 17.1865 18.125 15.0003 18.125C12.8142 18.125 11.042 16.3528 11.042 14.1666C11.042 13.2377 11.362 12.3836 11.8977 11.7083Z" fill="#000"/>
</svg>
