<svg width="20" height="20" viewBox="0 0 20 20" fill="none" xmlns="http://www.w3.org/2000/svg">
  <path fill-rule="evenodd" clip-rule="evenodd" d="M2.05359 2.89593C2.23306 2.71275 2.50621 2.6578 2.74255 2.75731L18.5759 9.42398C18.8076 9.52156 18.9583 9.74853 18.9583 10C18.9583 10.2515 18.8076 10.4784 18.5759 10.576L2.74255 17.2427L2.50002 16.6667L2.50002 16.6667L2.74255 17.2427C2.50621 17.3422 2.23306 17.2872 2.05359 17.1041C1.87412 16.9209 1.82475 16.6467 1.92907 16.4124L4.7846 10L1.92907 3.58758C1.82475 3.35332 1.87412 3.0791 2.05359 2.89593ZM3.71375 15.4775L16.7228 10L3.71375 4.52252L6.03972 9.74575C6.11179 9.90759 6.11179 10.0924 6.03972 10.2543L3.71375 15.4775Z" fill="#000"/>
  <path fill-rule="evenodd" clip-rule="evenodd" d="M2.49191 17.2916C2.33003 17.2895 2.17157 17.2245 2.05359 17.1041C1.87412 16.9209 1.82476 16.6467 1.92908 16.4124L4.78461 9.99999L1.92908 3.58758C1.82476 3.35331 1.87412 3.0791 2.05359 2.89592C2.23306 2.71275 2.50621 2.65779 2.74256 2.7573L18.5759 9.42397C18.8076 9.52155 18.9584 9.74853 18.9584 9.99999C18.9584 10.2515 18.8076 10.4784 18.5759 10.576L2.74256 17.2427C2.66161 17.2768 2.57625 17.2927 2.49191 17.2916ZM4.51094 9.99999L1.7007 16.3107C1.55465 16.6387 1.62376 17.0226 1.87502 17.279C2.12628 17.5355 2.50869 17.6124 2.83957 17.4731L18.6729 10.8064C18.9974 10.6698 19.2084 10.352 19.2084 9.99999C19.2084 9.64794 18.9974 9.33018 18.6729 9.19356L2.83957 2.52689C2.50869 2.38758 2.12628 2.46451 1.87502 2.72096C1.62376 2.9774 1.55465 3.36131 1.7007 3.68928L4.51094 9.99999ZM16.7228 9.99999L3.71375 4.52251L6.03972 9.74574C6.11179 9.90758 6.11179 10.0924 6.03972 10.2542L3.71375 15.4775L16.7228 9.99999ZM16.0785 9.99999L4.19924 15.0018L6.2681 10.3559C6.369 10.1294 6.369 9.87062 6.2681 9.64404L4.19924 4.99818L16.0785 9.99999Z" fill="#000"/>
  <path fill-rule="evenodd" clip-rule="evenodd" d="M4.7915 10C4.7915 9.65482 5.07133 9.375 5.4165 9.375L18.3332 9.375C18.6783 9.375 18.9582 9.65482 18.9582 10C18.9582 10.3452 18.6783 10.625 18.3332 10.625L5.4165 10.625C5.07133 10.625 4.7915 10.3452 4.7915 10Z" fill="#000"/>
  <path fill-rule="evenodd" clip-rule="evenodd" d="M4.5415 10C4.5415 9.51675 4.93325 9.125 5.4165 9.125L18.3332 9.125C18.8164 9.125 19.2082 9.51675 19.2082 10C19.2082 10.4832 18.8164 10.875 18.3332 10.875L5.4165 10.875C4.93325 10.875 4.5415 10.4832 4.5415 10ZM5.4165 9.375C5.07133 9.375 4.7915 9.65482 4.7915 10C4.7915 10.3452 5.07133 10.625 5.4165 10.625L18.3332 10.625C18.6783 10.625 18.9582 10.3452 18.9582 10C18.9582 9.65482 18.6783 9.375 18.3332 9.375L5.4165 9.375Z" fill="#000"/>
</svg>
