<svg width="20" height="20" viewBox="0 0 20 20" fill="none" xmlns="http://www.w3.org/2000/svg">
  <path fill-rule="evenodd" clip-rule="evenodd" d="M3.36568 10.2007C4.06961 9.47479 5.15185 8.95833 6.66699 8.95833L16.8248 8.95833L12.0584 13.7247C11.8143 13.9688 11.8143 14.3645 12.0584 14.6086C12.3025 14.8527 12.6982 14.8527 12.9423 14.6086L18.7756 8.77528C19.0197 8.5312 19.0197 8.13547 18.7756 7.89139L12.9423 2.05806C12.6982 1.81398 12.3025 1.81398 12.0584 2.05806C11.8143 2.30214 11.8143 2.69786 12.0584 2.94194L16.8248 7.70833L6.66699 7.70833C4.8488 7.70833 3.43104 8.33771 2.4683 9.33053C1.51268 10.316 1.04199 11.6221 1.04199 12.9167C1.04199 14.2112 1.51268 15.5173 2.4683 16.5028C3.43104 17.4956 4.8488 18.125 6.66699 18.125C7.01217 18.125 7.29199 17.8452 7.29199 17.5C7.29199 17.1548 7.01217 16.875 6.66699 16.875C5.15185 16.875 4.06961 16.3585 3.36568 15.6326C2.65463 14.8994 2.29199 13.9138 2.29199 12.9167C2.29199 11.9195 2.65463 10.934 3.36568 10.2007Z" fill="#000"/>
  <path fill-rule="evenodd" clip-rule="evenodd" d="M3.54516 10.3748C4.19736 9.70217 5.21253 9.20833 6.66699 9.20833L16.2212 9.20833L11.8816 13.5479C11.5399 13.8897 11.5399 14.4437 11.8816 14.7854C12.2233 15.1271 12.7773 15.1271 13.119 14.7854L18.9524 8.95205C19.2941 8.61034 19.2941 8.05632 18.9524 7.71461L13.119 1.88128C12.7773 1.53957 12.2233 1.53957 11.8816 1.88128C11.5399 2.22299 11.5399 2.77701 11.8816 3.11872L16.2212 7.45833L6.66699 7.45833C4.78823 7.45833 3.30336 8.11026 2.28883 9.1565C1.28427 10.1925 0.791992 11.5627 0.791992 12.9167C0.791992 14.2706 1.28427 15.6409 2.28883 16.6768C3.30336 17.7231 4.78823 18.375 6.66699 18.375C7.15024 18.375 7.54199 17.9832 7.54199 17.5C7.54199 17.0168 7.15024 16.625 6.66699 16.625C5.21253 16.625 4.19736 16.1312 3.54516 15.4586C2.88299 14.7757 2.54199 13.8543 2.54199 12.9167C2.54199 11.9791 2.88299 11.0576 3.54516 10.3748ZM6.66699 7.70833C4.8488 7.70833 3.43104 8.33771 2.4683 9.33053C1.51268 10.316 1.04199 11.6221 1.04199 12.9167C1.04199 14.2112 1.51268 15.5173 2.4683 16.5028C3.43104 17.4956 4.8488 18.125 6.66699 18.125C7.01217 18.125 7.29199 17.8452 7.29199 17.5C7.29199 17.1548 7.01217 16.875 6.66699 16.875C5.15185 16.875 4.06961 16.3585 3.36568 15.6326C2.65463 14.8994 2.29199 13.9138 2.29199 12.9167C2.29199 11.9195 2.65463 10.934 3.36568 10.2007C4.06961 9.47479 5.15185 8.95833 6.66699 8.95833L16.8248 8.95833L12.0584 13.7247C11.8143 13.9688 11.8143 14.3645 12.0584 14.6086C12.3025 14.8527 12.6982 14.8527 12.9423 14.6086L18.7756 8.77527C19.0197 8.5312 19.0197 8.13547 18.7756 7.89139L12.9423 2.05806C12.6982 1.81398 12.3025 1.81398 12.0584 2.05806C11.8143 2.30214 11.8143 2.69786 12.0584 2.94194L16.8248 7.70833L6.66699 7.70833Z" fill="#000"/>
</svg>
