<svg width="20" height="20" viewBox="0 0 20 20" fill="none" xmlns="http://www.w3.org/2000/svg">
  <path fill-rule="evenodd" clip-rule="evenodd" d="M12.8913 9.55806C13.1354 9.31398 13.5311 9.31398 13.7752 9.55806L16.2752 12.0581C16.5193 12.3021 16.5193 12.6979 16.2752 12.9419C16.0311 13.186 15.6354 13.186 15.3913 12.9419L13.9583 11.5089V16.6667C13.9583 17.0118 13.6784 17.2917 13.3333 17.2917C12.9881 17.2917 12.7083 17.0118 12.7083 16.6667V11.5089L11.2752 12.9419C11.0311 13.186 10.6354 13.186 10.3913 12.9419C10.1472 12.6979 10.1472 12.3021 10.3913 12.0581L12.8913 9.55806Z" fill="#000"/>
  <path fill-rule="evenodd" clip-rule="evenodd" d="M12.7145 9.38128C13.0562 9.03957 13.6103 9.03957 13.952 9.38128L16.452 11.8813C16.7937 12.223 16.7937 12.777 16.452 13.1187C16.1103 13.4604 15.5562 13.4604 15.2145 13.1187L14.2083 12.1124V16.6667C14.2083 17.1499 13.8165 17.5417 13.3333 17.5417C12.85 17.5417 12.4583 17.1499 12.4583 16.6667V12.1124L11.452 13.1187C11.1103 13.4604 10.5562 13.4604 10.2145 13.1187C9.87282 12.777 9.87282 12.223 10.2145 11.8813L12.7145 9.38128ZM11.2752 12.9419C11.0311 13.186 10.6354 13.186 10.3913 12.9419C10.1472 12.6979 10.1472 12.3021 10.3913 12.0581L12.8913 9.55806C13.1354 9.31398 13.5311 9.31398 13.7752 9.55806L16.2752 12.0581C16.5193 12.3021 16.5193 12.6979 16.2752 12.9419C16.0311 13.186 15.6354 13.186 15.3913 12.9419L13.9583 11.5089V16.6667C13.9583 17.0118 13.6784 17.2917 13.3333 17.2917C12.9881 17.2917 12.7083 17.0118 12.7083 16.6667V11.5089L11.2752 12.9419Z" fill="#000"/>
  <path fill-rule="evenodd" clip-rule="evenodd" d="M17.1087 2.89135C16.8646 2.64727 16.4689 2.64727 16.2248 2.89135L12.5001 6.61608L10.442 4.55802C10.1979 4.31394 9.80222 4.31394 9.55814 4.55802L2.89147 11.2247C2.6474 11.4688 2.6474 11.8645 2.89147 12.1086C3.13555 12.3526 3.53128 12.3526 3.77536 12.1086L10.0001 5.88384L12.0581 7.9419C12.3022 8.18598 12.6979 8.18598 12.942 7.9419L17.1087 3.77523C17.3528 3.53116 17.3528 3.13543 17.1087 2.89135Z" fill="#000"/>
  <path fill-rule="evenodd" clip-rule="evenodd" d="M17.2855 2.71457C16.9438 2.37286 16.3897 2.37286 16.048 2.71457L12.5001 6.26252L10.6188 4.38124C10.2771 4.03953 9.72307 4.03953 9.38136 4.38124L2.7147 11.0479C2.37299 11.3896 2.37299 11.9436 2.7147 12.2853C3.05641 12.6271 3.61043 12.6271 3.95213 12.2853L10.0001 6.2374L11.8814 8.11868C12.2231 8.46039 12.7771 8.46039 13.1188 8.11868L17.2855 3.95201C17.6272 3.6103 17.6272 3.05628 17.2855 2.71457ZM10.0001 5.88384L3.77536 12.1086C3.53128 12.3526 3.13555 12.3526 2.89147 12.1086C2.6474 11.8645 2.6474 11.4688 2.89147 11.2247L9.55814 4.55802C9.80222 4.31394 10.1979 4.31394 10.442 4.55802L12.5001 6.61608L16.2248 2.89135C16.4689 2.64727 16.8646 2.64727 17.1087 2.89135C17.3528 3.13543 17.3528 3.53116 17.1087 3.77523L12.942 7.9419C12.6979 8.18598 12.3022 8.18598 12.0581 7.9419L10.0001 5.88384Z" fill="#000"/>
</svg>
