<svg width="20" height="20" viewBox="0 0 20 20" fill="none" xmlns="http://www.w3.org/2000/svg">
<path fill-rule="evenodd" clip-rule="evenodd" d="M11.1499 3.16701C10.8303 2.76742 10.2102 2.80913 9.94688 3.24793L7.68818 7.01242C7.27403 7.70268 6.52807 8.12503 5.7231 8.12503H3.54175V16.0417H13.7271C14.1968 16.0417 14.6085 15.7273 14.732 15.2741L16.323 9.44078C16.5037 8.77813 16.0048 8.12503 15.318 8.12503H11.5054C10.7518 8.12503 10.2113 7.39858 10.4279 6.67677L11.2799 3.83674C11.3492 3.6057 11.3006 3.35536 11.1499 3.16701ZM8.87501 2.60481C9.58646 1.41906 11.2622 1.30635 12.126 2.38614C12.5332 2.89512 12.6645 3.5716 12.4772 4.19592L11.6734 6.87503H15.318C16.8291 6.87503 17.9265 8.31185 17.5289 9.76967L15.938 15.603C15.6661 16.6 14.7605 17.2917 13.7271 17.2917H3.41675C2.79543 17.2917 2.29175 16.788 2.29175 16.1667V8.00003C2.29175 7.37871 2.79543 6.87503 3.41675 6.87503H5.7231C6.089 6.87503 6.42807 6.68305 6.61632 6.3693L8.87501 2.60481Z" fill="#000"/>
<path fill-rule="evenodd" clip-rule="evenodd" d="M10.9547 3.32319C10.7439 3.05965 10.3349 3.08716 10.1613 3.37656L7.90256 7.14105C7.44322 7.90661 6.61589 8.37504 5.7231 8.37504H3.79175V15.7917H13.7271C14.0841 15.7917 14.3969 15.5528 14.4909 15.2083L16.0818 9.37501C16.2191 8.8714 15.84 8.37504 15.318 8.37504H11.5054C10.5844 8.37504 9.92375 7.48715 10.1884 6.60494L11.0404 3.76491C11.0861 3.61253 11.0541 3.44742 10.9547 3.32319ZM8.66064 2.4762C9.46173 1.14105 11.3486 1.01414 12.3212 2.22998C12.7797 2.80308 12.9275 3.56479 12.7166 4.26777L12.0094 6.62504H15.318C16.9939 6.62504 18.2111 8.21861 17.7701 9.83546L16.1792 15.6688C15.8776 16.7746 14.8733 17.5417 13.7271 17.5417H3.41675C2.65736 17.5417 2.04175 16.9261 2.04175 16.1667V8.00004C2.04175 7.24065 2.65736 6.62504 3.41675 6.62504H5.7231C6.00118 6.62504 6.25887 6.47914 6.40195 6.24068L8.66064 2.4762ZM15.318 6.87504C16.8291 6.87504 17.9265 8.31186 17.5289 9.76968L15.938 15.603C15.6661 16.6 14.7605 17.2917 13.7271 17.2917H3.41675C2.79543 17.2917 2.29175 16.788 2.29175 16.1667V8.00004C2.29175 7.37872 2.79543 6.87504 3.41675 6.87504H5.7231C6.089 6.87504 6.42807 6.68306 6.61632 6.36931L8.87501 2.60482C9.58646 1.41907 11.2622 1.30635 12.126 2.38615C12.5332 2.89513 12.6645 3.57161 12.4772 4.19593L11.6734 6.87504H15.318ZM9.94688 3.24794C10.2102 2.80914 10.8303 2.76743 11.1499 3.16702C11.3006 3.35537 11.3492 3.60571 11.2799 3.83674L10.4279 6.67677C10.2113 7.39859 10.7518 8.12504 11.5054 8.12504H15.318C16.0048 8.12504 16.5037 8.77814 16.323 9.44078L14.7321 15.2741C14.6085 15.7273 14.1968 16.0417 13.7271 16.0417H3.54175V8.12504H5.7231C6.52808 8.12504 7.27403 7.70269 7.68819 7.01243L9.94688 3.24794Z" fill="#000"/>
<path fill-rule="evenodd" clip-rule="evenodd" d="M5.83325 17.2916C5.48807 17.2916 5.20825 17.0118 5.20825 16.6666L5.20825 7.49996C5.20825 7.15478 5.48807 6.87496 5.83325 6.87496C6.17843 6.87496 6.45825 7.15478 6.45825 7.49996L6.45825 16.6666C6.45825 17.0118 6.17843 17.2916 5.83325 17.2916Z" fill="#000"/>
<path fill-rule="evenodd" clip-rule="evenodd" d="M5.83325 17.5416C5.35 17.5416 4.95825 17.1499 4.95825 16.6666L4.95825 7.49996C4.95825 7.01671 5.35 6.62496 5.83325 6.62496C6.3165 6.62496 6.70825 7.01671 6.70825 7.49996L6.70825 16.6666C6.70825 17.1499 6.3165 17.5416 5.83325 17.5416ZM5.20825 16.6666C5.20825 17.0118 5.48807 17.2916 5.83325 17.2916C6.17843 17.2916 6.45825 17.0118 6.45825 16.6666L6.45825 7.49996C6.45825 7.15478 6.17843 6.87496 5.83325 6.87496C5.48807 6.87496 5.20825 7.15478 5.20825 7.49996L5.20825 16.6666Z" fill="#000"/>
</svg>
