<svg width="20" height="20" viewBox="0 0 20 20" fill="none" xmlns="http://www.w3.org/2000/svg">
  <path fill-rule="evenodd" clip-rule="evenodd" d="M6.875 1.66669C6.875 1.32151 7.15482 1.04169 7.5 1.04169L12.5 1.04169C12.8452 1.04169 13.125 1.32151 13.125 1.66669C13.125 2.01186 12.8452 2.29169 12.5 2.29169L7.5 2.29169C7.15482 2.29169 6.875 2.01186 6.875 1.66669Z" fill="#000"/>
  <path fill-rule="evenodd" clip-rule="evenodd" d="M6.625 1.66663C6.625 1.18338 7.01675 0.791626 7.5 0.791626L12.5 0.791625C12.9832 0.791625 13.375 1.18338 13.375 1.66663C13.375 2.14987 12.9832 2.54163 12.5 2.54163L7.5 2.54163C7.01675 2.54163 6.625 2.14988 6.625 1.66663ZM7.5 1.04163C7.15482 1.04163 6.875 1.32145 6.875 1.66663C6.875 2.0118 7.15482 2.29163 7.5 2.29163L12.5 2.29163C12.8452 2.29163 13.125 2.0118 13.125 1.66663C13.125 1.32145 12.8452 1.04163 12.5 1.04163L7.5 1.04163Z" fill="#000"/>
  <path fill-rule="evenodd" clip-rule="evenodd" d="M10 7.70831C10.3452 7.70831 10.625 7.98814 10.625 8.33331L10.625 11.6666C10.625 12.0118 10.3452 12.2916 10 12.2916C9.65482 12.2916 9.375 12.0118 9.375 11.6666L9.375 8.33331C9.375 7.98813 9.65482 7.70831 10 7.70831Z" fill="#000"/>
  <path fill-rule="evenodd" clip-rule="evenodd" d="M10 7.45831C10.4832 7.45831 10.875 7.85006 10.875 8.33331L10.875 11.6666C10.875 12.1499 10.4832 12.5416 10 12.5416C9.51675 12.5416 9.125 12.1499 9.125 11.6666L9.125 8.33331C9.125 7.85006 9.51675 7.45831 10 7.45831ZM10.625 8.33331C10.625 7.98814 10.3452 7.70831 10 7.70831C9.65482 7.70831 9.375 7.98813 9.375 8.33331L9.375 11.6666C9.375 12.0118 9.65482 12.2916 10 12.2916C10.3452 12.2916 10.625 12.0118 10.625 11.6666L10.625 8.33331Z" fill="#000"/>
  <path fill-rule="evenodd" clip-rule="evenodd" d="M9.99967 5.625C6.66295 5.625 3.95801 8.32995 3.95801 11.6667C3.95801 15.0034 6.66295 17.7083 9.99967 17.7083C13.3364 17.7083 16.0413 15.0034 16.0413 11.6667C16.0413 8.32995 13.3364 5.625 9.99967 5.625ZM2.70801 11.6667C2.70801 7.63959 5.9726 4.375 9.99967 4.375C14.0268 4.375 17.2913 7.63959 17.2913 11.6667C17.2913 15.6937 14.0268 18.9583 9.99967 18.9583C5.9726 18.9583 2.70801 15.6937 2.70801 11.6667Z" fill="#000"/>
  <path fill-rule="evenodd" clip-rule="evenodd" d="M9.99967 5.87494C6.80103 5.87494 4.20801 8.46796 4.20801 11.6666C4.20801 14.8653 6.80103 17.4583 9.99967 17.4583C13.1983 17.4583 15.7913 14.8653 15.7913 11.6666C15.7913 8.46796 13.1983 5.87494 9.99967 5.87494ZM2.45801 11.6666C2.45801 7.50146 5.83453 4.12494 9.99967 4.12494C14.1648 4.12494 17.5413 7.50146 17.5413 11.6666C17.5413 15.8318 14.1648 19.2083 9.99967 19.2083C5.83453 19.2083 2.45801 15.8318 2.45801 11.6666ZM3.95801 11.6666C3.95801 8.32989 6.66295 5.62494 9.99967 5.62494C13.3364 5.62494 16.0413 8.32989 16.0413 11.6666C16.0413 15.0033 13.3364 17.7083 9.99967 17.7083C6.66295 17.7083 3.95801 15.0033 3.95801 11.6666ZM9.99967 4.37494C5.9726 4.37494 2.70801 7.63953 2.70801 11.6666C2.70801 15.6937 5.9726 18.9583 9.99967 18.9583C14.0268 18.9583 17.2913 15.6937 17.2913 11.6666C17.2913 7.63953 14.0268 4.37494 9.99967 4.37494Z" fill="#000"/>
</svg>
