<svg width="20" height="21" viewBox="0 0 20 21" fill="none" xmlns="http://www.w3.org/2000/svg">
  <path fill-rule="evenodd" clip-rule="evenodd" d="M4.16663 9.0415C4.5118 9.0415 4.79163 9.32133 4.79163 9.6665V17.3748H15.2083V9.6665C15.2083 9.32133 15.4881 9.0415 15.8333 9.0415C16.1785 9.0415 16.4583 9.32133 16.4583 9.6665V17.4998C16.4583 18.1212 15.9546 18.6248 15.3333 18.6248H4.66663C4.0453 18.6248 3.54163 18.1212 3.54163 17.4998V9.6665C3.54163 9.32133 3.82145 9.0415 4.16663 9.0415Z" fill="#000"/>
  <path fill-rule="evenodd" clip-rule="evenodd" d="M4.16663 8.7915C4.64988 8.7915 5.04163 9.18325 5.04163 9.6665V17.1248H14.9583V9.6665C14.9583 9.18325 15.35 8.7915 15.8333 8.7915C16.3165 8.7915 16.7083 9.18325 16.7083 9.6665V17.4998C16.7083 18.2592 16.0927 18.8748 15.3333 18.8748H4.66663C3.90723 18.8748 3.29163 18.2592 3.29163 17.4998V9.6665C3.29163 9.18325 3.68338 8.7915 4.16663 8.7915ZM4.79163 9.6665C4.79163 9.32133 4.5118 9.0415 4.16663 9.0415C3.82145 9.0415 3.54163 9.32133 3.54163 9.6665V17.4998C3.54163 18.1212 4.0453 18.6248 4.66663 18.6248H15.3333C15.9546 18.6248 16.4583 18.1212 16.4583 17.4998V9.6665C16.4583 9.32133 16.1785 9.0415 15.8333 9.0415C15.4881 9.0415 15.2083 9.32133 15.2083 9.6665V17.3748H4.79163V9.6665Z" fill="#000"/>
  <path fill-rule="evenodd" clip-rule="evenodd" d="M8.33337 9.0415C8.67855 9.0415 8.95837 9.32133 8.95837 9.6665V14.6665C8.95837 15.0117 8.67855 15.2915 8.33337 15.2915C7.9882 15.2915 7.70837 15.0117 7.70837 14.6665V9.6665C7.70837 9.32133 7.9882 9.0415 8.33337 9.0415Z" fill="#000"/>
  <path fill-rule="evenodd" clip-rule="evenodd" d="M8.33337 8.7915C8.81662 8.7915 9.20837 9.18325 9.20837 9.6665V14.6665C9.20837 15.1498 8.81662 15.5415 8.33337 15.5415C7.85012 15.5415 7.45837 15.1498 7.45837 14.6665V9.6665C7.45837 9.18325 7.85012 8.7915 8.33337 8.7915ZM8.95837 9.6665C8.95837 9.32133 8.67855 9.0415 8.33337 9.0415C7.9882 9.0415 7.70837 9.32133 7.70837 9.6665V14.6665C7.70837 15.0117 7.9882 15.2915 8.33337 15.2915C8.67855 15.2915 8.95837 15.0117 8.95837 14.6665V9.6665Z" fill="#000"/>
  <path fill-rule="evenodd" clip-rule="evenodd" d="M11.6666 9.0415C12.0118 9.0415 12.2916 9.32133 12.2916 9.6665V14.6665C12.2916 15.0117 12.0118 15.2915 11.6666 15.2915C11.3214 15.2915 11.0416 15.0117 11.0416 14.6665V9.6665C11.0416 9.32133 11.3214 9.0415 11.6666 9.0415Z" fill="#000"/>
  <path fill-rule="evenodd" clip-rule="evenodd" d="M11.6666 8.7915C12.1499 8.7915 12.5416 9.18325 12.5416 9.6665V14.6665C12.5416 15.1498 12.1499 15.5415 11.6666 15.5415C11.1834 15.5415 10.7916 15.1498 10.7916 14.6665V9.6665C10.7916 9.18325 11.1834 8.7915 11.6666 8.7915ZM12.2916 9.6665C12.2916 9.32133 12.0118 9.0415 11.6666 9.0415C11.3214 9.0415 11.0416 9.32133 11.0416 9.6665V14.6665C11.0416 15.0117 11.3214 15.2915 11.6666 15.2915C12.0118 15.2915 12.2916 15.0117 12.2916 14.6665V9.6665Z" fill="#000"/>
  <path fill-rule="evenodd" clip-rule="evenodd" d="M1.875 6.3335C1.875 5.98832 2.15482 5.7085 2.5 5.7085H6.04167V3.50016C6.04167 2.87884 6.54535 2.37516 7.16667 2.37516L12.8333 2.37516C13.4547 2.37516 13.9583 2.87884 13.9583 3.50016V5.7085H17.5C17.8452 5.7085 18.125 5.98832 18.125 6.3335C18.125 6.67867 17.8452 6.9585 17.5 6.9585L2.5 6.9585C2.15482 6.9585 1.875 6.67867 1.875 6.3335ZM12.7083 5.7085V3.62516H7.29167V5.7085L12.7083 5.7085Z" fill="#000"/>
  <path fill-rule="evenodd" clip-rule="evenodd" d="M1.625 6.3335C1.625 5.85025 2.01675 5.4585 2.5 5.4585H5.79167V3.50016C5.79167 2.74077 6.40728 2.12516 7.16667 2.12516L12.8333 2.12516C13.5927 2.12516 14.2083 2.74077 14.2083 3.50016V5.4585H17.5C17.9832 5.4585 18.375 5.85025 18.375 6.3335C18.375 6.81675 17.9832 7.2085 17.5 7.2085L2.5 7.2085C2.01675 7.2085 1.625 6.81675 1.625 6.3335ZM12.4583 5.4585V3.87516H7.54167V5.4585L12.4583 5.4585ZM2.5 5.7085C2.15482 5.7085 1.875 5.98832 1.875 6.3335C1.875 6.67867 2.15482 6.9585 2.5 6.9585L17.5 6.9585C17.8452 6.9585 18.125 6.67867 18.125 6.3335C18.125 5.98832 17.8452 5.7085 17.5 5.7085H13.9583V3.50016C13.9583 2.87884 13.4547 2.37516 12.8333 2.37516L7.16667 2.37516C6.54535 2.37516 6.04167 2.87884 6.04167 3.50016V5.7085H2.5ZM12.7083 5.7085L7.29167 5.7085V3.62516L12.7083 3.62516V5.7085Z" fill="#000"/>
</svg>
