<svg width="16" height="16" viewBox="0 0 16 16" fill="none" xmlns="http://www.w3.org/2000/svg">
  <path fill-rule="evenodd" clip-rule="evenodd" d="M2.5 2.5V13.5H13.5V2.5H2.5ZM1.5 2.4C1.5 1.90294 1.90294 1.5 2.4 1.5H13.6C14.0971 1.5 14.5 1.90294 14.5 2.4V13.6C14.5 14.0971 14.0971 14.5 13.6 14.5H2.4C1.90294 14.5 1.5 14.0971 1.5 13.6V2.4Z" fill="#000" fill-opacity="0.65"/>
  <path fill-rule="evenodd" clip-rule="evenodd" d="M2.70005 2.6998V13.2998H13.3V2.6998H2.70005ZM1.30005 2.3998C1.30005 1.79229 1.79254 1.2998 2.40005 1.2998H13.6C14.2076 1.2998 14.7 1.79229 14.7 2.3998V13.5998C14.7 14.2073 14.2076 14.6998 13.6 14.6998H2.40005C1.79253 14.6998 1.30005 14.2073 1.30005 13.5998V2.3998ZM2.50005 2.4998H13.5V13.4998H2.50005V2.4998ZM2.40005 1.4998C1.90299 1.4998 1.50005 1.90275 1.50005 2.3998V13.5998C1.50005 14.0969 1.90299 14.4998 2.40005 14.4998H13.6C14.0971 14.4998 14.5 14.0969 14.5 13.5998V2.3998C14.5 1.90275 14.0971 1.4998 13.6 1.4998H2.40005Z" fill="#000" fill-opacity="0.65"/>
  <path fill-rule="evenodd" clip-rule="evenodd" d="M3.5 12C3.5 11.7239 3.72386 11.5 4 11.5L12 11.5C12.2761 11.5 12.5 11.7239 12.5 12C12.5 12.2761 12.2761 12.5 12 12.5L4 12.5C3.72386 12.5 3.5 12.2761 3.5 12Z" fill="#000" fill-opacity="0.65"/>
  <path fill-rule="evenodd" clip-rule="evenodd" d="M3.30005 11.9998C3.30005 11.6132 3.61345 11.2998 4.00005 11.2998L12 11.2998C12.3866 11.2998 12.7 11.6132 12.7 11.9998C12.7 12.3864 12.3866 12.6998 12 12.6998L4.00005 12.6998C3.61345 12.6998 3.30005 12.3864 3.30005 11.9998ZM4.00005 11.4998C3.72391 11.4998 3.50005 11.7237 3.50005 11.9998C3.50005 12.2759 3.72391 12.4998 4.00005 12.4998L12 12.4998C12.2762 12.4998 12.5 12.2759 12.5 11.9998C12.5 11.7237 12.2762 11.4998 12 11.4998L4.00005 11.4998Z" fill="#000" fill-opacity="0.65"/>
  <path fill-rule="evenodd" clip-rule="evenodd" d="M7.64641 3.64645C7.84167 3.45118 8.15825 3.45118 8.35351 3.64645L10.6868 5.97978C10.8821 6.17504 10.8821 6.49162 10.6868 6.68689C10.4916 6.88215 10.175 6.88215 9.97974 6.68689L8.49996 5.20711V9.33333C8.49996 9.60948 8.2761 9.83333 7.99996 9.83333C7.72382 9.83333 7.49996 9.60948 7.49996 9.33333V5.20711L6.02018 6.68689C5.82492 6.88215 5.50833 6.88215 5.31307 6.68689C5.11781 6.49162 5.11781 6.17504 5.31307 5.97978L7.64641 3.64645Z" fill="#000" fill-opacity="0.65"/>
  <path fill-rule="evenodd" clip-rule="evenodd" d="M7.50503 3.50483C7.7784 3.23146 8.22162 3.23146 8.49498 3.50483L10.8283 5.83816C11.1017 6.11153 11.1017 6.55475 10.8283 6.82811C10.5549 7.10148 10.1117 7.10148 9.83837 6.82811L8.70001 5.68975V9.33314C8.70001 9.71974 8.38661 10.0331 8.00001 10.0331C7.61341 10.0331 7.30001 9.71974 7.30001 9.33314V5.68975L6.16165 6.82811C5.88828 7.10148 5.44507 7.10148 5.1717 6.82811C4.89833 6.55475 4.89833 6.11153 5.1717 5.83816L7.50503 3.50483ZM6.02023 6.68669C5.82497 6.88195 5.50838 6.88195 5.31312 6.68669C5.11786 6.49143 5.11786 6.17485 5.31312 5.97958L7.64645 3.64625C7.84172 3.45099 8.1583 3.45099 8.35356 3.64625L10.6869 5.97958C10.8822 6.17485 10.8822 6.49143 10.6869 6.68669C10.4916 6.88195 10.1751 6.88195 9.97979 6.68669L8.50001 5.20691V9.33314C8.50001 9.60928 8.27615 9.83314 8.00001 9.83314C7.72387 9.83314 7.50001 9.60928 7.50001 9.33314V5.20691L6.02023 6.68669Z" fill="#000" fill-opacity="0.65"/>
</svg>
