<svg width="20" height="20" viewBox="0 0 20 20" fill="none" xmlns="http://www.w3.org/2000/svg">
<path fill-rule="evenodd" clip-rule="evenodd" d="M9.99996 10.625C7.12348 10.625 4.79163 12.9569 4.79163 15.8333V16.6667C4.79163 17.0118 4.5118 17.2917 4.16663 17.2917C3.82145 17.2917 3.54163 17.0118 3.54163 16.6667V15.8333C3.54163 12.2665 6.43312 9.375 9.99996 9.375C13.5668 9.375 16.4583 12.2665 16.4583 15.8333V16.6667C16.4583 17.0118 16.1785 17.2917 15.8333 17.2917C15.4881 17.2917 15.2083 17.0118 15.2083 16.6667V15.8333C15.2083 12.9569 12.8764 10.625 9.99996 10.625Z" fill="#000"/>
<path fill-rule="evenodd" clip-rule="evenodd" d="M9.99996 10.875C7.26155 10.875 5.04163 13.0949 5.04163 15.8333V16.6667C5.04163 17.1499 4.64987 17.5417 4.16663 17.5417C3.68338 17.5417 3.29163 17.1499 3.29163 16.6667V15.8333C3.29163 12.1284 6.29505 9.125 9.99996 9.125C13.7049 9.125 16.7083 12.1284 16.7083 15.8333V16.6667C16.7083 17.1499 16.3165 17.5417 15.8333 17.5417C15.35 17.5417 14.9583 17.1499 14.9583 16.6667V15.8333C14.9583 13.0949 12.7384 10.875 9.99996 10.875ZM4.79163 15.8333C4.79163 12.9569 7.12348 10.625 9.99996 10.625C12.8764 10.625 15.2083 12.9569 15.2083 15.8333V16.6667C15.2083 17.0118 15.4881 17.2917 15.8333 17.2917C16.1785 17.2917 16.4583 17.0118 16.4583 16.6667V15.8333C16.4583 12.2665 13.5668 9.375 9.99996 9.375C6.43312 9.375 3.54163 12.2665 3.54163 15.8333V16.6667C3.54163 17.0118 3.82145 17.2917 4.16663 17.2917C4.5118 17.2917 4.79163 17.0118 4.79163 16.6667V15.8333Z" fill="#000"/>
<path fill-rule="evenodd" clip-rule="evenodd" d="M9.99996 3.9585C8.50419 3.9585 7.29163 5.17106 7.29163 6.66683C7.29163 8.1626 8.50419 9.37516 9.99996 9.37516C11.4957 9.37516 12.7083 8.1626 12.7083 6.66683C12.7083 5.17106 11.4957 3.9585 9.99996 3.9585ZM6.04163 6.66683C6.04163 4.4807 7.81383 2.7085 9.99996 2.7085C12.1861 2.7085 13.9583 4.4807 13.9583 6.66683C13.9583 8.85296 12.1861 10.6252 9.99996 10.6252C7.81383 10.6252 6.04163 8.85296 6.04163 6.66683Z" fill="#000"/>
<path fill-rule="evenodd" clip-rule="evenodd" d="M9.99996 4.2085C8.64226 4.2085 7.54163 5.30913 7.54163 6.66683C7.54163 8.02453 8.64226 9.12516 9.99996 9.12516C11.3577 9.12516 12.4583 8.02453 12.4583 6.66683C12.4583 5.30913 11.3577 4.2085 9.99996 4.2085ZM5.79163 6.66683C5.79163 4.34263 7.67576 2.4585 9.99996 2.4585C12.3242 2.4585 14.2083 4.34263 14.2083 6.66683C14.2083 8.99103 12.3242 10.8752 9.99996 10.8752C7.67576 10.8752 5.79163 8.99103 5.79163 6.66683ZM7.29163 6.66683C7.29163 5.17106 8.50419 3.9585 9.99996 3.9585C11.4957 3.9585 12.7083 5.17106 12.7083 6.66683C12.7083 8.1626 11.4957 9.37516 9.99996 9.37516C8.50419 9.37516 7.29163 8.1626 7.29163 6.66683ZM9.99996 2.7085C7.81383 2.7085 6.04163 4.4807 6.04163 6.66683C6.04163 8.85296 7.81383 10.6252 9.99996 10.6252C12.1861 10.6252 13.9583 8.85296 13.9583 6.66683C13.9583 4.4807 12.1861 2.7085 9.99996 2.7085Z" fill="#000"/>
</svg>
