<svg width="16" height="16" viewBox="0 0 16 16" fill="none" xmlns="http://www.w3.org/2000/svg">
  <path fill-rule="evenodd" clip-rule="evenodd" d="M7.99992 8.5C5.69873 8.5 3.83325 10.3655 3.83325 12.6667V13.3333C3.83325 13.6095 3.60939 13.8333 3.33325 13.8333C3.05711 13.8333 2.83325 13.6095 2.83325 13.3333V12.6667C2.83325 9.8132 5.14645 7.5 7.99992 7.5C10.8534 7.5 13.1666 9.8132 13.1666 12.6667V13.3333C13.1666 13.6095 12.9427 13.8333 12.6666 13.8333C12.3904 13.8333 12.1666 13.6095 12.1666 13.3333V12.6667C12.1666 10.3655 10.3011 8.5 7.99992 8.5Z" fill="#000"/>
  <path fill-rule="evenodd" clip-rule="evenodd" d="M7.99997 8.70005C5.80924 8.70005 4.0333 10.476 4.0333 12.6667V13.3334C4.0333 13.72 3.7199 14.0334 3.3333 14.0334C2.9467 14.0334 2.6333 13.72 2.6333 13.3334V12.6667C2.6333 9.70279 5.03604 7.30005 7.99997 7.30005C10.9639 7.30005 13.3666 9.70279 13.3666 12.6667V13.3334C13.3666 13.72 13.0532 14.0334 12.6666 14.0334C12.28 14.0334 11.9666 13.72 11.9666 13.3334V12.6667C11.9666 10.476 10.1907 8.70005 7.99997 8.70005ZM3.8333 12.6667C3.8333 10.3655 5.69878 8.50005 7.99997 8.50005C10.3012 8.50005 12.1666 10.3655 12.1666 12.6667V13.3334C12.1666 13.6095 12.3905 13.8334 12.6666 13.8334C12.9428 13.8334 13.1666 13.6095 13.1666 13.3334V12.6667C13.1666 9.81324 10.8534 7.50005 7.99997 7.50005C5.1465 7.50005 2.8333 9.81324 2.8333 12.6667V13.3334C2.8333 13.6095 3.05716 13.8334 3.3333 13.8334C3.60944 13.8334 3.8333 13.6095 3.8333 13.3334V12.6667Z" fill="#000"/>
  <path fill-rule="evenodd" clip-rule="evenodd" d="M7.99992 3.16663C6.8033 3.16663 5.83325 4.13668 5.83325 5.33329C5.83325 6.52991 6.8033 7.49996 7.99992 7.49996C9.19654 7.49996 10.1666 6.52991 10.1666 5.33329C10.1666 4.13668 9.19654 3.16663 7.99992 3.16663ZM4.83325 5.33329C4.83325 3.58439 6.25102 2.16663 7.99992 2.16663C9.74882 2.16663 11.1666 3.58439 11.1666 5.33329C11.1666 7.08219 9.74882 8.49996 7.99992 8.49996C6.25102 8.49996 4.83325 7.08219 4.83325 5.33329Z" fill="#000"/>
  <path fill-rule="evenodd" clip-rule="evenodd" d="M7.99997 3.36667C6.91381 3.36667 6.0333 4.24718 6.0333 5.33334C6.0333 6.4195 6.91381 7.30001 7.99997 7.30001C9.08613 7.30001 9.96663 6.4195 9.96663 5.33334C9.96663 4.24718 9.08613 3.36667 7.99997 3.36667ZM4.6333 5.33334C4.6333 3.47398 6.14061 1.96667 7.99997 1.96667C9.85933 1.96667 11.3666 3.47398 11.3666 5.33334C11.3666 7.1927 9.85933 8.70001 7.99997 8.70001C6.14061 8.70001 4.6333 7.1927 4.6333 5.33334ZM5.8333 5.33334C5.8333 4.13672 6.80335 3.16667 7.99997 3.16667C9.19658 3.16667 10.1666 4.13672 10.1666 5.33334C10.1666 6.52996 9.19658 7.50001 7.99997 7.50001C6.80335 7.50001 5.8333 6.52996 5.8333 5.33334ZM7.99997 2.16667C6.25107 2.16667 4.8333 3.58444 4.8333 5.33334C4.8333 7.08224 6.25107 8.50001 7.99997 8.50001C9.74887 8.50001 11.1666 7.08224 11.1666 5.33334C11.1666 3.58444 9.74887 2.16667 7.99997 2.16667Z" fill="#000"/>
</svg>
