<svg width="21" height="20" viewBox="0 0 21 20" fill="none" xmlns="http://www.w3.org/2000/svg">
  <path fill-rule="evenodd" clip-rule="evenodd" d="M10.5 5.20831C10.8452 5.20831 11.125 5.48813 11.125 5.83331V10.8333C11.125 11.1785 10.8452 11.4583 10.5 11.4583C10.1548 11.4583 9.875 11.1785 9.875 10.8333L9.875 5.83331C9.875 5.48813 10.1548 5.20831 10.5 5.20831Z" fill="#000"/>
  <path fill-rule="evenodd" clip-rule="evenodd" d="M10.5 4.95831C10.9832 4.95831 11.375 5.35006 11.375 5.83331V10.8333C11.375 11.3166 10.9832 11.7083 10.5 11.7083C10.0168 11.7083 9.625 11.3166 9.625 10.8333L9.625 5.83331C9.625 5.35006 10.0168 4.95831 10.5 4.95831ZM11.125 5.83331C11.125 5.48814 10.8452 5.20831 10.5 5.20831C10.1548 5.20831 9.875 5.48814 9.875 5.83331L9.875 10.8333C9.875 11.1785 10.1548 11.4583 10.5 11.4583C10.8452 11.4583 11.125 11.1785 11.125 10.8333V5.83331Z" fill="#000"/>
  <path fill-rule="evenodd" clip-rule="evenodd" d="M10.9264 13.7012C11.183 13.9321 11.2038 14.3273 10.9729 14.5838L10.9646 14.5931C10.7337 14.8496 10.3385 14.8704 10.0819 14.6395C9.82533 14.4086 9.80453 14.0134 10.0354 13.7569L10.0438 13.7476C10.2747 13.491 10.6699 13.4702 10.9264 13.7012Z" fill="#000"/>
  <path fill-rule="evenodd" clip-rule="evenodd" d="M10.9729 14.5838C11.2038 14.3273 11.183 13.9321 10.9264 13.7012C10.6699 13.4702 10.2747 13.491 10.0438 13.7476L10.0354 13.7569C9.80454 14.0134 9.82534 14.4086 10.0819 14.6395C10.3385 14.8704 10.7337 14.8496 10.9646 14.5931L11.1504 14.7603C10.8271 15.1195 10.2739 15.1486 9.91466 14.8254C9.55547 14.5021 9.52635 13.9488 9.84963 13.5896C9.84963 13.5896 9.84963 13.5896 9.84963 13.5896L9.85796 13.5804L9.85796 13.5804C10.1812 13.2212 10.7345 13.1921 11.0937 13.5153C11.4529 13.8386 11.482 14.3919 11.1587 14.7511L11.1504 14.7603L10.9646 14.5931L10.9729 14.5838Z" fill="#000"/>
  <path fill-rule="evenodd" clip-rule="evenodd" d="M10.5001 2.29169C6.24289 2.29169 2.79175 5.74283 2.79175 10C2.79175 14.2572 6.24289 17.7084 10.5001 17.7084C14.7573 17.7084 18.2084 14.2572 18.2084 10C18.2084 5.74283 14.7573 2.29169 10.5001 2.29169ZM1.54175 10C1.54175 5.05247 5.55253 1.04169 10.5001 1.04169C15.4476 1.04169 19.4584 5.05247 19.4584 10C19.4584 14.9476 15.4476 18.9584 10.5001 18.9584C5.55253 18.9584 1.54175 14.9476 1.54175 10Z" fill="#000"/>
  <path fill-rule="evenodd" clip-rule="evenodd" d="M10.5001 2.54169C6.38096 2.54169 3.04175 5.8809 3.04175 10C3.04175 14.1191 6.38096 17.4584 10.5001 17.4584C14.6192 17.4584 17.9584 14.1191 17.9584 10C17.9584 5.8809 14.6192 2.54169 10.5001 2.54169ZM1.29175 10C1.29175 4.9144 5.41446 0.791687 10.5001 0.791687C15.5857 0.791687 19.7084 4.9144 19.7084 10C19.7084 15.0856 15.5857 19.2084 10.5001 19.2084C5.41446 19.2084 1.29175 15.0856 1.29175 10ZM2.79175 10C2.79175 5.74283 6.24289 2.29169 10.5001 2.29169C14.7573 2.29169 18.2084 5.74283 18.2084 10C18.2084 14.2572 14.7573 17.7084 10.5001 17.7084C6.24289 17.7084 2.79175 14.2572 2.79175 10ZM10.5001 1.04169C5.55253 1.04169 1.54175 5.05247 1.54175 10C1.54175 14.9476 5.55253 18.9584 10.5001 18.9584C15.4476 18.9584 19.4584 14.9476 19.4584 10C19.4584 5.05247 15.4476 1.04169 10.5001 1.04169Z" fill="#000"/>
</svg>
